M48
; DRILL file KiCad 10.0.1 date 2026-04-30T00:39:20
; FORMAT={-:-/ absolute / metric / decimal}
; #@! TF.CreationDate,2026-04-30T00:39:20+02:00
; #@! TF.GenerationSoftware,Kicad,Pcbnew,10.0.1
; #@! TF.FileFunction,MixedPlating,1,6
FMAT,2
METRIC
; #@! TA.AperFunction,Plated,PTH,ViaDrill
T1C0.300
; #@! TA.AperFunction,Plated,PTH,ComponentDrill
T2C0.600
; #@! TA.AperFunction,Plated,PTH,ComponentDrill
T3C0.650
; #@! TA.AperFunction,Plated,PTH,ComponentDrill
T4C1.000
; #@! TA.AperFunction,Plated,PTH,ComponentDrill
T5C3.200
; #@! TA.AperFunction,NonPlated,NPTH,ComponentDrill
T6C0.508
%
G90
G05
T1
X75.946Y-74.93
X76.327Y-71.501
X76.454Y-47.117
X76.5Y-67.6
X76.581Y-39.497
X76.581Y-77.216
X76.962Y-44.196
X77.089Y-74.676
X77.112Y-73.406
X77.3Y-69.2
X77.597Y-38.481
X77.597Y-41.783
X78.1Y-66.3
X78.105Y-56.007
X78.105Y-58.547
X78.105Y-61.087
X78.486Y-41.148
X78.486Y-63.627
X78.613Y-39.497
X78.994Y-80.518
X79.0Y-65.5
X79.502Y-55.626
X79.502Y-60.8
X79.6Y-67.3
X79.7Y-52.5
X79.7Y-77.4
X79.883Y-36.449
X80.0Y-49.8
X80.01Y-45.974
X80.2Y-57.2
X80.2Y-59.2
X80.347Y-42.011
X80.4Y-49.3
X80.4Y-52.5
X80.4Y-56.6
X80.4Y-61.9
X80.5Y-59.8
X80.518Y-35.687
X80.518Y-46.736
X80.623Y-62.457
X80.8Y-49.8
X80.899Y-72.136
X80.899Y-72.76
X80.899Y-74.03
X80.945Y-75.3
X81.0Y-38.8
X81.026Y-73.406
X81.1Y-52.5
X81.3Y-65.1
X81.407Y-70.993
X81.407Y-75.692
X81.534Y-35.814
X81.534Y-47.752
X81.6Y-42.0
X81.6Y-44.1
X81.617Y-38.8
X81.8Y-64.7
X81.8Y-67.9
X82.4Y-64.262
X82.5Y-49.5
X82.5Y-53.5
X82.5Y-58.5
X82.5Y-62.5
X82.55Y-34.798
X82.847Y-38.876
X82.931Y-47.879
X83.0Y-70.0
X83.058Y-44.069
X83.439Y-74.803
X83.439Y-84.709
X83.5Y-50.5
X83.5Y-53.5
X83.5Y-56.5
X83.5Y-60.5
X83.5Y-62.5
X83.947Y-34.544
X84.074Y-40.386
X84.201Y-46.355
X84.201Y-73.279
X84.5Y-50.5
X84.5Y-56.5
X84.5Y-61.5
X84.5Y-62.5
X84.729Y-39.869
X84.729Y-40.931
X84.8Y-47.6
X85.217Y-43.815
X85.217Y-74.676
X85.344Y-74.041
X85.5Y-49.5
X85.5Y-52.5
X85.5Y-56.5
X85.5Y-59.5
X85.5Y-60.5
X85.5Y-61.5
X85.587Y-76.617
X85.757Y-76.041
X85.78Y-40.94
X85.844Y-74.803
X85.95Y-34.17
X86.106Y-65.024
X86.12Y-36.75
X86.5Y-53.5
X86.5Y-55.5
X86.5Y-57.5
X86.5Y-58.5
X86.5Y-59.5
X86.5Y-60.5
X86.5Y-61.5
X86.5Y-62.5
X86.895Y-47.8
X86.995Y-70.866
X87.0Y-46.4
X87.0Y-47.1
X87.0Y-72.8
X87.1Y-85.598
X87.122Y-29.311
X87.122Y-69.342
X87.3Y-44.1
X87.5Y-50.5
X87.5Y-52.5
X87.5Y-53.5
X87.5Y-54.5
X87.5Y-55.5
X87.5Y-56.5
X87.5Y-57.5
X87.5Y-58.5
X87.5Y-59.5
X87.5Y-60.5
X87.5Y-61.5
X87.5Y-62.5
X87.757Y-31.6
X88.011Y-38.227
X88.138Y-40.9
X88.138Y-72.76
X88.392Y-29.972
X88.5Y-50.5
X88.5Y-52.5
X88.5Y-53.5
X88.5Y-58.5
X88.5Y-59.5
X88.5Y-60.5
X88.5Y-62.5
X88.646Y-37.465
X88.773Y-33.909
X88.8Y-35.6
X88.8Y-47.1
X89.027Y-28.702
X89.027Y-63.881
X89.027Y-78.867
X89.154Y-77.089
X89.2Y-47.6
X89.3Y-44.2
X89.5Y-48.8
X89.5Y-53.5
X89.5Y-58.5
X89.5Y-59.5
X89.5Y-60.5
X89.5Y-61.5
X89.535Y-73.66
X89.6Y-47.1
X89.639Y-75.311
X89.662Y-69.342
X89.7Y-45.4
X89.7Y-85.598
X90.2Y-32.78
X90.2Y-43.3
X90.5Y-49.5
X90.5Y-50.5
X90.5Y-51.5
X90.5Y-52.5
X90.5Y-53.5
X90.5Y-54.5
X90.5Y-55.5
X90.5Y-56.5
X90.5Y-57.5
X90.5Y-58.5
X90.5Y-59.5
X90.5Y-62.5
X90.551Y-64.262
X90.8Y-34.0
X90.9Y-44.069
X90.932Y-45.466
X90.932Y-88.773
X91.2Y-36.9
X91.3Y-31.3
X91.3Y-42.5
X91.313Y-39.278
X91.313Y-47.371
X91.313Y-69.342
X91.313Y-71.628
X91.313Y-74.803
X91.313Y-78.867
X91.313Y-81.788
X91.313Y-83.947
X91.44Y-34.163
X91.5Y-49.5
X91.5Y-50.5
X91.5Y-51.5
X91.5Y-53.5
X91.5Y-54.5
X91.5Y-55.5
X91.5Y-56.5
X91.5Y-57.5
X91.5Y-58.5
X91.665Y-28.843
X91.7Y-41.9
X91.948Y-37.846
X92.0Y-42.5
X92.075Y-34.187
X92.202Y-28.575
X92.3Y-38.4
X92.4Y-41.9
X92.47Y-28.038
X92.5Y-51.5
X92.5Y-52.5
X92.5Y-53.5
X92.5Y-54.5
X92.5Y-55.5
X92.5Y-56.5
X92.5Y-58.5
X92.5Y-59.5
X92.599Y-37.846
X92.8Y-42.507
X92.837Y-28.575
X93.091Y-69.342
X93.091Y-72.263
X93.091Y-74.803
X93.091Y-80.264
X93.091Y-83.058
X93.126Y-34.165
X93.218Y-37.084
X93.472Y-28.194
X93.472Y-88.773
X93.5Y-50.5
X93.5Y-51.5
X93.5Y-53.5
X93.5Y-56.5
X93.5Y-57.5
X93.5Y-58.5
X93.5Y-59.5
X93.5Y-60.5
X93.599Y-46.99
X93.726Y-34.154
X93.853Y-33.401
X93.853Y-36.957
X93.98Y-37.719
X94.107Y-28.575
X94.161Y-42.5
X94.321Y-28.015
X94.335Y-38.25
X94.361Y-34.163
X94.5Y-41.9
X94.5Y-50.5
X94.5Y-53.5
X94.5Y-56.5
X94.5Y-57.5
X94.5Y-58.5
X94.5Y-59.5
X94.5Y-60.5
X94.5Y-61.5
X94.5Y-62.5
X94.615Y-37.719
X94.7Y-69.342
X94.7Y-73.5
X94.742Y-28.448
X94.869Y-81.28
X94.952Y-71.926
X94.996Y-34.163
X95.377Y-28.321
X95.5Y-38.9
X95.5Y-49.5
X95.5Y-53.5
X95.5Y-56.5
X95.5Y-57.5
X95.5Y-58.5
X95.5Y-59.5
X95.5Y-60.5
X95.5Y-61.5
X95.5Y-62.5
X95.5Y-77.7
X95.631Y-34.163
X95.631Y-37.084
X95.8Y-31.0
X95.8Y-40.1
X96.139Y-70.739
X96.2Y-72.9
X96.266Y-34.163
X96.266Y-84.836
X96.36Y-61.91
X96.4Y-52.3
X96.485Y-39.37
X96.586Y-41.991
X96.6Y-37.0
X96.901Y-33.909
X96.961Y-34.671
X97.028Y-32.639
X97.1Y-41.6
X97.1Y-42.3
X97.155Y-38.354
X97.155Y-88.9
X97.2Y-51.6
X97.282Y-37.465
X97.3Y-57.1
X97.4Y-53.4
X97.6Y-46.9
X97.6Y-51.1
X97.663Y-75.819
X97.7Y-48.2
X97.7Y-49.8
X97.8Y-44.053
X97.8Y-56.7
X97.8Y-57.5
X98.0Y-53.0
X98.1Y-46.5
X98.3Y-45.2
X98.552Y-58.801
X98.552Y-83.185
X99.0Y-54.9
X99.06Y-32.385
X99.1Y-45.2
X99.1Y-49.6
X99.2Y-51.5
X99.441Y-34.163
X99.5Y-46.9
X99.6Y-51.1
X99.64Y-60.1
X99.7Y-74.2
X99.822Y-36.449
X99.822Y-39.278
X99.822Y-67.564
X100.0Y-46.5
X100.0Y-53.4
X100.076Y-65.913
X100.076Y-66.964
X100.203Y-34.29
X100.203Y-35.052
X100.203Y-54.356
X100.3Y-28.702
X100.4Y-56.3
X100.734Y-62.23
X100.965Y-31.369
X100.965Y-34.29
X100.965Y-35.052
X101.2Y-60.579
X101.3Y-76.7
X101.346Y-33.401
X101.473Y-44.069
X101.5Y-78.7
X101.6Y-36.1
X101.6Y-58.039
X101.704Y-58.928
X101.704Y-61.214
X101.727Y-34.29
X101.727Y-35.052
X101.824Y-67.035
X101.854Y-40.386
X101.981Y-66.04
X101.981Y-89.027
X102.0Y-47.7
X102.1Y-53.9
X102.108Y-32.512
X102.108Y-67.564
X102.2Y-47.1
X102.362Y-36.195
X102.362Y-39.116
X102.362Y-39.751
X102.362Y-87.0
X102.489Y-51.181
X102.489Y-68.453
X102.489Y-73.406
X102.743Y-57.277
X103.08Y-71.926
X103.124Y-68.707
X103.124Y-81.026
X103.2Y-40.3
X103.251Y-82.804
X103.6Y-77.7
X104.013Y-52.07
X104.3Y-73.0
X104.5Y-48.4
X104.521Y-38.227
X104.902Y-44.45
X104.928Y-72.8
X105.029Y-41.91
X105.052Y-59.182
X105.156Y-52.197
X105.156Y-64.008
X105.283Y-33.528
X105.283Y-34.417
X105.283Y-35.433
X105.283Y-38.227
X105.283Y-73.406
X105.41Y-88.9
X105.537Y-32.512
X105.566Y-72.798
X105.664Y-54.864
X105.7Y-55.8
X105.7Y-57.4
X105.7Y-61.7
X106.045Y-38.227
X106.045Y-83.185
X106.172Y-84.582
X106.228Y-72.8
X106.553Y-73.406
X106.6Y-50.8
X106.878Y-72.8
X106.934Y-47.752
X106.934Y-60.325
X107.035Y-54.869
X107.3Y-88.9
X107.503Y-72.8
X107.569Y-87.0
X107.823Y-31.369
X107.823Y-73.406
X107.95Y-45.847
X107.95Y-58.547
X108.077Y-62.484
X108.128Y-72.8
X108.204Y-32.004
X108.204Y-52.832
X108.204Y-53.594
X108.5Y-57.6
X108.585Y-31.369
X108.712Y-44.069
X108.8Y-72.8
X109.093Y-73.406
X109.093Y-83.058
X109.2Y-80.9
X109.22Y-41.402
X109.3Y-56.5
X109.415Y-61.509
X109.415Y-62.159
X109.5Y-76.8
X109.728Y-44.069
X109.855Y-58.547
X110.038Y-51.506
X110.109Y-53.919
X110.109Y-66.04
X110.2Y-77.8
X110.236Y-37.719
X110.363Y-45.802
X110.894Y-61.341
X110.894Y-62.357
X110.998Y-80.645
X111.125Y-31.75
X111.125Y-32.512
X111.125Y-33.782
X111.125Y-34.544
X111.2Y-87.0
X111.208Y-71.926
X111.6Y-88.9
X111.7Y-77.7
X111.887Y-57.277
X112.3Y-73.0
X112.345Y-68.167
X112.395Y-49.911
X112.649Y-46.736
X112.649Y-64.897
X112.7Y-61.3
X112.7Y-62.4
X112.8Y-44.6
X113.0Y-72.8
X113.411Y-31.75
X113.411Y-32.512
X113.411Y-33.782
X113.411Y-34.544
X113.411Y-73.406
X113.538Y-41.656
X113.6Y-60.1
X113.665Y-46.99
X113.7Y-63.6
X113.7Y-72.8
X113.8Y-45.4
X114.046Y-55.118
X114.173Y-37.719
X114.325Y-72.8
X114.681Y-73.406
X114.935Y-68.707
X115.0Y-72.8
X115.316Y-83.185
X115.625Y-72.8
X115.824Y-65.786
X115.951Y-69.85
X115.951Y-73.406
X116.078Y-63.754
X116.078Y-64.389
X116.205Y-49.657
X116.205Y-55.88
X116.3Y-72.8
X116.332Y-43.942
X116.586Y-48.006
X116.713Y-63.754
X116.713Y-64.389
X116.84Y-67.31
X116.925Y-72.8
X117.094Y-84.709
X117.2Y-76.5
X117.221Y-73.406
X117.348Y-63.754
X117.348Y-64.389
X117.475Y-58.928
X117.6Y-72.8
X117.602Y-38.227
X117.602Y-70.866
X117.602Y-78.359
X117.856Y-80.137
X117.983Y-63.754
X117.983Y-64.389
X117.983Y-83.058
X118.618Y-50.292
X118.872Y-32.512
X118.915Y-40.259
X118.915Y-41.021
X118.915Y-41.783
X119.126Y-45.593
X119.24Y-30.75
X119.253Y-72.898
X119.38Y-34.163
X119.38Y-53.467
X119.507Y-42.672
X119.605Y-47.893
X119.634Y-66.167
X119.634Y-88.9
X119.677Y-40.259
X119.677Y-41.021
X119.677Y-41.783
X119.761Y-73.38
X119.888Y-30.734
X119.888Y-34.544
X120.015Y-57.531
X120.142Y-37.084
X120.142Y-52.959
X120.396Y-32.512
X120.523Y-81.153
X120.621Y-74.916
X120.65Y-37.592
X121.158Y-37.084
X121.158Y-47.625
X121.158Y-54.991
X121.158Y-75.184
X121.285Y-71.247
X121.285Y-79.883
X121.455Y-43.561
X121.455Y-44.323
X121.455Y-45.085
X121.539Y-48.133
X121.73Y-77.66
X121.92Y-59.309
X121.92Y-71.501
X121.92Y-85.09
X121.949Y-79.869
X122.047Y-78.232
X122.174Y-66.167
X122.174Y-88.9
X122.217Y-43.561
X122.217Y-44.323
X122.217Y-45.085
X122.364Y-42.1
X122.428Y-50.927
X122.682Y-76.2
X122.809Y-79.883
X123.063Y-49.403
X123.19Y-79.375
X123.317Y-76.454
X123.429Y-74.183
X123.444Y-70.866
X123.571Y-79.883
X123.634Y-70.167
X123.698Y-41.529
X123.825Y-40.386
X123.825Y-60.325
X123.963Y-73.909
X123.995Y-38.354
X124.079Y-76.327
X124.079Y-79.375
X124.09Y-39.3
X124.333Y-36.449
X124.333Y-85.471
X124.46Y-49.022
X124.703Y-76.455
X124.714Y-42.418
X124.714Y-74.041
X124.714Y-79.375
X124.714Y-82.042
X124.714Y-88.9
X124.968Y-60.452
X125.222Y-50.165
X125.222Y-50.8
X125.3Y-76.4
X125.349Y-82.042
X125.476Y-28.702
X125.476Y-29.337
X125.73Y-60.452
X125.857Y-50.165
X125.857Y-50.8
X126.111Y-59.817
X126.238Y-28.702
X126.238Y-29.337
X126.365Y-36.957
X126.492Y-50.165
X126.492Y-50.8
X126.492Y-60.452
X126.619Y-55.372
X126.619Y-56.134
X126.619Y-56.896
X126.619Y-79.883
X126.662Y-53.34
X126.662Y-54.229
X126.746Y-45.593
X126.746Y-46.355
X126.746Y-47.117
X126.746Y-73.406
X126.79Y-37.465
X127.254Y-36.957
X127.254Y-60.452
X127.254Y-82.169
X127.381Y-55.372
X127.381Y-56.134
X127.381Y-56.896
X127.381Y-83.185
X127.508Y-45.593
X127.508Y-46.355
X127.508Y-47.117
X127.551Y-53.34
X127.551Y-54.229
X127.889Y-38.354
X128.44Y-53.34
X128.44Y-54.229
X128.905Y-60.452
X129.159Y-32.893
X129.329Y-53.34
X129.329Y-54.229
X129.413Y-87.503
X129.667Y-66.548
X129.921Y-50.927
X130.175Y-63.754
X130.302Y-46.355
X130.409Y-41.402
X130.409Y-42.164
X130.429Y-83.566
X130.556Y-60.452
X130.937Y-36.068
X131.128Y-41.402
X131.128Y-42.164
X131.953Y-82.55
X131.996Y-39.37
X131.996Y-40.132
X132.08Y-72.263
X132.461Y-51.435
X132.461Y-65.278
X132.715Y-39.37
X132.715Y-40.132
X132.969Y-72.263
X133.223Y-65.278
X133.604Y-73.025
X133.604Y-73.787
X133.604Y-74.549
X133.604Y-75.311
X133.731Y-37.338
X133.858Y-46.228
X133.985Y-62.992
X133.985Y-63.754
X133.985Y-64.516
X133.985Y-65.278
X134.112Y-67.818
X134.112Y-68.707
X134.112Y-69.596
X134.112Y-70.485
X134.112Y-71.501
X134.366Y-76.581
X134.62Y-55.88
X134.93Y-77.597
X134.93Y-78.613
X135.382Y-70.612
X135.82Y-77.597
X135.82Y-78.613
X136.271Y-42.037
X136.271Y-50.419
X136.271Y-70.612
X136.398Y-59.182
X136.708Y-77.597
X136.708Y-78.613
X137.16Y-70.612
X137.16Y-80.391
X137.16Y-81.407
X137.16Y-82.296
T4
X77.114Y-49.682
X77.114Y-52.222
X77.114Y-54.762
X77.114Y-57.302
X77.114Y-59.842
X77.114Y-62.382
X83.82Y-30.48
X83.947Y-81.153
X86.487Y-81.153
X87.122Y-67.31
X87.122Y-87.63
X89.027Y-81.153
X89.662Y-67.31
X89.662Y-87.63
X92.202Y-67.31
X92.202Y-87.63
X94.742Y-67.31
X94.742Y-87.63
X118.364Y-67.31
X118.364Y-87.63
X120.904Y-67.31
X120.904Y-87.63
X123.444Y-67.31
X123.444Y-87.63
X125.984Y-67.31
X125.984Y-87.63
X129.032Y-30.48
T5
X78.486Y-31.75
X78.486Y-86.36
X134.366Y-31.75
X134.366Y-86.36
T6
X123.384Y-32.512
T2
X117.384Y-30.362G85X117.084Y-30.362
G05
X117.384Y-34.662G85X117.084Y-34.662
G05
X122.184Y-30.362G85X121.884Y-30.362
G05
X122.184Y-34.662G85X121.884Y-34.662
G05
T3
X90.372Y-27.068G85X90.372Y-26.018
G05
X96.572Y-27.068G85X96.572Y-26.018
G05
T6
X115.985Y-32.512G85X115.783Y-32.512
G05
M30
