%TF.GenerationSoftware,KiCad,Pcbnew,10.0.1*%
%TF.CreationDate,2026-04-30T00:39:11+02:00*%
%TF.ProjectId,hd_64_v0,68645f36-345f-4763-902e-6b696361645f,0.2*%
%TF.SameCoordinates,PX4737720PY55fe290*%
%TF.FileFunction,Soldermask,Top*%
%TF.FilePolarity,Negative*%
%FSLAX46Y46*%
G04 Gerber Fmt 4.6, Leading zero omitted, Abs format (unit mm)*
G04 Created by KiCad (PCBNEW 10.0.1) date 2026-04-30 00:39:11*
%MOMM*%
%LPD*%
G01*
G04 APERTURE LIST*
G04 Aperture macros list*
%AMRoundRect*
0 Rectangle with rounded corners*
0 $1 Rounding radius*
0 $2 $3 $4 $5 $6 $7 $8 $9 X,Y pos of 4 corners*
0 Add a 4 corners polygon primitive as box body*
4,1,4,$2,$3,$4,$5,$6,$7,$8,$9,$2,$3,0*
0 Add four circle primitives for the rounded corners*
1,1,$1+$1,$2,$3*
1,1,$1+$1,$4,$5*
1,1,$1+$1,$6,$7*
1,1,$1+$1,$8,$9*
0 Add four rect primitives between the rounded corners*
20,1,$1+$1,$2,$3,$4,$5,0*
20,1,$1+$1,$4,$5,$6,$7,0*
20,1,$1+$1,$6,$7,$8,$9,0*
20,1,$1+$1,$8,$9,$2,$3,0*%
%AMOutline5P*
0 Free polygon, 5 corners , with rotation*
0 The origin of the aperture is its center*
0 number of corners: always 5*
0 $1 to $10 corner X, Y*
0 $11 Rotation angle, in degrees counterclockwise*
0 create outline with 5 corners*
4,1,5,$1,$2,$3,$4,$5,$6,$7,$8,$9,$10,$1,$2,$11*%
%AMOutline6P*
0 Free polygon, 6 corners , with rotation*
0 The origin of the aperture is its center*
0 number of corners: always 6*
0 $1 to $12 corner X, Y*
0 $13 Rotation angle, in degrees counterclockwise*
0 create outline with 6 corners*
4,1,6,$1,$2,$3,$4,$5,$6,$7,$8,$9,$10,$11,$12,$1,$2,$13*%
%AMOutline7P*
0 Free polygon, 7 corners , with rotation*
0 The origin of the aperture is its center*
0 number of corners: always 7*
0 $1 to $14 corner X, Y*
0 $15 Rotation angle, in degrees counterclockwise*
0 create outline with 7 corners*
4,1,7,$1,$2,$3,$4,$5,$6,$7,$8,$9,$10,$11,$12,$13,$14,$1,$2,$15*%
%AMOutline8P*
0 Free polygon, 8 corners , with rotation*
0 The origin of the aperture is its center*
0 number of corners: always 8*
0 $1 to $16 corner X, Y*
0 $17 Rotation angle, in degrees counterclockwise*
0 create outline with 8 corners*
4,1,8,$1,$2,$3,$4,$5,$6,$7,$8,$9,$10,$11,$12,$13,$14,$15,$16,$1,$2,$17*%
%AMFreePoly0*
4,1,9,3.862500,-0.866500,0.737500,-0.866500,0.737500,-0.450000,-0.737500,-0.450000,-0.737500,0.450000,0.737500,0.450000,0.737500,0.866500,3.862500,0.866500,3.862500,-0.866500,3.862500,-0.866500,$1*%
%AMFreePoly1*
4,1,23,0.550000,-0.750000,0.000000,-0.750000,0.000000,-0.745722,-0.065263,-0.745722,-0.191342,-0.711940,-0.304381,-0.646677,-0.396677,-0.554381,-0.461940,-0.441342,-0.495722,-0.315263,-0.495722,-0.250000,-0.500000,-0.250000,-0.500000,0.250000,-0.495722,0.250000,-0.495722,0.315263,-0.461940,0.441342,-0.396677,0.554381,-0.304381,0.646677,-0.191342,0.711940,-0.065263,0.745722,0.000000,0.745722,
0.000000,0.750000,0.550000,0.750000,0.550000,-0.750000,0.550000,-0.750000,$1*%
%AMFreePoly2*
4,1,23,0.000000,0.745722,0.065263,0.745722,0.191342,0.711940,0.304381,0.646677,0.396677,0.554381,0.461940,0.441342,0.495722,0.315263,0.495722,0.250000,0.500000,0.250000,0.500000,-0.250000,0.495722,-0.250000,0.495722,-0.315263,0.461940,-0.441342,0.396677,-0.554381,0.304381,-0.646677,0.191342,-0.711940,0.065263,-0.745722,0.000000,-0.745722,0.000000,-0.750000,-0.550000,-0.750000,
-0.550000,0.750000,0.000000,0.750000,0.000000,0.745722,0.000000,0.745722,$1*%
%AMFreePoly3*
4,1,23,0.500000,-0.750000,0.000000,-0.750000,0.000000,-0.745722,-0.065263,-0.745722,-0.191342,-0.711940,-0.304381,-0.646677,-0.396677,-0.554381,-0.461940,-0.441342,-0.495722,-0.315263,-0.495722,-0.250000,-0.500000,-0.250000,-0.500000,0.250000,-0.495722,0.250000,-0.495722,0.315263,-0.461940,0.441342,-0.396677,0.554381,-0.304381,0.646677,-0.191342,0.711940,-0.065263,0.745722,0.000000,0.745722,
0.000000,0.750000,0.500000,0.750000,0.500000,-0.750000,0.500000,-0.750000,$1*%
%AMFreePoly4*
4,1,23,0.000000,0.745722,0.065263,0.745722,0.191342,0.711940,0.304381,0.646677,0.396677,0.554381,0.461940,0.441342,0.495722,0.315263,0.495722,0.250000,0.500000,0.250000,0.500000,-0.250000,0.495722,-0.250000,0.495722,-0.315263,0.461940,-0.441342,0.396677,-0.554381,0.304381,-0.646677,0.191342,-0.711940,0.065263,-0.745722,0.000000,-0.745722,0.000000,-0.750000,-0.500000,-0.750000,
-0.500000,0.750000,0.000000,0.750000,0.000000,0.745722,0.000000,0.745722,$1*%
G04 Aperture macros list end*
%ADD10RoundRect,0.218750X0.256250X-0.218750X0.256250X0.218750X-0.256250X0.218750X-0.256250X-0.218750X0*%
%ADD11RoundRect,0.147500X0.172500X-0.147500X0.172500X0.147500X-0.172500X0.147500X-0.172500X-0.147500X0*%
%ADD12RoundRect,0.147500X-0.172500X0.147500X-0.172500X-0.147500X0.172500X-0.147500X0.172500X0.147500X0*%
%ADD13O,2.000000X3.000000*%
%ADD14C,6.400000*%
%ADD15RoundRect,0.150000X0.512500X0.150000X-0.512500X0.150000X-0.512500X-0.150000X0.512500X-0.150000X0*%
%ADD16RoundRect,0.147500X-0.147500X-0.172500X0.147500X-0.172500X0.147500X0.172500X-0.147500X0.172500X0*%
%ADD17RoundRect,0.218750X0.218750X0.256250X-0.218750X0.256250X-0.218750X-0.256250X0.218750X-0.256250X0*%
%ADD18C,1.500000*%
%ADD19R,0.400000X1.000000*%
%ADD20RoundRect,0.100000X0.637500X0.100000X-0.637500X0.100000X-0.637500X-0.100000X0.637500X-0.100000X0*%
%ADD21RoundRect,0.147500X0.147500X0.172500X-0.147500X0.172500X-0.147500X-0.172500X0.147500X-0.172500X0*%
%ADD22R,1.300000X0.900000*%
%ADD23FreePoly0,0.000000*%
%ADD24RoundRect,0.218750X-0.218750X-0.256250X0.218750X-0.256250X0.218750X0.256250X-0.218750X0.256250X0*%
%ADD25R,0.400000X1.200000*%
%ADD26R,2.200000X3.300000*%
%ADD27R,0.300000X1.400000*%
%ADD28RoundRect,0.100000X-0.637500X-0.100000X0.637500X-0.100000X0.637500X0.100000X-0.637500X0.100000X0*%
%ADD29R,1.000000X1.000000*%
%ADD30R,5.700000X1.600000*%
%ADD31RoundRect,0.250000X-0.700000X1.825000X-0.700000X-1.825000X0.700000X-1.825000X0.700000X1.825000X0*%
%ADD32R,1.060000X0.650000*%
%ADD33C,0.508000*%
%ADD34O,0.710000X0.508000*%
%ADD35O,1.346200X1.092200*%
%ADD36R,0.304800X0.863600*%
%ADD37RoundRect,0.218750X-0.256250X0.218750X-0.256250X-0.218750X0.256250X-0.218750X0.256250X0.218750X0*%
%ADD38O,1.700000X3.000000*%
%ADD39R,0.700000X0.340000*%
%ADD40R,1.400000X1.200000*%
%ADD41FreePoly1,0.000000*%
%ADD42R,0.900000X1.500000*%
%ADD43FreePoly2,0.000000*%
%ADD44RoundRect,0.062500X0.687500X0.062500X-0.687500X0.062500X-0.687500X-0.062500X0.687500X-0.062500X0*%
%ADD45RoundRect,0.062500X0.062500X0.687500X-0.062500X0.687500X-0.062500X-0.687500X0.062500X-0.687500X0*%
%ADD46R,1.220000X0.650000*%
%ADD47R,1.700000X0.650000*%
%ADD48C,0.654000*%
%ADD49R,0.230000X0.850000*%
%ADD50R,0.230000X1.000000*%
%ADD51R,2.400000X1.380000*%
%ADD52O,1.500000X2.550000*%
%ADD53RoundRect,0.100000X0.100000X-0.637500X0.100000X0.637500X-0.100000X0.637500X-0.100000X-0.637500X0*%
%ADD54R,1.700000X1.700000*%
%ADD55O,1.700000X1.700000*%
%ADD56R,1.000000X1.500000*%
%ADD57R,1.700000X3.000000*%
%ADD58Outline6P,-0.381000X0.120000X-0.201000X0.300000X0.381000X0.300000X0.381000X-0.300000X-0.201000X-0.300000X-0.381000X-0.120000X180.000000*%
%ADD59Outline6P,-0.381000X0.300000X0.201000X0.300000X0.381000X0.120000X0.381000X-0.120000X0.201000X-0.300000X-0.381000X-0.300000X180.000000*%
%ADD60FreePoly3,270.000000*%
%ADD61FreePoly4,270.000000*%
G04 APERTURE END LIST*
D10*
%TO.C,C97*%
X77600000Y-41087500D03*
X77600000Y-39512500D03*
%TD*%
D11*
%TO.C,R51*%
X111564500Y-53134000D03*
X111564500Y-52164000D03*
%TD*%
D12*
%TO.C,R86*%
X108204000Y-79040000D03*
X108204000Y-80010000D03*
%TD*%
D11*
%TO.C,R57*%
X79502000Y-62461000D03*
X79502000Y-61491000D03*
%TD*%
D12*
%TO.C,R89*%
X113665000Y-79040000D03*
X113665000Y-80010000D03*
%TD*%
D13*
%TO.C,J10*%
X129032000Y-30480000D03*
%TD*%
D12*
%TO.C,R81*%
X104775000Y-80945000D03*
X104775000Y-81915000D03*
%TD*%
D14*
%TO.C,H4*%
X134366000Y-86360000D03*
%TD*%
D15*
%TO.C,Q1*%
X120136500Y-62926000D03*
X120136500Y-61026000D03*
X117861500Y-61976000D03*
%TD*%
D16*
%TO.C,R104*%
X77112000Y-72771000D03*
X78082000Y-72771000D03*
%TD*%
D17*
%TO.C,C8*%
X104419500Y-66040000D03*
X102844500Y-66040000D03*
%TD*%
D10*
%TO.C,C16*%
X126769000Y-40030500D03*
X126769000Y-38455500D03*
%TD*%
D18*
%TO.C,U20*%
X125857000Y-31242000D03*
%TD*%
D19*
%TO.C,U2*%
X103628000Y-77726000D03*
X104278000Y-77726000D03*
X104928000Y-77726000D03*
X105578000Y-77726000D03*
X106228000Y-77726000D03*
X106878000Y-77726000D03*
X107528000Y-77726000D03*
X108178000Y-77726000D03*
X108828000Y-77726000D03*
X109478000Y-77726000D03*
X109478000Y-71926000D03*
X108828000Y-71926000D03*
X108178000Y-71926000D03*
X107528000Y-71926000D03*
X106878000Y-71926000D03*
X106228000Y-71926000D03*
X105578000Y-71926000D03*
X104928000Y-71926000D03*
X104278000Y-71926000D03*
X103628000Y-71926000D03*
%TD*%
D20*
%TO.C,U15*%
X109415500Y-64759000D03*
X109415500Y-64109000D03*
X109415500Y-63459000D03*
X109415500Y-62809000D03*
X109415500Y-62159000D03*
X109415500Y-61509000D03*
X109415500Y-60859000D03*
X109415500Y-60209000D03*
X103690500Y-60209000D03*
X103690500Y-60859000D03*
X103690500Y-61509000D03*
X103690500Y-62159000D03*
X103690500Y-62809000D03*
X103690500Y-63459000D03*
X103690500Y-64109000D03*
X103690500Y-64759000D03*
%TD*%
D12*
%TO.C,R23*%
X105605500Y-65768000D03*
X105605500Y-66738000D03*
%TD*%
D21*
%TO.C,R37*%
X99291000Y-35560000D03*
X98321000Y-35560000D03*
%TD*%
D22*
%TO.C,U5*%
X133152500Y-76581000D03*
D23*
X133240000Y-78081000D03*
D22*
X133152500Y-79581000D03*
%TD*%
D12*
%TO.C,R78*%
X100203000Y-79040000D03*
X100203000Y-80010000D03*
%TD*%
D21*
%TO.C,C12*%
X126088000Y-73660000D03*
X125118000Y-73660000D03*
%TD*%
D11*
%TO.C,C44*%
X80010000Y-45316000D03*
X80010000Y-44346000D03*
%TD*%
D21*
%TO.C,C10*%
X111864000Y-62357000D03*
X110894000Y-62357000D03*
%TD*%
D24*
%TO.C,C17*%
X131038500Y-73279000D03*
X132613500Y-73279000D03*
%TD*%
D12*
%TO.C,R94*%
X117221000Y-80945000D03*
X117221000Y-81915000D03*
%TD*%
D24*
%TO.C,C5*%
X107797500Y-67564000D03*
X109372500Y-67564000D03*
%TD*%
D16*
%TO.C,R42*%
X102815000Y-53900000D03*
X103785000Y-53900000D03*
%TD*%
D25*
%TO.C,U18*%
X79077500Y-43000000D03*
X79712500Y-43000000D03*
X80347500Y-43000000D03*
X80982500Y-43000000D03*
X81617500Y-43000000D03*
X82252500Y-43000000D03*
X82887500Y-43000000D03*
X83522500Y-43000000D03*
X83522500Y-37800000D03*
X82887500Y-37800000D03*
X82252500Y-37800000D03*
X81617500Y-37800000D03*
X80982500Y-37800000D03*
X80347500Y-37800000D03*
X79712500Y-37800000D03*
X79077500Y-37800000D03*
%TD*%
D26*
%TO.C,J1*%
X99076000Y-87762500D03*
X113776000Y-87762500D03*
D27*
X100676000Y-85692500D03*
X101176000Y-85692500D03*
X101676000Y-85692500D03*
X102176000Y-85692500D03*
X102676000Y-85692500D03*
X103176000Y-85692500D03*
X103676000Y-85692500D03*
X104176000Y-85692500D03*
X104676000Y-85692500D03*
X105176000Y-85692500D03*
X105676000Y-85692500D03*
X106176000Y-85692500D03*
X106676000Y-85692500D03*
X107176000Y-85692500D03*
X107676000Y-85692500D03*
X108176000Y-85692500D03*
X108676000Y-85692500D03*
X109176000Y-85692500D03*
X109676000Y-85692500D03*
X110176000Y-85692500D03*
X110676000Y-85692500D03*
X111176000Y-85692500D03*
X111676000Y-85692500D03*
X112176000Y-85692500D03*
%TD*%
D12*
%TO.C,R82*%
X105410000Y-79040000D03*
X105410000Y-80010000D03*
%TD*%
D21*
%TO.C,R2*%
X101704000Y-61214000D03*
X100734000Y-61214000D03*
%TD*%
D28*
%TO.C,U11*%
X103368000Y-45802000D03*
X103368000Y-46452000D03*
X103368000Y-47102000D03*
X103368000Y-47752000D03*
X103368000Y-48402000D03*
X103368000Y-49052000D03*
X103368000Y-49702000D03*
X103368000Y-50352000D03*
X109093000Y-50352000D03*
X109093000Y-49702000D03*
X109093000Y-49052000D03*
X109093000Y-48402000D03*
X109093000Y-47752000D03*
X109093000Y-47102000D03*
X109093000Y-46452000D03*
X109093000Y-45802000D03*
%TD*%
D12*
%TO.C,R121*%
X82062000Y-44741000D03*
X82062000Y-45711000D03*
%TD*%
D29*
%TO.C,D1*%
X136271000Y-72156000D03*
X136271000Y-74656000D03*
%TD*%
D30*
%TO.C,L2*%
X129075000Y-48705000D03*
X129075000Y-44005000D03*
%TD*%
D21*
%TO.C,R33*%
X101196000Y-41402000D03*
X100226000Y-41402000D03*
%TD*%
%TO.C,R46*%
X109509500Y-51506000D03*
X108539500Y-51506000D03*
%TD*%
D24*
%TO.C,C4*%
X102844500Y-67564000D03*
X104419500Y-67564000D03*
%TD*%
D16*
%TO.C,R41*%
X103715000Y-55900000D03*
X104685000Y-55900000D03*
%TD*%
D21*
%TO.C,C20*%
X104498000Y-35687000D03*
X103528000Y-35687000D03*
%TD*%
D12*
%TO.C,R80*%
X104013000Y-79040000D03*
X104013000Y-80010000D03*
%TD*%
D31*
%TO.C,C51*%
X132548500Y-62692000D03*
X132548500Y-69642000D03*
%TD*%
D10*
%TO.C,R9*%
X116205000Y-55016500D03*
X116205000Y-53441500D03*
%TD*%
D16*
%TO.C,C33*%
X97686000Y-34163000D03*
X98656000Y-34163000D03*
%TD*%
D24*
%TO.C,C7*%
X111099500Y-60071000D03*
X112674500Y-60071000D03*
%TD*%
D29*
%TO.C,D9*%
X128333000Y-39751000D03*
X130833000Y-39751000D03*
%TD*%
D21*
%TO.C,R50*%
X111610000Y-49911000D03*
X110640000Y-49911000D03*
%TD*%
D32*
%TO.C,U10*%
X109235500Y-54869000D03*
X109235500Y-53919000D03*
X109235500Y-52969000D03*
X107035500Y-52969000D03*
X107035500Y-54869000D03*
%TD*%
D17*
%TO.C,C41*%
X112801500Y-45410000D03*
X111226500Y-45410000D03*
%TD*%
D12*
%TO.C,C27*%
X98300000Y-44215000D03*
X98300000Y-45185000D03*
%TD*%
D16*
%TO.C,R60*%
X100734000Y-63246000D03*
X101704000Y-63246000D03*
%TD*%
D11*
%TO.C,C1*%
X94361000Y-72644000D03*
X94361000Y-71674000D03*
%TD*%
D33*
%TO.C,J4*%
X123384000Y-32512000D03*
D34*
X115884000Y-32512000D03*
D35*
X122034000Y-34662001D03*
X117234000Y-34662001D03*
X122034000Y-30361999D03*
X117234000Y-30361999D03*
D36*
X122384000Y-33377000D03*
X120884000Y-33377000D03*
X120384001Y-33377000D03*
X119884000Y-33377000D03*
X119384000Y-33377000D03*
X118883999Y-33377000D03*
X118384000Y-33377000D03*
X116884000Y-33377000D03*
X116884000Y-31647000D03*
X118384000Y-31647000D03*
X118883999Y-31647000D03*
X119384000Y-31647000D03*
X119884000Y-31647000D03*
X120384001Y-31647000D03*
X120884000Y-31647000D03*
X122384000Y-31647000D03*
%TD*%
D21*
%TO.C,R123*%
X79987000Y-46736000D03*
X79017000Y-46736000D03*
%TD*%
D11*
%TO.C,C14*%
X122217000Y-47094000D03*
X122217000Y-46124000D03*
%TD*%
D21*
%TO.C,C30*%
X90401000Y-35560000D03*
X89431000Y-35560000D03*
%TD*%
D24*
%TO.C,C9*%
X107797500Y-66040000D03*
X109372500Y-66040000D03*
%TD*%
%TO.C,C13*%
X125323500Y-72390000D03*
X126898500Y-72390000D03*
%TD*%
D21*
%TO.C,C21*%
X122956000Y-41529000D03*
X121986000Y-41529000D03*
%TD*%
%TO.C,R58*%
X107927000Y-59182000D03*
X106957000Y-59182000D03*
%TD*%
D16*
%TO.C,R44*%
X102815000Y-52900000D03*
X103785000Y-52900000D03*
%TD*%
D18*
%TO.C,U12*%
X113411000Y-52197000D03*
%TD*%
D12*
%TO.C,R71*%
X78994000Y-68349000D03*
X78994000Y-69319000D03*
%TD*%
%TO.C,R79*%
X100965000Y-80945000D03*
X100965000Y-81915000D03*
%TD*%
D24*
%TO.C,C46*%
X123461500Y-46990000D03*
X125036500Y-46990000D03*
%TD*%
D21*
%TO.C,R52*%
X111668500Y-46680000D03*
X110698500Y-46680000D03*
%TD*%
%TO.C,R34*%
X101196000Y-40386000D03*
X100226000Y-40386000D03*
%TD*%
D12*
%TO.C,R70*%
X79600000Y-63615000D03*
X79600000Y-64585000D03*
%TD*%
D37*
%TO.C,C25*%
X125011000Y-43916500D03*
X125011000Y-45491500D03*
%TD*%
D21*
%TO.C,R1*%
X101704000Y-58928000D03*
X100734000Y-58928000D03*
%TD*%
D24*
%TO.C,C58*%
X131038500Y-74803000D03*
X132613500Y-74803000D03*
%TD*%
D12*
%TO.C,R122*%
X76962000Y-44727000D03*
X76962000Y-45697000D03*
%TD*%
D11*
%TO.C,R126*%
X84729000Y-39869000D03*
X84729000Y-38899000D03*
%TD*%
D12*
%TO.C,R73*%
X96647000Y-80945000D03*
X96647000Y-81915000D03*
%TD*%
D10*
%TO.C,D10*%
X116205000Y-51968500D03*
X116205000Y-50393500D03*
%TD*%
D21*
%TO.C,R35*%
X101577000Y-38100000D03*
X100607000Y-38100000D03*
%TD*%
D12*
%TO.C,R77*%
X99568000Y-80945000D03*
X99568000Y-81915000D03*
%TD*%
D21*
%TO.C,C18*%
X131803000Y-76073000D03*
X130833000Y-76073000D03*
%TD*%
D24*
%TO.C,C23*%
X103733500Y-36957000D03*
X105308500Y-36957000D03*
%TD*%
D21*
%TO.C,C60*%
X109832000Y-59182000D03*
X108862000Y-59182000D03*
%TD*%
D12*
%TO.C,R3*%
X88300000Y-45215000D03*
X88300000Y-46185000D03*
%TD*%
%TO.C,C37*%
X105664000Y-55776000D03*
X105664000Y-56746000D03*
%TD*%
D17*
%TO.C,R7*%
X126263500Y-83820000D03*
X124688500Y-83820000D03*
%TD*%
D21*
%TO.C,R59*%
X106022000Y-59182000D03*
X105052000Y-59182000D03*
%TD*%
D12*
%TO.C,R120*%
X81026000Y-44727000D03*
X81026000Y-45697000D03*
%TD*%
D21*
%TO.C,C35*%
X107604500Y-51506000D03*
X106634500Y-51506000D03*
%TD*%
D38*
%TO.C,J5*%
X94742000Y-87630000D03*
X92202000Y-87630000D03*
X89662000Y-87630000D03*
X87122000Y-87630000D03*
%TD*%
D39*
%TO.C,U17*%
X125210000Y-49395000D03*
X125210000Y-48895000D03*
X125210000Y-48395000D03*
X123710000Y-48395000D03*
X123710000Y-48895000D03*
X123710000Y-49395000D03*
%TD*%
D10*
%TO.C,R128*%
X87122000Y-34061500D03*
X87122000Y-32486500D03*
%TD*%
D11*
%TO.C,C2*%
X102489000Y-72644000D03*
X102489000Y-71674000D03*
%TD*%
D21*
%TO.C,R13*%
X103609000Y-38227000D03*
X102639000Y-38227000D03*
%TD*%
D12*
%TO.C,R93*%
X116459000Y-79040000D03*
X116459000Y-80010000D03*
%TD*%
D40*
%TO.C,U16*%
X80588000Y-68895000D03*
X82988000Y-68895000D03*
X82988000Y-66995000D03*
X80588000Y-66995000D03*
%TD*%
D12*
%TO.C,C96*%
X101785500Y-48862000D03*
X101785500Y-49832000D03*
%TD*%
D16*
%TO.C,C40*%
X108666500Y-44775000D03*
X109636500Y-44775000D03*
%TD*%
D21*
%TO.C,C26*%
X90385000Y-44200000D03*
X89415000Y-44200000D03*
%TD*%
%TO.C,R38*%
X101577000Y-36068000D03*
X100607000Y-36068000D03*
%TD*%
D10*
%TO.C,C15*%
X108204000Y-34315500D03*
X108204000Y-32740500D03*
%TD*%
D12*
%TO.C,R85*%
X107569000Y-80945000D03*
X107569000Y-81915000D03*
%TD*%
D21*
%TO.C,C61*%
X111991000Y-64897000D03*
X111021000Y-64897000D03*
%TD*%
D17*
%TO.C,C36*%
X108483500Y-56515000D03*
X106908500Y-56515000D03*
%TD*%
D16*
%TO.C,R5*%
X77112000Y-74041000D03*
X78082000Y-74041000D03*
%TD*%
%TO.C,R15*%
X111656000Y-47752000D03*
X112626000Y-47752000D03*
%TD*%
D12*
%TO.C,R100*%
X86300000Y-44715000D03*
X86300000Y-45685000D03*
%TD*%
D41*
%TO.C,JP1*%
X111603000Y-66929000D03*
D42*
X112903000Y-66929000D03*
D43*
X114203000Y-66929000D03*
%TD*%
D12*
%TO.C,R101*%
X85300000Y-44715000D03*
X85300000Y-45685000D03*
%TD*%
D37*
%TO.C,D2*%
X116205000Y-56743500D03*
X116205000Y-58318500D03*
%TD*%
D12*
%TO.C,R55*%
X120142000Y-53490000D03*
X120142000Y-54460000D03*
%TD*%
%TO.C,R92*%
X115697000Y-80945000D03*
X115697000Y-81915000D03*
%TD*%
D44*
%TO.C,U9*%
X98536000Y-42878000D03*
X98536000Y-42478000D03*
X98536000Y-42078000D03*
X98536000Y-41678000D03*
X98536000Y-41278000D03*
X98536000Y-40878000D03*
X98536000Y-40478000D03*
X98536000Y-40078000D03*
X98536000Y-39678000D03*
X98536000Y-39278000D03*
X98536000Y-38878000D03*
X98536000Y-38478000D03*
X98536000Y-38078000D03*
X98536000Y-37678000D03*
X98536000Y-37278000D03*
X98536000Y-36878000D03*
D45*
X97361000Y-35703000D03*
X96961000Y-35703000D03*
X96561000Y-35703000D03*
X96161000Y-35703000D03*
X95761000Y-35703000D03*
X95361000Y-35703000D03*
X94961000Y-35703000D03*
X94561000Y-35703000D03*
X94161000Y-35703000D03*
X93761000Y-35703000D03*
X93361000Y-35703000D03*
X92961000Y-35703000D03*
X92561000Y-35703000D03*
X92161000Y-35703000D03*
X91761000Y-35703000D03*
X91361000Y-35703000D03*
D44*
X90186000Y-36878000D03*
X90186000Y-37278000D03*
X90186000Y-37678000D03*
X90186000Y-38078000D03*
X90186000Y-38478000D03*
X90186000Y-38878000D03*
X90186000Y-39278000D03*
X90186000Y-39678000D03*
X90186000Y-40078000D03*
X90186000Y-40478000D03*
X90186000Y-40878000D03*
X90186000Y-41278000D03*
X90186000Y-41678000D03*
X90186000Y-42078000D03*
X90186000Y-42478000D03*
X90186000Y-42878000D03*
D45*
X91361000Y-44053000D03*
X91761000Y-44053000D03*
X92161000Y-44053000D03*
X92561000Y-44053000D03*
X92961000Y-44053000D03*
X93361000Y-44053000D03*
X93761000Y-44053000D03*
X94161000Y-44053000D03*
X94561000Y-44053000D03*
X94961000Y-44053000D03*
X95361000Y-44053000D03*
X95761000Y-44053000D03*
X96161000Y-44053000D03*
X96561000Y-44053000D03*
X96961000Y-44053000D03*
X97361000Y-44053000D03*
%TD*%
D12*
%TO.C,R118*%
X78000000Y-44741000D03*
X78000000Y-45711000D03*
%TD*%
D24*
%TO.C,C11*%
X111226500Y-63627000D03*
X112801500Y-63627000D03*
%TD*%
D12*
%TO.C,R31*%
X122555000Y-58697000D03*
X122555000Y-59667000D03*
%TD*%
%TO.C,R87*%
X112268000Y-79040000D03*
X112268000Y-80010000D03*
%TD*%
D10*
%TO.C,C24*%
X120693000Y-40284500D03*
X120693000Y-38709500D03*
%TD*%
D11*
%TO.C,R108*%
X109220000Y-79987000D03*
X109220000Y-79017000D03*
%TD*%
D12*
%TO.C,R24*%
X106621500Y-65768000D03*
X106621500Y-66738000D03*
%TD*%
D46*
%TO.C,U7*%
X106466000Y-34351000D03*
X106466000Y-33401000D03*
X106466000Y-32451000D03*
X103846000Y-32451000D03*
X103846000Y-34351000D03*
%TD*%
D12*
%TO.C,R117*%
X82550000Y-35456000D03*
X82550000Y-36426000D03*
%TD*%
%TO.C,C42*%
X110548500Y-52164000D03*
X110548500Y-53134000D03*
%TD*%
%TO.C,R83*%
X106172000Y-80945000D03*
X106172000Y-81915000D03*
%TD*%
D14*
%TO.C,H3*%
X134366000Y-31750000D03*
%TD*%
D37*
%TO.C,C48*%
X125011000Y-53568500D03*
X125011000Y-55143500D03*
%TD*%
D21*
%TO.C,R63*%
X104117000Y-59182000D03*
X103147000Y-59182000D03*
%TD*%
D16*
%TO.C,R40*%
X99337000Y-29300000D03*
X100307000Y-29300000D03*
%TD*%
D21*
%TO.C,R11*%
X101704000Y-59944000D03*
X100734000Y-59944000D03*
%TD*%
D29*
%TO.C,D8*%
X109748000Y-32131000D03*
X112248000Y-32131000D03*
%TD*%
D11*
%TO.C,C28*%
X88646000Y-39197000D03*
X88646000Y-38227000D03*
%TD*%
D12*
%TO.C,R88*%
X112903000Y-80945000D03*
X112903000Y-81915000D03*
%TD*%
%TO.C,R84*%
X106807000Y-79040000D03*
X106807000Y-80010000D03*
%TD*%
D47*
%TO.C,U14*%
X79700000Y-72760000D03*
X79700000Y-74030000D03*
X79700000Y-75300000D03*
X79700000Y-76570000D03*
X87000000Y-76570000D03*
X87000000Y-75300000D03*
X87000000Y-74030000D03*
X87000000Y-72760000D03*
%TD*%
D16*
%TO.C,C29*%
X100607000Y-39116000D03*
X101577000Y-39116000D03*
%TD*%
D38*
%TO.C,J7*%
X125984000Y-67310000D03*
X123444000Y-67310000D03*
X120904000Y-67310000D03*
X118364000Y-67310000D03*
%TD*%
D12*
%TO.C,R91*%
X115062000Y-79040000D03*
X115062000Y-80010000D03*
%TD*%
%TO.C,R74*%
X97409000Y-79040000D03*
X97409000Y-80010000D03*
%TD*%
D13*
%TO.C,J9*%
X83820000Y-30480000D03*
%TD*%
D11*
%TO.C,C45*%
X122217000Y-56492000D03*
X122217000Y-55522000D03*
%TD*%
D21*
%TO.C,C6*%
X111864000Y-61341000D03*
X110894000Y-61341000D03*
%TD*%
D10*
%TO.C,D6*%
X87122000Y-30886500D03*
X87122000Y-29311500D03*
%TD*%
D12*
%TO.C,R32*%
X119126000Y-46124000D03*
X119126000Y-47094000D03*
%TD*%
D48*
%TO.C,U4*%
X95500000Y-62500000D03*
X94500000Y-62500000D03*
X93500000Y-62500000D03*
X92500000Y-62500000D03*
X91500000Y-62500000D03*
X90500000Y-62500000D03*
X89500000Y-62500000D03*
X88500000Y-62500000D03*
X87500000Y-62500000D03*
X86500000Y-62500000D03*
X85500000Y-62500000D03*
X84500000Y-62500000D03*
X83500000Y-62500000D03*
X82500000Y-62500000D03*
X95500000Y-61500000D03*
X94500000Y-61500000D03*
X93500000Y-61500000D03*
X92500000Y-61500000D03*
X91500000Y-61500000D03*
X90500000Y-61500000D03*
X89500000Y-61500000D03*
X88500000Y-61500000D03*
X87500000Y-61500000D03*
X86500000Y-61500000D03*
X85500000Y-61500000D03*
X84500000Y-61500000D03*
X83500000Y-61500000D03*
X82500000Y-61500000D03*
X95500000Y-60500000D03*
X94500000Y-60500000D03*
X93500000Y-60500000D03*
X92500000Y-60500000D03*
X91500000Y-60500000D03*
X90500000Y-60500000D03*
X89500000Y-60500000D03*
X88500000Y-60500000D03*
X87500000Y-60500000D03*
X86500000Y-60500000D03*
X85500000Y-60500000D03*
X84500000Y-60500000D03*
X83500000Y-60500000D03*
X82500000Y-60500000D03*
X95500000Y-59500000D03*
X94500000Y-59500000D03*
X93500000Y-59500000D03*
X92500000Y-59500000D03*
X91500000Y-59500000D03*
X90500000Y-59500000D03*
X89500000Y-59500000D03*
X88500000Y-59500000D03*
X87500000Y-59500000D03*
X86500000Y-59500000D03*
X85500000Y-59500000D03*
X84500000Y-59500000D03*
X83500000Y-59500000D03*
X82500000Y-59500000D03*
X95500000Y-58500000D03*
X94500000Y-58500000D03*
X93500000Y-58500000D03*
X92500000Y-58500000D03*
X91500000Y-58500000D03*
X90500000Y-58500000D03*
X89500000Y-58500000D03*
X88500000Y-58500000D03*
X87500000Y-58500000D03*
X86500000Y-58500000D03*
X85500000Y-58500000D03*
X84500000Y-58500000D03*
X83500000Y-58500000D03*
X82500000Y-58500000D03*
X95500000Y-57500000D03*
X94500000Y-57500000D03*
X93500000Y-57500000D03*
X92500000Y-57500000D03*
X91500000Y-57500000D03*
X90500000Y-57500000D03*
X89500000Y-57500000D03*
X88500000Y-57500000D03*
X87500000Y-57500000D03*
X86500000Y-57500000D03*
X85500000Y-57500000D03*
X84500000Y-57500000D03*
X83500000Y-57500000D03*
X82500000Y-57500000D03*
X95500000Y-56500000D03*
X94500000Y-56500000D03*
X93500000Y-56500000D03*
X92500000Y-56500000D03*
X91500000Y-56500000D03*
X90500000Y-56500000D03*
X89500000Y-56500000D03*
X88500000Y-56500000D03*
X87500000Y-56500000D03*
X86500000Y-56500000D03*
X85500000Y-56500000D03*
X84500000Y-56500000D03*
X83500000Y-56500000D03*
X82500000Y-56500000D03*
X95500000Y-55500000D03*
X94500000Y-55500000D03*
X93500000Y-55500000D03*
X92500000Y-55500000D03*
X91500000Y-55500000D03*
X90500000Y-55500000D03*
X89500000Y-55500000D03*
X88500000Y-55500000D03*
X87500000Y-55500000D03*
X86500000Y-55500000D03*
X85500000Y-55500000D03*
X84500000Y-55500000D03*
X83500000Y-55500000D03*
X82500000Y-55500000D03*
X95500000Y-54500000D03*
X94500000Y-54500000D03*
X93500000Y-54500000D03*
X92500000Y-54500000D03*
X91500000Y-54500000D03*
X90500000Y-54500000D03*
X89500000Y-54500000D03*
X88500000Y-54500000D03*
X87500000Y-54500000D03*
X86500000Y-54500000D03*
X85500000Y-54500000D03*
X84500000Y-54500000D03*
X83500000Y-54500000D03*
X82500000Y-54500000D03*
X95500000Y-53500000D03*
X94500000Y-53500000D03*
X93500000Y-53500000D03*
X92500000Y-53500000D03*
X91500000Y-53500000D03*
X90500000Y-53500000D03*
X89500000Y-53500000D03*
X88500000Y-53500000D03*
X87500000Y-53500000D03*
X86500000Y-53500000D03*
X85500000Y-53500000D03*
X84500000Y-53500000D03*
X83500000Y-53500000D03*
X82500000Y-53500000D03*
X95500000Y-52500000D03*
X94500000Y-52500000D03*
X93500000Y-52500000D03*
X92500000Y-52500000D03*
X91500000Y-52500000D03*
X90500000Y-52500000D03*
X89500000Y-52500000D03*
X88500000Y-52500000D03*
X87500000Y-52500000D03*
X86500000Y-52500000D03*
X85500000Y-52500000D03*
X84500000Y-52500000D03*
X83500000Y-52500000D03*
X82500000Y-52500000D03*
X95500000Y-51500000D03*
X94500000Y-51500000D03*
X93500000Y-51500000D03*
X92500000Y-51500000D03*
X91500000Y-51500000D03*
X90500000Y-51500000D03*
X89500000Y-51500000D03*
X88500000Y-51500000D03*
X87500000Y-51500000D03*
X86500000Y-51500000D03*
X85500000Y-51500000D03*
X84500000Y-51500000D03*
X83500000Y-51500000D03*
X82500000Y-51500000D03*
X95500000Y-50500000D03*
X94500000Y-50500000D03*
X93500000Y-50500000D03*
X92500000Y-50500000D03*
X91500000Y-50500000D03*
X90500000Y-50500000D03*
X89500000Y-50500000D03*
X88500000Y-50500000D03*
X87500000Y-50500000D03*
X86500000Y-50500000D03*
X85500000Y-50500000D03*
X84500000Y-50500000D03*
X83500000Y-50500000D03*
X82500000Y-50500000D03*
X95500000Y-49500000D03*
X94500000Y-49500000D03*
X93500000Y-49500000D03*
X92500000Y-49500000D03*
X91500000Y-49500000D03*
X90500000Y-49500000D03*
X89500000Y-49500000D03*
X88500000Y-49500000D03*
X87500000Y-49500000D03*
X86500000Y-49500000D03*
X85500000Y-49500000D03*
X84500000Y-49500000D03*
X83500000Y-49500000D03*
X82500000Y-49500000D03*
%TD*%
D21*
%TO.C,R17*%
X118468000Y-59690000D03*
X117498000Y-59690000D03*
%TD*%
D11*
%TO.C,C3*%
X110617000Y-72644000D03*
X110617000Y-71674000D03*
%TD*%
D49*
%TO.C,J11*%
X91672000Y-31318000D03*
D50*
X91872000Y-30093000D03*
D49*
X92072000Y-31318000D03*
D50*
X92272000Y-30093000D03*
D49*
X92472000Y-31318000D03*
D50*
X92672000Y-30093000D03*
D49*
X92872000Y-31318000D03*
D50*
X93072000Y-30093000D03*
D49*
X93272000Y-31318000D03*
D50*
X93472000Y-30093000D03*
D49*
X93672000Y-31318000D03*
D50*
X93872000Y-30093000D03*
D49*
X94072000Y-31318000D03*
D50*
X94272000Y-30093000D03*
D49*
X94472000Y-31318000D03*
D50*
X94672000Y-30093000D03*
D49*
X94872000Y-31318000D03*
D50*
X95072000Y-30093000D03*
D49*
X95272000Y-31318000D03*
D51*
X96922000Y-29903000D03*
D52*
X96572000Y-26543000D03*
X90372000Y-26543000D03*
D51*
X90022000Y-29903000D03*
%TD*%
D16*
%TO.C,R39*%
X99337000Y-31369000D03*
X100307000Y-31369000D03*
%TD*%
D38*
%TO.C,J2*%
X125984000Y-87630000D03*
X123444000Y-87630000D03*
X120904000Y-87630000D03*
X118364000Y-87630000D03*
%TD*%
D21*
%TO.C,R45*%
X105699500Y-51506000D03*
X104729500Y-51506000D03*
%TD*%
D16*
%TO.C,R107*%
X82115000Y-65600000D03*
X83085000Y-65600000D03*
%TD*%
D39*
%TO.C,U6*%
X125210000Y-59555000D03*
X125210000Y-59055000D03*
X125210000Y-58555000D03*
X123710000Y-58555000D03*
X123710000Y-59055000D03*
X123710000Y-59555000D03*
%TD*%
D11*
%TO.C,R54*%
X121158000Y-54460000D03*
X121158000Y-53490000D03*
%TD*%
D37*
%TO.C,C52*%
X123487000Y-43916500D03*
X123487000Y-45491500D03*
%TD*%
D11*
%TO.C,R21*%
X79502000Y-57254000D03*
X79502000Y-56284000D03*
%TD*%
D21*
%TO.C,C83*%
X89639000Y-72898000D03*
X88669000Y-72898000D03*
%TD*%
D24*
%TO.C,C86*%
X123461500Y-56642000D03*
X125036500Y-56642000D03*
%TD*%
D12*
%TO.C,R96*%
X87300000Y-44715000D03*
X87300000Y-45685000D03*
%TD*%
D16*
%TO.C,R48*%
X110571500Y-55189000D03*
X111541500Y-55189000D03*
%TD*%
D14*
%TO.C,H2*%
X78486000Y-86360000D03*
%TD*%
D21*
%TO.C,C39*%
X111864000Y-54173000D03*
X110894000Y-54173000D03*
%TD*%
D12*
%TO.C,R22*%
X79500000Y-59315000D03*
X79500000Y-60285000D03*
%TD*%
D53*
%TO.C,U13*%
X122129000Y-80967500D03*
X122779000Y-80967500D03*
X123429000Y-80967500D03*
X124079000Y-80967500D03*
X124729000Y-80967500D03*
X125379000Y-80967500D03*
X126029000Y-80967500D03*
X126029000Y-75242500D03*
X125379000Y-75242500D03*
X124729000Y-75242500D03*
X124079000Y-75242500D03*
X123429000Y-75242500D03*
X122779000Y-75242500D03*
X122129000Y-75242500D03*
%TD*%
D54*
%TO.C,J8*%
X77114000Y-49682000D03*
D55*
X77114000Y-52222000D03*
X77114000Y-54762000D03*
X77114000Y-57302000D03*
X77114000Y-59842000D03*
X77114000Y-62382000D03*
%TD*%
D37*
%TO.C,R10*%
X116205000Y-60553500D03*
X116205000Y-62128500D03*
%TD*%
D16*
%TO.C,R53*%
X106761500Y-44775000D03*
X107731500Y-44775000D03*
%TD*%
D21*
%TO.C,C34*%
X105685000Y-52900000D03*
X104715000Y-52900000D03*
%TD*%
D29*
%TO.C,D3*%
X126746000Y-41783000D03*
X129246000Y-41783000D03*
%TD*%
D46*
%TO.C,U8*%
X125031000Y-40193000D03*
X125031000Y-39243000D03*
X125031000Y-38293000D03*
X122411000Y-38293000D03*
X122411000Y-40193000D03*
%TD*%
D12*
%TO.C,R125*%
X83058000Y-44727000D03*
X83058000Y-45697000D03*
%TD*%
%TO.C,C47*%
X121158000Y-46124000D03*
X121158000Y-47094000D03*
%TD*%
D16*
%TO.C,R61*%
X100734000Y-62230000D03*
X101704000Y-62230000D03*
%TD*%
D21*
%TO.C,R4*%
X89639000Y-75946000D03*
X88669000Y-75946000D03*
%TD*%
D12*
%TO.C,R119*%
X78994000Y-44727000D03*
X78994000Y-45697000D03*
%TD*%
D11*
%TO.C,R127*%
X84729000Y-41901000D03*
X84729000Y-40931000D03*
%TD*%
D21*
%TO.C,R36*%
X101577000Y-37084000D03*
X100607000Y-37084000D03*
%TD*%
D11*
%TO.C,R29*%
X120142000Y-47094000D03*
X120142000Y-46124000D03*
%TD*%
D10*
%TO.C,C98*%
X88100000Y-43487500D03*
X88100000Y-41912500D03*
%TD*%
D24*
%TO.C,C55*%
X134467500Y-81383000D03*
X136042500Y-81383000D03*
%TD*%
D16*
%TO.C,R62*%
X100734000Y-64262000D03*
X101704000Y-64262000D03*
%TD*%
D21*
%TO.C,R103*%
X89639000Y-74676000D03*
X88669000Y-74676000D03*
%TD*%
D30*
%TO.C,L1*%
X129075000Y-58484000D03*
X129075000Y-53784000D03*
%TD*%
D41*
%TO.C,JP3*%
X120620000Y-72517000D03*
D56*
X121920000Y-72517000D03*
D43*
X123220000Y-72517000D03*
%TD*%
D16*
%TO.C,R98*%
X77112000Y-75300000D03*
X78082000Y-75300000D03*
%TD*%
D12*
%TO.C,R12*%
X100200000Y-43115000D03*
X100200000Y-44085000D03*
%TD*%
D38*
%TO.C,J6*%
X94742000Y-67310000D03*
X92202000Y-67310000D03*
X89662000Y-67310000D03*
X87122000Y-67310000D03*
%TD*%
D24*
%TO.C,C56*%
X88874500Y-71628000D03*
X90449500Y-71628000D03*
%TD*%
D12*
%TO.C,R75*%
X98171000Y-80945000D03*
X98171000Y-81915000D03*
%TD*%
D16*
%TO.C,R124*%
X81026000Y-46736000D03*
X81996000Y-46736000D03*
%TD*%
D12*
%TO.C,R72*%
X96012000Y-79040000D03*
X96012000Y-80010000D03*
%TD*%
%TO.C,C50*%
X122174000Y-53490000D03*
X122174000Y-54460000D03*
%TD*%
D11*
%TO.C,R47*%
X110617000Y-48745000D03*
X110617000Y-47775000D03*
%TD*%
D12*
%TO.C,R76*%
X98806000Y-79040000D03*
X98806000Y-80010000D03*
%TD*%
D16*
%TO.C,C82*%
X80541000Y-36449000D03*
X81511000Y-36449000D03*
%TD*%
D57*
%TO.C,J12*%
X83947000Y-81153000D03*
D38*
X86487000Y-81153000D03*
X89027000Y-81153000D03*
%TD*%
D19*
%TO.C,U3*%
X111756000Y-77726000D03*
X112406000Y-77726000D03*
X113056000Y-77726000D03*
X113706000Y-77726000D03*
X114356000Y-77726000D03*
X115006000Y-77726000D03*
X115656000Y-77726000D03*
X116306000Y-77726000D03*
X116956000Y-77726000D03*
X117606000Y-77726000D03*
X117606000Y-71926000D03*
X116956000Y-71926000D03*
X116306000Y-71926000D03*
X115656000Y-71926000D03*
X115006000Y-71926000D03*
X114356000Y-71926000D03*
X113706000Y-71926000D03*
X113056000Y-71926000D03*
X112406000Y-71926000D03*
X111756000Y-71926000D03*
%TD*%
D12*
%TO.C,R30*%
X122428000Y-49426000D03*
X122428000Y-50396000D03*
%TD*%
D58*
%TO.C,JP5*%
X112776000Y-48768000D03*
D59*
X111760000Y-48768000D03*
%TD*%
D12*
%TO.C,R90*%
X114300000Y-80945000D03*
X114300000Y-81915000D03*
%TD*%
D16*
%TO.C,R43*%
X103715000Y-54900000D03*
X104685000Y-54900000D03*
%TD*%
D12*
%TO.C,C53*%
X78994000Y-66317000D03*
X78994000Y-67287000D03*
%TD*%
D37*
%TO.C,C49*%
X123487000Y-53568500D03*
X123487000Y-55143500D03*
%TD*%
D21*
%TO.C,C38*%
X105685000Y-53900000D03*
X104715000Y-53900000D03*
%TD*%
D14*
%TO.C,H1*%
X78486000Y-31750000D03*
%TD*%
D29*
%TO.C,D5*%
X109748000Y-34163000D03*
X112248000Y-34163000D03*
%TD*%
D18*
%TO.C,U19*%
X125857000Y-33782000D03*
%TD*%
D60*
%TO.C,JP2*%
X128778000Y-82535000D03*
D61*
X128778000Y-83835000D03*
%TD*%
D19*
%TO.C,U1*%
X95500000Y-77726000D03*
X96150000Y-77726000D03*
X96800000Y-77726000D03*
X97450000Y-77726000D03*
X98100000Y-77726000D03*
X98750000Y-77726000D03*
X99400000Y-77726000D03*
X100050000Y-77726000D03*
X100700000Y-77726000D03*
X101350000Y-77726000D03*
X101350000Y-71926000D03*
X100700000Y-71926000D03*
X100050000Y-71926000D03*
X99400000Y-71926000D03*
X98750000Y-71926000D03*
X98100000Y-71926000D03*
X97450000Y-71926000D03*
X96800000Y-71926000D03*
X96150000Y-71926000D03*
X95500000Y-71926000D03*
%TD*%
M02*
