%TF.GenerationSoftware,KiCad,Pcbnew,10.0.1*%
%TF.CreationDate,2026-04-30T00:36:02+02:00*%
%TF.ProjectId,hd_64_flex_press_v1,68645f36-345f-4666-9c65-785f70726573,0.1*%
%TF.SameCoordinates,PXd7966e0PY3c8eee0*%
%TF.FileFunction,Soldermask,Top*%
%TF.FilePolarity,Negative*%
%FSLAX46Y46*%
G04 Gerber Fmt 4.6, Leading zero omitted, Abs format (unit mm)*
G04 Created by KiCad (PCBNEW 10.0.1) date 2026-04-30 00:36:02*
%MOMM*%
%LPD*%
G01*
G04 APERTURE LIST*
%ADD10C,1.800000*%
G04 APERTURE END LIST*
D10*
%TO.C,J3*%
X175260000Y-60960000D03*
X177800000Y-60960000D03*
X180340000Y-60960000D03*
X182880000Y-60960000D03*
X185420000Y-60960000D03*
X187960000Y-60960000D03*
X190500000Y-60960000D03*
X193040000Y-60960000D03*
X195580000Y-60960000D03*
X198120000Y-60960000D03*
X200660000Y-60960000D03*
X203200000Y-60960000D03*
X205740000Y-60960000D03*
X208280000Y-60960000D03*
X210820000Y-60960000D03*
X213360000Y-60960000D03*
X215900000Y-60960000D03*
X218440000Y-60960000D03*
X220980000Y-60960000D03*
X223520000Y-60960000D03*
X175260000Y-45720000D03*
X177800000Y-45720000D03*
X180340000Y-45720000D03*
X182880000Y-45720000D03*
X185420000Y-45720000D03*
X187960000Y-45720000D03*
X190500000Y-45720000D03*
X193040000Y-45720000D03*
X195580000Y-45720000D03*
X198120000Y-45720000D03*
X200660000Y-45720000D03*
X203200000Y-45720000D03*
X205740000Y-45720000D03*
X208280000Y-45720000D03*
X210820000Y-45720000D03*
X213360000Y-45720000D03*
X215900000Y-45720000D03*
X218440000Y-45720000D03*
X220980000Y-45720000D03*
X223520000Y-45720000D03*
%TD*%
M02*
