M48
; DRILL file KiCad 10.0.1 date 2026-04-30T00:36:10
; FORMAT={-:-/ absolute / metric / decimal}
; #@! TF.CreationDate,2026-04-30T00:36:10+02:00
; #@! TF.GenerationSoftware,Kicad,Pcbnew,10.0.1
; #@! TF.FileFunction,MixedPlating,1,2
FMAT,2
METRIC
; #@! TA.AperFunction,NonPlated,NPTH,ComponentDrill
T1C1.800
%
G90
G05
T1
X175.26Y-45.72
X175.26Y-60.96
X177.8Y-45.72
X177.8Y-60.96
X180.34Y-45.72
X180.34Y-60.96
X182.88Y-45.72
X182.88Y-60.96
X185.42Y-45.72
X185.42Y-60.96
X187.96Y-45.72
X187.96Y-60.96
X190.5Y-45.72
X190.5Y-60.96
X193.04Y-45.72
X193.04Y-60.96
X195.58Y-45.72
X195.58Y-60.96
X198.12Y-45.72
X198.12Y-60.96
X200.66Y-45.72
X200.66Y-60.96
X203.2Y-45.72
X203.2Y-60.96
X205.74Y-45.72
X205.74Y-60.96
X208.28Y-45.72
X208.28Y-60.96
X210.82Y-45.72
X210.82Y-60.96
X213.36Y-45.72
X213.36Y-60.96
X215.9Y-45.72
X215.9Y-60.96
X218.44Y-45.72
X218.44Y-60.96
X220.98Y-45.72
X220.98Y-60.96
X223.52Y-45.72
X223.52Y-60.96
M30
