M48
; DRILL file {KiCad 8.0.8} date 2025-03-17T16:40:50+0100
; FORMAT={-:-/ absolute / inch / decimal}
; #@! TF.CreationDate,2025-03-17T16:40:50+01:00
; #@! TF.GenerationSoftware,Kicad,Pcbnew,8.0.8
; #@! TF.FileFunction,Plated,1,2,PTH
FMAT,2
INCH
; #@! TA.AperFunction,Plated,PTH,ComponentDrill
T1C0.0492
%
G90
G05
T1
G00X-1.9636Y0.6551
M15
G01X-1.9636Y0.6689
M16
G05
G00X-1.9636Y0.0689
M15
G01X-1.9636Y0.0551
M16
G05
G00X-1.8636Y0.6551
M15
G01X-1.8636Y0.6689
M16
G05
G00X-1.8636Y0.0689
M15
G01X-1.8636Y0.0551
M16
G05
G00X-1.7636Y0.6551
M15
G01X-1.7636Y0.6689
M16
G05
G00X-1.7636Y0.0689
M15
G01X-1.7636Y0.0551
M16
G05
G00X-1.6636Y0.6551
M15
G01X-1.6636Y0.6689
M16
G05
G00X-1.6636Y0.0689
M15
G01X-1.6636Y0.0551
M16
G05
G00X-1.5636Y0.6551
M15
G01X-1.5636Y0.6689
M16
G05
G00X-1.5636Y0.0689
M15
G01X-1.5636Y0.0551
M16
G05
G00X-1.4636Y0.6551
M15
G01X-1.4636Y0.6689
M16
G05
G00X-1.4636Y0.0689
M15
G01X-1.4636Y0.0551
M16
G05
G00X-1.3636Y0.6551
M15
G01X-1.3636Y0.6689
M16
G05
G00X-1.3636Y0.0689
M15
G01X-1.3636Y0.0551
M16
G05
G00X-1.2636Y0.6551
M15
G01X-1.2636Y0.6689
M16
G05
G00X-1.2636Y0.0689
M15
G01X-1.2636Y0.0551
M16
G05
G00X-1.1636Y0.6551
M15
G01X-1.1636Y0.6689
M16
G05
G00X-1.1636Y0.0689
M15
G01X-1.1636Y0.0551
M16
G05
G00X-1.0636Y0.6551
M15
G01X-1.0636Y0.6689
M16
G05
G00X-1.0636Y0.0689
M15
G01X-1.0636Y0.0551
M16
G05
G00X-0.9636Y0.6551
M15
G01X-0.9636Y0.6689
M16
G05
G00X-0.9636Y0.0689
M15
G01X-0.9636Y0.0551
M16
G05
G00X-0.8636Y0.6551
M15
G01X-0.8636Y0.6689
M16
G05
G00X-0.8636Y0.0689
M15
G01X-0.8636Y0.0551
M16
G05
G00X-0.7636Y0.6551
M15
G01X-0.7636Y0.6689
M16
G05
G00X-0.7636Y0.0689
M15
G01X-0.7636Y0.0551
M16
G05
G00X-0.6636Y0.6551
M15
G01X-0.6636Y0.6689
M16
G05
G00X-0.6636Y0.0689
M15
G01X-0.6636Y0.0551
M16
G05
G00X-0.5636Y0.6551
M15
G01X-0.5636Y0.6689
M16
G05
G00X-0.5636Y0.0689
M15
G01X-0.5636Y0.0551
M16
G05
G00X-0.4636Y0.6551
M15
G01X-0.4636Y0.6689
M16
G05
G00X-0.4636Y0.0689
M15
G01X-0.4636Y0.0551
M16
G05
G00X-0.3636Y0.6551
M15
G01X-0.3636Y0.6689
M16
G05
G00X-0.3636Y0.0689
M15
G01X-0.3636Y0.0551
M16
G05
G00X-0.2636Y0.6551
M15
G01X-0.2636Y0.6689
M16
G05
G00X-0.2636Y0.0689
M15
G01X-0.2636Y0.0551
M16
G05
G00X-0.1636Y0.6551
M15
G01X-0.1636Y0.6689
M16
G05
G00X-0.1636Y0.0689
M15
G01X-0.1636Y0.0551
M16
G05
G00X-0.0636Y0.6551
M15
G01X-0.0636Y0.6689
M16
G05
G00X-0.0636Y0.0689
M15
G01X-0.0636Y0.0551
M16
G05
M30
