%TF.GenerationSoftware,KiCad,Pcbnew,9.0.6*%
%TF.CreationDate,2025-11-27T00:01:33+01:00*%
%TF.ProjectId,hd_64_flex_press_v1,68645f36-345f-4666-9c65-785f70726573,0.1*%
%TF.SameCoordinates,PXd7966e0PY3c8eee0*%
%TF.FileFunction,Legend,Bot*%
%TF.FilePolarity,Positive*%
%FSLAX46Y46*%
G04 Gerber Fmt 4.6, Leading zero omitted, Abs format (unit mm)*
G04 Created by KiCad (PCBNEW 9.0.6) date 2025-11-27 00:01:33*
%MOMM*%
%LPD*%
G01*
G04 APERTURE LIST*
%ADD10C,0.100000*%
%ADD11C,0.150000*%
%ADD12C,0.300000*%
%ADD13C,0.400000*%
G04 APERTURE END LIST*
D10*
D11*
X-49057800Y-102507200D02*
X58942200Y-102507200D01*
X58942200Y-134507200D01*
X-49057800Y-134507200D01*
X-49057800Y-102507200D01*
D10*
D11*
X-216060000Y53500000D02*
X60942200Y53500000D01*
X60942200Y-136507200D01*
X-216060000Y-136507200D01*
X-216060000Y53500000D01*
D10*
D11*
X-214060000Y51500000D02*
X58942200Y51500000D01*
X58942200Y-134507200D01*
X-214060000Y-134507200D01*
X-214060000Y51500000D01*
D10*
D11*
X-166060000Y51500000D02*
X-166060000Y53500000D01*
D10*
D11*
X-116060000Y51500000D02*
X-116060000Y53500000D01*
D10*
D11*
X-66060000Y51500000D02*
X-66060000Y53500000D01*
D10*
D11*
X-16060000Y51500000D02*
X-16060000Y53500000D01*
D10*
D11*
X33940000Y51500000D02*
X33940000Y53500000D01*
D10*
D11*
X-189970840Y51906396D02*
X-190713697Y51906396D01*
X-190342269Y51906396D02*
X-190342269Y53206396D01*
X-190342269Y53206396D02*
X-190466078Y53020681D01*
X-190466078Y53020681D02*
X-190589888Y52896872D01*
X-190589888Y52896872D02*
X-190713697Y52834967D01*
D10*
D11*
X-140713697Y53082586D02*
X-140651793Y53144491D01*
X-140651793Y53144491D02*
X-140527983Y53206396D01*
X-140527983Y53206396D02*
X-140218459Y53206396D01*
X-140218459Y53206396D02*
X-140094650Y53144491D01*
X-140094650Y53144491D02*
X-140032745Y53082586D01*
X-140032745Y53082586D02*
X-139970840Y52958777D01*
X-139970840Y52958777D02*
X-139970840Y52834967D01*
X-139970840Y52834967D02*
X-140032745Y52649253D01*
X-140032745Y52649253D02*
X-140775602Y51906396D01*
X-140775602Y51906396D02*
X-139970840Y51906396D01*
D10*
D11*
X-90775602Y53206396D02*
X-89970840Y53206396D01*
X-89970840Y53206396D02*
X-90404174Y52711158D01*
X-90404174Y52711158D02*
X-90218459Y52711158D01*
X-90218459Y52711158D02*
X-90094650Y52649253D01*
X-90094650Y52649253D02*
X-90032745Y52587348D01*
X-90032745Y52587348D02*
X-89970840Y52463539D01*
X-89970840Y52463539D02*
X-89970840Y52154015D01*
X-89970840Y52154015D02*
X-90032745Y52030205D01*
X-90032745Y52030205D02*
X-90094650Y51968300D01*
X-90094650Y51968300D02*
X-90218459Y51906396D01*
X-90218459Y51906396D02*
X-90589888Y51906396D01*
X-90589888Y51906396D02*
X-90713697Y51968300D01*
X-90713697Y51968300D02*
X-90775602Y52030205D01*
D10*
D11*
X-40094650Y52773062D02*
X-40094650Y51906396D01*
X-40404174Y53268300D02*
X-40713697Y52339729D01*
X-40713697Y52339729D02*
X-39908936Y52339729D01*
D10*
D11*
X9967255Y53206396D02*
X9348207Y53206396D01*
X9348207Y53206396D02*
X9286303Y52587348D01*
X9286303Y52587348D02*
X9348207Y52649253D01*
X9348207Y52649253D02*
X9472017Y52711158D01*
X9472017Y52711158D02*
X9781541Y52711158D01*
X9781541Y52711158D02*
X9905350Y52649253D01*
X9905350Y52649253D02*
X9967255Y52587348D01*
X9967255Y52587348D02*
X10029160Y52463539D01*
X10029160Y52463539D02*
X10029160Y52154015D01*
X10029160Y52154015D02*
X9967255Y52030205D01*
X9967255Y52030205D02*
X9905350Y51968300D01*
X9905350Y51968300D02*
X9781541Y51906396D01*
X9781541Y51906396D02*
X9472017Y51906396D01*
X9472017Y51906396D02*
X9348207Y51968300D01*
X9348207Y51968300D02*
X9286303Y52030205D01*
D10*
D11*
X59905350Y53206396D02*
X59657731Y53206396D01*
X59657731Y53206396D02*
X59533922Y53144491D01*
X59533922Y53144491D02*
X59472017Y53082586D01*
X59472017Y53082586D02*
X59348207Y52896872D01*
X59348207Y52896872D02*
X59286303Y52649253D01*
X59286303Y52649253D02*
X59286303Y52154015D01*
X59286303Y52154015D02*
X59348207Y52030205D01*
X59348207Y52030205D02*
X59410112Y51968300D01*
X59410112Y51968300D02*
X59533922Y51906396D01*
X59533922Y51906396D02*
X59781541Y51906396D01*
X59781541Y51906396D02*
X59905350Y51968300D01*
X59905350Y51968300D02*
X59967255Y52030205D01*
X59967255Y52030205D02*
X60029160Y52154015D01*
X60029160Y52154015D02*
X60029160Y52463539D01*
X60029160Y52463539D02*
X59967255Y52587348D01*
X59967255Y52587348D02*
X59905350Y52649253D01*
X59905350Y52649253D02*
X59781541Y52711158D01*
X59781541Y52711158D02*
X59533922Y52711158D01*
X59533922Y52711158D02*
X59410112Y52649253D01*
X59410112Y52649253D02*
X59348207Y52587348D01*
X59348207Y52587348D02*
X59286303Y52463539D01*
D10*
D11*
X-166060000Y-134507200D02*
X-166060000Y-136507200D01*
D10*
D11*
X-116060000Y-134507200D02*
X-116060000Y-136507200D01*
D10*
D11*
X-66060000Y-134507200D02*
X-66060000Y-136507200D01*
D10*
D11*
X-16060000Y-134507200D02*
X-16060000Y-136507200D01*
D10*
D11*
X33940000Y-134507200D02*
X33940000Y-136507200D01*
D10*
D11*
X-189970840Y-136100804D02*
X-190713697Y-136100804D01*
X-190342269Y-136100804D02*
X-190342269Y-134800804D01*
X-190342269Y-134800804D02*
X-190466078Y-134986519D01*
X-190466078Y-134986519D02*
X-190589888Y-135110328D01*
X-190589888Y-135110328D02*
X-190713697Y-135172233D01*
D10*
D11*
X-140713697Y-134924614D02*
X-140651793Y-134862709D01*
X-140651793Y-134862709D02*
X-140527983Y-134800804D01*
X-140527983Y-134800804D02*
X-140218459Y-134800804D01*
X-140218459Y-134800804D02*
X-140094650Y-134862709D01*
X-140094650Y-134862709D02*
X-140032745Y-134924614D01*
X-140032745Y-134924614D02*
X-139970840Y-135048423D01*
X-139970840Y-135048423D02*
X-139970840Y-135172233D01*
X-139970840Y-135172233D02*
X-140032745Y-135357947D01*
X-140032745Y-135357947D02*
X-140775602Y-136100804D01*
X-140775602Y-136100804D02*
X-139970840Y-136100804D01*
D10*
D11*
X-90775602Y-134800804D02*
X-89970840Y-134800804D01*
X-89970840Y-134800804D02*
X-90404174Y-135296042D01*
X-90404174Y-135296042D02*
X-90218459Y-135296042D01*
X-90218459Y-135296042D02*
X-90094650Y-135357947D01*
X-90094650Y-135357947D02*
X-90032745Y-135419852D01*
X-90032745Y-135419852D02*
X-89970840Y-135543661D01*
X-89970840Y-135543661D02*
X-89970840Y-135853185D01*
X-89970840Y-135853185D02*
X-90032745Y-135976995D01*
X-90032745Y-135976995D02*
X-90094650Y-136038900D01*
X-90094650Y-136038900D02*
X-90218459Y-136100804D01*
X-90218459Y-136100804D02*
X-90589888Y-136100804D01*
X-90589888Y-136100804D02*
X-90713697Y-136038900D01*
X-90713697Y-136038900D02*
X-90775602Y-135976995D01*
D10*
D11*
X-40094650Y-135234138D02*
X-40094650Y-136100804D01*
X-40404174Y-134738900D02*
X-40713697Y-135667471D01*
X-40713697Y-135667471D02*
X-39908936Y-135667471D01*
D10*
D11*
X9967255Y-134800804D02*
X9348207Y-134800804D01*
X9348207Y-134800804D02*
X9286303Y-135419852D01*
X9286303Y-135419852D02*
X9348207Y-135357947D01*
X9348207Y-135357947D02*
X9472017Y-135296042D01*
X9472017Y-135296042D02*
X9781541Y-135296042D01*
X9781541Y-135296042D02*
X9905350Y-135357947D01*
X9905350Y-135357947D02*
X9967255Y-135419852D01*
X9967255Y-135419852D02*
X10029160Y-135543661D01*
X10029160Y-135543661D02*
X10029160Y-135853185D01*
X10029160Y-135853185D02*
X9967255Y-135976995D01*
X9967255Y-135976995D02*
X9905350Y-136038900D01*
X9905350Y-136038900D02*
X9781541Y-136100804D01*
X9781541Y-136100804D02*
X9472017Y-136100804D01*
X9472017Y-136100804D02*
X9348207Y-136038900D01*
X9348207Y-136038900D02*
X9286303Y-135976995D01*
D10*
D11*
X59905350Y-134800804D02*
X59657731Y-134800804D01*
X59657731Y-134800804D02*
X59533922Y-134862709D01*
X59533922Y-134862709D02*
X59472017Y-134924614D01*
X59472017Y-134924614D02*
X59348207Y-135110328D01*
X59348207Y-135110328D02*
X59286303Y-135357947D01*
X59286303Y-135357947D02*
X59286303Y-135853185D01*
X59286303Y-135853185D02*
X59348207Y-135976995D01*
X59348207Y-135976995D02*
X59410112Y-136038900D01*
X59410112Y-136038900D02*
X59533922Y-136100804D01*
X59533922Y-136100804D02*
X59781541Y-136100804D01*
X59781541Y-136100804D02*
X59905350Y-136038900D01*
X59905350Y-136038900D02*
X59967255Y-135976995D01*
X59967255Y-135976995D02*
X60029160Y-135853185D01*
X60029160Y-135853185D02*
X60029160Y-135543661D01*
X60029160Y-135543661D02*
X59967255Y-135419852D01*
X59967255Y-135419852D02*
X59905350Y-135357947D01*
X59905350Y-135357947D02*
X59781541Y-135296042D01*
X59781541Y-135296042D02*
X59533922Y-135296042D01*
X59533922Y-135296042D02*
X59410112Y-135357947D01*
X59410112Y-135357947D02*
X59348207Y-135419852D01*
X59348207Y-135419852D02*
X59286303Y-135543661D01*
D10*
D11*
X-216060000Y3500000D02*
X-214060000Y3500000D01*
D10*
D11*
X-216060000Y-46500000D02*
X-214060000Y-46500000D01*
D10*
D11*
X-216060000Y-96500000D02*
X-214060000Y-96500000D01*
D10*
D11*
X-215369524Y28277824D02*
X-214750477Y28277824D01*
X-215493334Y27906396D02*
X-215060001Y29206396D01*
X-215060001Y29206396D02*
X-214626667Y27906396D01*
D10*
D11*
X-214967143Y-21412652D02*
X-214781429Y-21474557D01*
X-214781429Y-21474557D02*
X-214719524Y-21536461D01*
X-214719524Y-21536461D02*
X-214657620Y-21660271D01*
X-214657620Y-21660271D02*
X-214657620Y-21845985D01*
X-214657620Y-21845985D02*
X-214719524Y-21969795D01*
X-214719524Y-21969795D02*
X-214781429Y-22031700D01*
X-214781429Y-22031700D02*
X-214905239Y-22093604D01*
X-214905239Y-22093604D02*
X-215400477Y-22093604D01*
X-215400477Y-22093604D02*
X-215400477Y-20793604D01*
X-215400477Y-20793604D02*
X-214967143Y-20793604D01*
X-214967143Y-20793604D02*
X-214843334Y-20855509D01*
X-214843334Y-20855509D02*
X-214781429Y-20917414D01*
X-214781429Y-20917414D02*
X-214719524Y-21041223D01*
X-214719524Y-21041223D02*
X-214719524Y-21165033D01*
X-214719524Y-21165033D02*
X-214781429Y-21288842D01*
X-214781429Y-21288842D02*
X-214843334Y-21350747D01*
X-214843334Y-21350747D02*
X-214967143Y-21412652D01*
X-214967143Y-21412652D02*
X-215400477Y-21412652D01*
D10*
D11*
X-214657620Y-71969795D02*
X-214719524Y-72031700D01*
X-214719524Y-72031700D02*
X-214905239Y-72093604D01*
X-214905239Y-72093604D02*
X-215029048Y-72093604D01*
X-215029048Y-72093604D02*
X-215214762Y-72031700D01*
X-215214762Y-72031700D02*
X-215338572Y-71907890D01*
X-215338572Y-71907890D02*
X-215400477Y-71784080D01*
X-215400477Y-71784080D02*
X-215462381Y-71536461D01*
X-215462381Y-71536461D02*
X-215462381Y-71350747D01*
X-215462381Y-71350747D02*
X-215400477Y-71103128D01*
X-215400477Y-71103128D02*
X-215338572Y-70979319D01*
X-215338572Y-70979319D02*
X-215214762Y-70855509D01*
X-215214762Y-70855509D02*
X-215029048Y-70793604D01*
X-215029048Y-70793604D02*
X-214905239Y-70793604D01*
X-214905239Y-70793604D02*
X-214719524Y-70855509D01*
X-214719524Y-70855509D02*
X-214657620Y-70917414D01*
D10*
D11*
X-215400477Y-122093604D02*
X-215400477Y-120793604D01*
X-215400477Y-120793604D02*
X-215090953Y-120793604D01*
X-215090953Y-120793604D02*
X-214905239Y-120855509D01*
X-214905239Y-120855509D02*
X-214781429Y-120979319D01*
X-214781429Y-120979319D02*
X-214719524Y-121103128D01*
X-214719524Y-121103128D02*
X-214657620Y-121350747D01*
X-214657620Y-121350747D02*
X-214657620Y-121536461D01*
X-214657620Y-121536461D02*
X-214719524Y-121784080D01*
X-214719524Y-121784080D02*
X-214781429Y-121907890D01*
X-214781429Y-121907890D02*
X-214905239Y-122031700D01*
X-214905239Y-122031700D02*
X-215090953Y-122093604D01*
X-215090953Y-122093604D02*
X-215400477Y-122093604D01*
D10*
D11*
X60942200Y3500000D02*
X58942200Y3500000D01*
D10*
D11*
X60942200Y-46500000D02*
X58942200Y-46500000D01*
D10*
D11*
X60942200Y-96500000D02*
X58942200Y-96500000D01*
D10*
D11*
X59632676Y28277824D02*
X60251723Y28277824D01*
X59508866Y27906396D02*
X59942199Y29206396D01*
X59942199Y29206396D02*
X60375533Y27906396D01*
D10*
D11*
X60035057Y-21412652D02*
X60220771Y-21474557D01*
X60220771Y-21474557D02*
X60282676Y-21536461D01*
X60282676Y-21536461D02*
X60344580Y-21660271D01*
X60344580Y-21660271D02*
X60344580Y-21845985D01*
X60344580Y-21845985D02*
X60282676Y-21969795D01*
X60282676Y-21969795D02*
X60220771Y-22031700D01*
X60220771Y-22031700D02*
X60096961Y-22093604D01*
X60096961Y-22093604D02*
X59601723Y-22093604D01*
X59601723Y-22093604D02*
X59601723Y-20793604D01*
X59601723Y-20793604D02*
X60035057Y-20793604D01*
X60035057Y-20793604D02*
X60158866Y-20855509D01*
X60158866Y-20855509D02*
X60220771Y-20917414D01*
X60220771Y-20917414D02*
X60282676Y-21041223D01*
X60282676Y-21041223D02*
X60282676Y-21165033D01*
X60282676Y-21165033D02*
X60220771Y-21288842D01*
X60220771Y-21288842D02*
X60158866Y-21350747D01*
X60158866Y-21350747D02*
X60035057Y-21412652D01*
X60035057Y-21412652D02*
X59601723Y-21412652D01*
D10*
D11*
X60344580Y-71969795D02*
X60282676Y-72031700D01*
X60282676Y-72031700D02*
X60096961Y-72093604D01*
X60096961Y-72093604D02*
X59973152Y-72093604D01*
X59973152Y-72093604D02*
X59787438Y-72031700D01*
X59787438Y-72031700D02*
X59663628Y-71907890D01*
X59663628Y-71907890D02*
X59601723Y-71784080D01*
X59601723Y-71784080D02*
X59539819Y-71536461D01*
X59539819Y-71536461D02*
X59539819Y-71350747D01*
X59539819Y-71350747D02*
X59601723Y-71103128D01*
X59601723Y-71103128D02*
X59663628Y-70979319D01*
X59663628Y-70979319D02*
X59787438Y-70855509D01*
X59787438Y-70855509D02*
X59973152Y-70793604D01*
X59973152Y-70793604D02*
X60096961Y-70793604D01*
X60096961Y-70793604D02*
X60282676Y-70855509D01*
X60282676Y-70855509D02*
X60344580Y-70917414D01*
D10*
D11*
X59601723Y-122093604D02*
X59601723Y-120793604D01*
X59601723Y-120793604D02*
X59911247Y-120793604D01*
X59911247Y-120793604D02*
X60096961Y-120855509D01*
X60096961Y-120855509D02*
X60220771Y-120979319D01*
X60220771Y-120979319D02*
X60282676Y-121103128D01*
X60282676Y-121103128D02*
X60344580Y-121350747D01*
X60344580Y-121350747D02*
X60344580Y-121536461D01*
X60344580Y-121536461D02*
X60282676Y-121784080D01*
X60282676Y-121784080D02*
X60220771Y-121907890D01*
X60220771Y-121907890D02*
X60096961Y-122031700D01*
X60096961Y-122031700D02*
X59911247Y-122093604D01*
X59911247Y-122093604D02*
X59601723Y-122093604D01*
D10*
D11*
X-25601974Y-130293328D02*
X-25601974Y-128793328D01*
X-25601974Y-128793328D02*
X-25244831Y-128793328D01*
X-25244831Y-128793328D02*
X-25030545Y-128864757D01*
X-25030545Y-128864757D02*
X-24887688Y-129007614D01*
X-24887688Y-129007614D02*
X-24816259Y-129150471D01*
X-24816259Y-129150471D02*
X-24744831Y-129436185D01*
X-24744831Y-129436185D02*
X-24744831Y-129650471D01*
X-24744831Y-129650471D02*
X-24816259Y-129936185D01*
X-24816259Y-129936185D02*
X-24887688Y-130079042D01*
X-24887688Y-130079042D02*
X-25030545Y-130221900D01*
X-25030545Y-130221900D02*
X-25244831Y-130293328D01*
X-25244831Y-130293328D02*
X-25601974Y-130293328D01*
X-23459116Y-130293328D02*
X-23459116Y-129507614D01*
X-23459116Y-129507614D02*
X-23530545Y-129364757D01*
X-23530545Y-129364757D02*
X-23673402Y-129293328D01*
X-23673402Y-129293328D02*
X-23959116Y-129293328D01*
X-23959116Y-129293328D02*
X-24101974Y-129364757D01*
X-23459116Y-130221900D02*
X-23601974Y-130293328D01*
X-23601974Y-130293328D02*
X-23959116Y-130293328D01*
X-23959116Y-130293328D02*
X-24101974Y-130221900D01*
X-24101974Y-130221900D02*
X-24173402Y-130079042D01*
X-24173402Y-130079042D02*
X-24173402Y-129936185D01*
X-24173402Y-129936185D02*
X-24101974Y-129793328D01*
X-24101974Y-129793328D02*
X-23959116Y-129721900D01*
X-23959116Y-129721900D02*
X-23601974Y-129721900D01*
X-23601974Y-129721900D02*
X-23459116Y-129650471D01*
X-22959116Y-129293328D02*
X-22387688Y-129293328D01*
X-22744831Y-128793328D02*
X-22744831Y-130079042D01*
X-22744831Y-130079042D02*
X-22673402Y-130221900D01*
X-22673402Y-130221900D02*
X-22530545Y-130293328D01*
X-22530545Y-130293328D02*
X-22387688Y-130293328D01*
X-21316259Y-130221900D02*
X-21459116Y-130293328D01*
X-21459116Y-130293328D02*
X-21744830Y-130293328D01*
X-21744830Y-130293328D02*
X-21887688Y-130221900D01*
X-21887688Y-130221900D02*
X-21959116Y-130079042D01*
X-21959116Y-130079042D02*
X-21959116Y-129507614D01*
X-21959116Y-129507614D02*
X-21887688Y-129364757D01*
X-21887688Y-129364757D02*
X-21744830Y-129293328D01*
X-21744830Y-129293328D02*
X-21459116Y-129293328D01*
X-21459116Y-129293328D02*
X-21316259Y-129364757D01*
X-21316259Y-129364757D02*
X-21244830Y-129507614D01*
X-21244830Y-129507614D02*
X-21244830Y-129650471D01*
X-21244830Y-129650471D02*
X-21959116Y-129793328D01*
X-20601974Y-130150471D02*
X-20530545Y-130221900D01*
X-20530545Y-130221900D02*
X-20601974Y-130293328D01*
X-20601974Y-130293328D02*
X-20673402Y-130221900D01*
X-20673402Y-130221900D02*
X-20601974Y-130150471D01*
X-20601974Y-130150471D02*
X-20601974Y-130293328D01*
X-20601974Y-129364757D02*
X-20530545Y-129436185D01*
X-20530545Y-129436185D02*
X-20601974Y-129507614D01*
X-20601974Y-129507614D02*
X-20673402Y-129436185D01*
X-20673402Y-129436185D02*
X-20601974Y-129364757D01*
X-20601974Y-129364757D02*
X-20601974Y-129507614D01*
X-18816259Y-128936185D02*
X-18744831Y-128864757D01*
X-18744831Y-128864757D02*
X-18601973Y-128793328D01*
X-18601973Y-128793328D02*
X-18244831Y-128793328D01*
X-18244831Y-128793328D02*
X-18101973Y-128864757D01*
X-18101973Y-128864757D02*
X-18030545Y-128936185D01*
X-18030545Y-128936185D02*
X-17959116Y-129079042D01*
X-17959116Y-129079042D02*
X-17959116Y-129221900D01*
X-17959116Y-129221900D02*
X-18030545Y-129436185D01*
X-18030545Y-129436185D02*
X-18887688Y-130293328D01*
X-18887688Y-130293328D02*
X-17959116Y-130293328D01*
X-17030545Y-128793328D02*
X-16887688Y-128793328D01*
X-16887688Y-128793328D02*
X-16744831Y-128864757D01*
X-16744831Y-128864757D02*
X-16673402Y-128936185D01*
X-16673402Y-128936185D02*
X-16601974Y-129079042D01*
X-16601974Y-129079042D02*
X-16530545Y-129364757D01*
X-16530545Y-129364757D02*
X-16530545Y-129721900D01*
X-16530545Y-129721900D02*
X-16601974Y-130007614D01*
X-16601974Y-130007614D02*
X-16673402Y-130150471D01*
X-16673402Y-130150471D02*
X-16744831Y-130221900D01*
X-16744831Y-130221900D02*
X-16887688Y-130293328D01*
X-16887688Y-130293328D02*
X-17030545Y-130293328D01*
X-17030545Y-130293328D02*
X-17173402Y-130221900D01*
X-17173402Y-130221900D02*
X-17244831Y-130150471D01*
X-17244831Y-130150471D02*
X-17316260Y-130007614D01*
X-17316260Y-130007614D02*
X-17387688Y-129721900D01*
X-17387688Y-129721900D02*
X-17387688Y-129364757D01*
X-17387688Y-129364757D02*
X-17316260Y-129079042D01*
X-17316260Y-129079042D02*
X-17244831Y-128936185D01*
X-17244831Y-128936185D02*
X-17173402Y-128864757D01*
X-17173402Y-128864757D02*
X-17030545Y-128793328D01*
X-15959117Y-128936185D02*
X-15887689Y-128864757D01*
X-15887689Y-128864757D02*
X-15744831Y-128793328D01*
X-15744831Y-128793328D02*
X-15387689Y-128793328D01*
X-15387689Y-128793328D02*
X-15244831Y-128864757D01*
X-15244831Y-128864757D02*
X-15173403Y-128936185D01*
X-15173403Y-128936185D02*
X-15101974Y-129079042D01*
X-15101974Y-129079042D02*
X-15101974Y-129221900D01*
X-15101974Y-129221900D02*
X-15173403Y-129436185D01*
X-15173403Y-129436185D02*
X-16030546Y-130293328D01*
X-16030546Y-130293328D02*
X-15101974Y-130293328D01*
X-14601975Y-128793328D02*
X-13673403Y-128793328D01*
X-13673403Y-128793328D02*
X-14173403Y-129364757D01*
X-14173403Y-129364757D02*
X-13959118Y-129364757D01*
X-13959118Y-129364757D02*
X-13816260Y-129436185D01*
X-13816260Y-129436185D02*
X-13744832Y-129507614D01*
X-13744832Y-129507614D02*
X-13673403Y-129650471D01*
X-13673403Y-129650471D02*
X-13673403Y-130007614D01*
X-13673403Y-130007614D02*
X-13744832Y-130150471D01*
X-13744832Y-130150471D02*
X-13816260Y-130221900D01*
X-13816260Y-130221900D02*
X-13959118Y-130293328D01*
X-13959118Y-130293328D02*
X-14387689Y-130293328D01*
X-14387689Y-130293328D02*
X-14530546Y-130221900D01*
X-14530546Y-130221900D02*
X-14601975Y-130150471D01*
X-13030547Y-129721900D02*
X-11887689Y-129721900D01*
X-10387689Y-130293328D02*
X-11244832Y-130293328D01*
X-10816261Y-130293328D02*
X-10816261Y-128793328D01*
X-10816261Y-128793328D02*
X-10959118Y-129007614D01*
X-10959118Y-129007614D02*
X-11101975Y-129150471D01*
X-11101975Y-129150471D02*
X-11244832Y-129221900D01*
X-8959118Y-130293328D02*
X-9816261Y-130293328D01*
X-9387690Y-130293328D02*
X-9387690Y-128793328D01*
X-9387690Y-128793328D02*
X-9530547Y-129007614D01*
X-9530547Y-129007614D02*
X-9673404Y-129150471D01*
X-9673404Y-129150471D02*
X-9816261Y-129221900D01*
X-8316262Y-129721900D02*
X-7173404Y-129721900D01*
X-5673404Y-130293328D02*
X-6530547Y-130293328D01*
X-6101976Y-130293328D02*
X-6101976Y-128793328D01*
X-6101976Y-128793328D02*
X-6244833Y-129007614D01*
X-6244833Y-129007614D02*
X-6387690Y-129150471D01*
X-6387690Y-129150471D02*
X-6530547Y-129221900D01*
X-4387690Y-128793328D02*
X-4673405Y-128793328D01*
X-4673405Y-128793328D02*
X-4816262Y-128864757D01*
X-4816262Y-128864757D02*
X-4887690Y-128936185D01*
X-4887690Y-128936185D02*
X-5030548Y-129150471D01*
X-5030548Y-129150471D02*
X-5101976Y-129436185D01*
X-5101976Y-129436185D02*
X-5101976Y-130007614D01*
X-5101976Y-130007614D02*
X-5030548Y-130150471D01*
X-5030548Y-130150471D02*
X-4959119Y-130221900D01*
X-4959119Y-130221900D02*
X-4816262Y-130293328D01*
X-4816262Y-130293328D02*
X-4530548Y-130293328D01*
X-4530548Y-130293328D02*
X-4387690Y-130221900D01*
X-4387690Y-130221900D02*
X-4316262Y-130150471D01*
X-4316262Y-130150471D02*
X-4244833Y-130007614D01*
X-4244833Y-130007614D02*
X-4244833Y-129650471D01*
X-4244833Y-129650471D02*
X-4316262Y-129507614D01*
X-4316262Y-129507614D02*
X-4387690Y-129436185D01*
X-4387690Y-129436185D02*
X-4530548Y-129364757D01*
X-4530548Y-129364757D02*
X-4816262Y-129364757D01*
X-4816262Y-129364757D02*
X-4959119Y-129436185D01*
X-4959119Y-129436185D02*
X-5030548Y-129507614D01*
X-5030548Y-129507614D02*
X-5101976Y-129650471D01*
D10*
D11*
X-49057800Y-131007200D02*
X58942200Y-131007200D01*
D10*
D11*
X-47601974Y-133093328D02*
X-47601974Y-131593328D01*
X-46744831Y-133093328D02*
X-47387688Y-132236185D01*
X-46744831Y-131593328D02*
X-47601974Y-132450471D01*
X-46101974Y-133093328D02*
X-46101974Y-132093328D01*
X-46101974Y-131593328D02*
X-46173402Y-131664757D01*
X-46173402Y-131664757D02*
X-46101974Y-131736185D01*
X-46101974Y-131736185D02*
X-46030545Y-131664757D01*
X-46030545Y-131664757D02*
X-46101974Y-131593328D01*
X-46101974Y-131593328D02*
X-46101974Y-131736185D01*
X-44530545Y-132950471D02*
X-44601973Y-133021900D01*
X-44601973Y-133021900D02*
X-44816259Y-133093328D01*
X-44816259Y-133093328D02*
X-44959116Y-133093328D01*
X-44959116Y-133093328D02*
X-45173402Y-133021900D01*
X-45173402Y-133021900D02*
X-45316259Y-132879042D01*
X-45316259Y-132879042D02*
X-45387688Y-132736185D01*
X-45387688Y-132736185D02*
X-45459116Y-132450471D01*
X-45459116Y-132450471D02*
X-45459116Y-132236185D01*
X-45459116Y-132236185D02*
X-45387688Y-131950471D01*
X-45387688Y-131950471D02*
X-45316259Y-131807614D01*
X-45316259Y-131807614D02*
X-45173402Y-131664757D01*
X-45173402Y-131664757D02*
X-44959116Y-131593328D01*
X-44959116Y-131593328D02*
X-44816259Y-131593328D01*
X-44816259Y-131593328D02*
X-44601973Y-131664757D01*
X-44601973Y-131664757D02*
X-44530545Y-131736185D01*
X-43244830Y-133093328D02*
X-43244830Y-132307614D01*
X-43244830Y-132307614D02*
X-43316259Y-132164757D01*
X-43316259Y-132164757D02*
X-43459116Y-132093328D01*
X-43459116Y-132093328D02*
X-43744830Y-132093328D01*
X-43744830Y-132093328D02*
X-43887688Y-132164757D01*
X-43244830Y-133021900D02*
X-43387688Y-133093328D01*
X-43387688Y-133093328D02*
X-43744830Y-133093328D01*
X-43744830Y-133093328D02*
X-43887688Y-133021900D01*
X-43887688Y-133021900D02*
X-43959116Y-132879042D01*
X-43959116Y-132879042D02*
X-43959116Y-132736185D01*
X-43959116Y-132736185D02*
X-43887688Y-132593328D01*
X-43887688Y-132593328D02*
X-43744830Y-132521900D01*
X-43744830Y-132521900D02*
X-43387688Y-132521900D01*
X-43387688Y-132521900D02*
X-43244830Y-132450471D01*
X-41887687Y-133093328D02*
X-41887687Y-131593328D01*
X-41887687Y-133021900D02*
X-42030545Y-133093328D01*
X-42030545Y-133093328D02*
X-42316259Y-133093328D01*
X-42316259Y-133093328D02*
X-42459116Y-133021900D01*
X-42459116Y-133021900D02*
X-42530545Y-132950471D01*
X-42530545Y-132950471D02*
X-42601973Y-132807614D01*
X-42601973Y-132807614D02*
X-42601973Y-132379042D01*
X-42601973Y-132379042D02*
X-42530545Y-132236185D01*
X-42530545Y-132236185D02*
X-42459116Y-132164757D01*
X-42459116Y-132164757D02*
X-42316259Y-132093328D01*
X-42316259Y-132093328D02*
X-42030545Y-132093328D01*
X-42030545Y-132093328D02*
X-41887687Y-132164757D01*
X-40030545Y-132307614D02*
X-39530545Y-132307614D01*
X-39316259Y-133093328D02*
X-40030545Y-133093328D01*
X-40030545Y-133093328D02*
X-40030545Y-131593328D01*
X-40030545Y-131593328D02*
X-39316259Y-131593328D01*
X-38673402Y-132950471D02*
X-38601973Y-133021900D01*
X-38601973Y-133021900D02*
X-38673402Y-133093328D01*
X-38673402Y-133093328D02*
X-38744830Y-133021900D01*
X-38744830Y-133021900D02*
X-38673402Y-132950471D01*
X-38673402Y-132950471D02*
X-38673402Y-133093328D01*
X-37959116Y-133093328D02*
X-37959116Y-131593328D01*
X-37959116Y-131593328D02*
X-37601973Y-131593328D01*
X-37601973Y-131593328D02*
X-37387687Y-131664757D01*
X-37387687Y-131664757D02*
X-37244830Y-131807614D01*
X-37244830Y-131807614D02*
X-37173401Y-131950471D01*
X-37173401Y-131950471D02*
X-37101973Y-132236185D01*
X-37101973Y-132236185D02*
X-37101973Y-132450471D01*
X-37101973Y-132450471D02*
X-37173401Y-132736185D01*
X-37173401Y-132736185D02*
X-37244830Y-132879042D01*
X-37244830Y-132879042D02*
X-37387687Y-133021900D01*
X-37387687Y-133021900D02*
X-37601973Y-133093328D01*
X-37601973Y-133093328D02*
X-37959116Y-133093328D01*
X-36459116Y-132950471D02*
X-36387687Y-133021900D01*
X-36387687Y-133021900D02*
X-36459116Y-133093328D01*
X-36459116Y-133093328D02*
X-36530544Y-133021900D01*
X-36530544Y-133021900D02*
X-36459116Y-132950471D01*
X-36459116Y-132950471D02*
X-36459116Y-133093328D01*
X-35816258Y-132664757D02*
X-35101972Y-132664757D01*
X-35959115Y-133093328D02*
X-35459115Y-131593328D01*
X-35459115Y-131593328D02*
X-34959115Y-133093328D01*
X-34459116Y-132950471D02*
X-34387687Y-133021900D01*
X-34387687Y-133021900D02*
X-34459116Y-133093328D01*
X-34459116Y-133093328D02*
X-34530544Y-133021900D01*
X-34530544Y-133021900D02*
X-34459116Y-132950471D01*
X-34459116Y-132950471D02*
X-34459116Y-133093328D01*
X-32530544Y-133093328D02*
X-32244830Y-133093328D01*
X-32244830Y-133093328D02*
X-32101973Y-133021900D01*
X-32101973Y-133021900D02*
X-32030544Y-132950471D01*
X-32030544Y-132950471D02*
X-31887687Y-132736185D01*
X-31887687Y-132736185D02*
X-31816258Y-132450471D01*
X-31816258Y-132450471D02*
X-31816258Y-131879042D01*
X-31816258Y-131879042D02*
X-31887687Y-131736185D01*
X-31887687Y-131736185D02*
X-31959115Y-131664757D01*
X-31959115Y-131664757D02*
X-32101973Y-131593328D01*
X-32101973Y-131593328D02*
X-32387687Y-131593328D01*
X-32387687Y-131593328D02*
X-32530544Y-131664757D01*
X-32530544Y-131664757D02*
X-32601973Y-131736185D01*
X-32601973Y-131736185D02*
X-32673401Y-131879042D01*
X-32673401Y-131879042D02*
X-32673401Y-132236185D01*
X-32673401Y-132236185D02*
X-32601973Y-132379042D01*
X-32601973Y-132379042D02*
X-32530544Y-132450471D01*
X-32530544Y-132450471D02*
X-32387687Y-132521900D01*
X-32387687Y-132521900D02*
X-32101973Y-132521900D01*
X-32101973Y-132521900D02*
X-31959115Y-132450471D01*
X-31959115Y-132450471D02*
X-31887687Y-132379042D01*
X-31887687Y-132379042D02*
X-31816258Y-132236185D01*
X-31173402Y-132950471D02*
X-31101973Y-133021900D01*
X-31101973Y-133021900D02*
X-31173402Y-133093328D01*
X-31173402Y-133093328D02*
X-31244830Y-133021900D01*
X-31244830Y-133021900D02*
X-31173402Y-132950471D01*
X-31173402Y-132950471D02*
X-31173402Y-133093328D01*
X-30173401Y-131593328D02*
X-30030544Y-131593328D01*
X-30030544Y-131593328D02*
X-29887687Y-131664757D01*
X-29887687Y-131664757D02*
X-29816258Y-131736185D01*
X-29816258Y-131736185D02*
X-29744830Y-131879042D01*
X-29744830Y-131879042D02*
X-29673401Y-132164757D01*
X-29673401Y-132164757D02*
X-29673401Y-132521900D01*
X-29673401Y-132521900D02*
X-29744830Y-132807614D01*
X-29744830Y-132807614D02*
X-29816258Y-132950471D01*
X-29816258Y-132950471D02*
X-29887687Y-133021900D01*
X-29887687Y-133021900D02*
X-30030544Y-133093328D01*
X-30030544Y-133093328D02*
X-30173401Y-133093328D01*
X-30173401Y-133093328D02*
X-30316258Y-133021900D01*
X-30316258Y-133021900D02*
X-30387687Y-132950471D01*
X-30387687Y-132950471D02*
X-30459116Y-132807614D01*
X-30459116Y-132807614D02*
X-30530544Y-132521900D01*
X-30530544Y-132521900D02*
X-30530544Y-132164757D01*
X-30530544Y-132164757D02*
X-30459116Y-131879042D01*
X-30459116Y-131879042D02*
X-30387687Y-131736185D01*
X-30387687Y-131736185D02*
X-30316258Y-131664757D01*
X-30316258Y-131664757D02*
X-30173401Y-131593328D01*
X-29030545Y-132950471D02*
X-28959116Y-133021900D01*
X-28959116Y-133021900D02*
X-29030545Y-133093328D01*
X-29030545Y-133093328D02*
X-29101973Y-133021900D01*
X-29101973Y-133021900D02*
X-29030545Y-132950471D01*
X-29030545Y-132950471D02*
X-29030545Y-133093328D01*
X-27673401Y-131593328D02*
X-27959116Y-131593328D01*
X-27959116Y-131593328D02*
X-28101973Y-131664757D01*
X-28101973Y-131664757D02*
X-28173401Y-131736185D01*
X-28173401Y-131736185D02*
X-28316259Y-131950471D01*
X-28316259Y-131950471D02*
X-28387687Y-132236185D01*
X-28387687Y-132236185D02*
X-28387687Y-132807614D01*
X-28387687Y-132807614D02*
X-28316259Y-132950471D01*
X-28316259Y-132950471D02*
X-28244830Y-133021900D01*
X-28244830Y-133021900D02*
X-28101973Y-133093328D01*
X-28101973Y-133093328D02*
X-27816259Y-133093328D01*
X-27816259Y-133093328D02*
X-27673401Y-133021900D01*
X-27673401Y-133021900D02*
X-27601973Y-132950471D01*
X-27601973Y-132950471D02*
X-27530544Y-132807614D01*
X-27530544Y-132807614D02*
X-27530544Y-132450471D01*
X-27530544Y-132450471D02*
X-27601973Y-132307614D01*
X-27601973Y-132307614D02*
X-27673401Y-132236185D01*
X-27673401Y-132236185D02*
X-27816259Y-132164757D01*
X-27816259Y-132164757D02*
X-28101973Y-132164757D01*
X-28101973Y-132164757D02*
X-28244830Y-132236185D01*
X-28244830Y-132236185D02*
X-28316259Y-132307614D01*
X-28316259Y-132307614D02*
X-28387687Y-132450471D01*
D10*
D11*
X-49057800Y-128007200D02*
X58942200Y-128007200D01*
D10*
D12*
X38353853Y-130285528D02*
X37853853Y-129571242D01*
X37496710Y-130285528D02*
X37496710Y-128785528D01*
X37496710Y-128785528D02*
X38068139Y-128785528D01*
X38068139Y-128785528D02*
X38210996Y-128856957D01*
X38210996Y-128856957D02*
X38282425Y-128928385D01*
X38282425Y-128928385D02*
X38353853Y-129071242D01*
X38353853Y-129071242D02*
X38353853Y-129285528D01*
X38353853Y-129285528D02*
X38282425Y-129428385D01*
X38282425Y-129428385D02*
X38210996Y-129499814D01*
X38210996Y-129499814D02*
X38068139Y-129571242D01*
X38068139Y-129571242D02*
X37496710Y-129571242D01*
X39568139Y-130214100D02*
X39425282Y-130285528D01*
X39425282Y-130285528D02*
X39139568Y-130285528D01*
X39139568Y-130285528D02*
X38996710Y-130214100D01*
X38996710Y-130214100D02*
X38925282Y-130071242D01*
X38925282Y-130071242D02*
X38925282Y-129499814D01*
X38925282Y-129499814D02*
X38996710Y-129356957D01*
X38996710Y-129356957D02*
X39139568Y-129285528D01*
X39139568Y-129285528D02*
X39425282Y-129285528D01*
X39425282Y-129285528D02*
X39568139Y-129356957D01*
X39568139Y-129356957D02*
X39639568Y-129499814D01*
X39639568Y-129499814D02*
X39639568Y-129642671D01*
X39639568Y-129642671D02*
X38925282Y-129785528D01*
X40139567Y-129285528D02*
X40496710Y-130285528D01*
X40496710Y-130285528D02*
X40853853Y-129285528D01*
X41425281Y-130142671D02*
X41496710Y-130214100D01*
X41496710Y-130214100D02*
X41425281Y-130285528D01*
X41425281Y-130285528D02*
X41353853Y-130214100D01*
X41353853Y-130214100D02*
X41425281Y-130142671D01*
X41425281Y-130142671D02*
X41425281Y-130285528D01*
X41425281Y-129356957D02*
X41496710Y-129428385D01*
X41496710Y-129428385D02*
X41425281Y-129499814D01*
X41425281Y-129499814D02*
X41353853Y-129428385D01*
X41353853Y-129428385D02*
X41425281Y-129356957D01*
X41425281Y-129356957D02*
X41425281Y-129499814D01*
X43568139Y-128785528D02*
X43710996Y-128785528D01*
X43710996Y-128785528D02*
X43853853Y-128856957D01*
X43853853Y-128856957D02*
X43925282Y-128928385D01*
X43925282Y-128928385D02*
X43996710Y-129071242D01*
X43996710Y-129071242D02*
X44068139Y-129356957D01*
X44068139Y-129356957D02*
X44068139Y-129714100D01*
X44068139Y-129714100D02*
X43996710Y-129999814D01*
X43996710Y-129999814D02*
X43925282Y-130142671D01*
X43925282Y-130142671D02*
X43853853Y-130214100D01*
X43853853Y-130214100D02*
X43710996Y-130285528D01*
X43710996Y-130285528D02*
X43568139Y-130285528D01*
X43568139Y-130285528D02*
X43425282Y-130214100D01*
X43425282Y-130214100D02*
X43353853Y-130142671D01*
X43353853Y-130142671D02*
X43282424Y-129999814D01*
X43282424Y-129999814D02*
X43210996Y-129714100D01*
X43210996Y-129714100D02*
X43210996Y-129356957D01*
X43210996Y-129356957D02*
X43282424Y-129071242D01*
X43282424Y-129071242D02*
X43353853Y-128928385D01*
X43353853Y-128928385D02*
X43425282Y-128856957D01*
X43425282Y-128856957D02*
X43568139Y-128785528D01*
X44710995Y-130142671D02*
X44782424Y-130214100D01*
X44782424Y-130214100D02*
X44710995Y-130285528D01*
X44710995Y-130285528D02*
X44639567Y-130214100D01*
X44639567Y-130214100D02*
X44710995Y-130142671D01*
X44710995Y-130142671D02*
X44710995Y-130285528D01*
X46210996Y-130285528D02*
X45353853Y-130285528D01*
X45782424Y-130285528D02*
X45782424Y-128785528D01*
X45782424Y-128785528D02*
X45639567Y-128999814D01*
X45639567Y-128999814D02*
X45496710Y-129142671D01*
X45496710Y-129142671D02*
X45353853Y-129214100D01*
D10*
D11*
X-47673402Y-130221900D02*
X-47459116Y-130293328D01*
X-47459116Y-130293328D02*
X-47101974Y-130293328D01*
X-47101974Y-130293328D02*
X-46959116Y-130221900D01*
X-46959116Y-130221900D02*
X-46887688Y-130150471D01*
X-46887688Y-130150471D02*
X-46816259Y-130007614D01*
X-46816259Y-130007614D02*
X-46816259Y-129864757D01*
X-46816259Y-129864757D02*
X-46887688Y-129721900D01*
X-46887688Y-129721900D02*
X-46959116Y-129650471D01*
X-46959116Y-129650471D02*
X-47101974Y-129579042D01*
X-47101974Y-129579042D02*
X-47387688Y-129507614D01*
X-47387688Y-129507614D02*
X-47530545Y-129436185D01*
X-47530545Y-129436185D02*
X-47601974Y-129364757D01*
X-47601974Y-129364757D02*
X-47673402Y-129221900D01*
X-47673402Y-129221900D02*
X-47673402Y-129079042D01*
X-47673402Y-129079042D02*
X-47601974Y-128936185D01*
X-47601974Y-128936185D02*
X-47530545Y-128864757D01*
X-47530545Y-128864757D02*
X-47387688Y-128793328D01*
X-47387688Y-128793328D02*
X-47030545Y-128793328D01*
X-47030545Y-128793328D02*
X-46816259Y-128864757D01*
X-46173403Y-130293328D02*
X-46173403Y-129293328D01*
X-46173403Y-128793328D02*
X-46244831Y-128864757D01*
X-46244831Y-128864757D02*
X-46173403Y-128936185D01*
X-46173403Y-128936185D02*
X-46101974Y-128864757D01*
X-46101974Y-128864757D02*
X-46173403Y-128793328D01*
X-46173403Y-128793328D02*
X-46173403Y-128936185D01*
X-45601974Y-129293328D02*
X-44816259Y-129293328D01*
X-44816259Y-129293328D02*
X-45601974Y-130293328D01*
X-45601974Y-130293328D02*
X-44816259Y-130293328D01*
X-43673402Y-130221900D02*
X-43816259Y-130293328D01*
X-43816259Y-130293328D02*
X-44101973Y-130293328D01*
X-44101973Y-130293328D02*
X-44244831Y-130221900D01*
X-44244831Y-130221900D02*
X-44316259Y-130079042D01*
X-44316259Y-130079042D02*
X-44316259Y-129507614D01*
X-44316259Y-129507614D02*
X-44244831Y-129364757D01*
X-44244831Y-129364757D02*
X-44101973Y-129293328D01*
X-44101973Y-129293328D02*
X-43816259Y-129293328D01*
X-43816259Y-129293328D02*
X-43673402Y-129364757D01*
X-43673402Y-129364757D02*
X-43601973Y-129507614D01*
X-43601973Y-129507614D02*
X-43601973Y-129650471D01*
X-43601973Y-129650471D02*
X-44316259Y-129793328D01*
X-42959117Y-130150471D02*
X-42887688Y-130221900D01*
X-42887688Y-130221900D02*
X-42959117Y-130293328D01*
X-42959117Y-130293328D02*
X-43030545Y-130221900D01*
X-43030545Y-130221900D02*
X-42959117Y-130150471D01*
X-42959117Y-130150471D02*
X-42959117Y-130293328D01*
X-42959117Y-129364757D02*
X-42887688Y-129436185D01*
X-42887688Y-129436185D02*
X-42959117Y-129507614D01*
X-42959117Y-129507614D02*
X-43030545Y-129436185D01*
X-43030545Y-129436185D02*
X-42959117Y-129364757D01*
X-42959117Y-129364757D02*
X-42959117Y-129507614D01*
X-41173402Y-129864757D02*
X-40459116Y-129864757D01*
X-41316259Y-130293328D02*
X-40816259Y-128793328D01*
X-40816259Y-128793328D02*
X-40316259Y-130293328D01*
X-39173402Y-129293328D02*
X-39173402Y-130293328D01*
X-39530545Y-128721900D02*
X-39887688Y-129793328D01*
X-39887688Y-129793328D02*
X-38959117Y-129793328D01*
D10*
D11*
X37398026Y-133093328D02*
X37398026Y-131593328D01*
X38755170Y-133093328D02*
X38755170Y-131593328D01*
X38755170Y-133021900D02*
X38612312Y-133093328D01*
X38612312Y-133093328D02*
X38326598Y-133093328D01*
X38326598Y-133093328D02*
X38183741Y-133021900D01*
X38183741Y-133021900D02*
X38112312Y-132950471D01*
X38112312Y-132950471D02*
X38040884Y-132807614D01*
X38040884Y-132807614D02*
X38040884Y-132379042D01*
X38040884Y-132379042D02*
X38112312Y-132236185D01*
X38112312Y-132236185D02*
X38183741Y-132164757D01*
X38183741Y-132164757D02*
X38326598Y-132093328D01*
X38326598Y-132093328D02*
X38612312Y-132093328D01*
X38612312Y-132093328D02*
X38755170Y-132164757D01*
X39469455Y-132950471D02*
X39540884Y-133021900D01*
X39540884Y-133021900D02*
X39469455Y-133093328D01*
X39469455Y-133093328D02*
X39398027Y-133021900D01*
X39398027Y-133021900D02*
X39469455Y-132950471D01*
X39469455Y-132950471D02*
X39469455Y-133093328D01*
X39469455Y-132164757D02*
X39540884Y-132236185D01*
X39540884Y-132236185D02*
X39469455Y-132307614D01*
X39469455Y-132307614D02*
X39398027Y-132236185D01*
X39398027Y-132236185D02*
X39469455Y-132164757D01*
X39469455Y-132164757D02*
X39469455Y-132307614D01*
X41969456Y-131593328D02*
X41683741Y-131593328D01*
X41683741Y-131593328D02*
X41540884Y-131664757D01*
X41540884Y-131664757D02*
X41469456Y-131736185D01*
X41469456Y-131736185D02*
X41326598Y-131950471D01*
X41326598Y-131950471D02*
X41255170Y-132236185D01*
X41255170Y-132236185D02*
X41255170Y-132807614D01*
X41255170Y-132807614D02*
X41326598Y-132950471D01*
X41326598Y-132950471D02*
X41398027Y-133021900D01*
X41398027Y-133021900D02*
X41540884Y-133093328D01*
X41540884Y-133093328D02*
X41826598Y-133093328D01*
X41826598Y-133093328D02*
X41969456Y-133021900D01*
X41969456Y-133021900D02*
X42040884Y-132950471D01*
X42040884Y-132950471D02*
X42112313Y-132807614D01*
X42112313Y-132807614D02*
X42112313Y-132450471D01*
X42112313Y-132450471D02*
X42040884Y-132307614D01*
X42040884Y-132307614D02*
X41969456Y-132236185D01*
X41969456Y-132236185D02*
X41826598Y-132164757D01*
X41826598Y-132164757D02*
X41540884Y-132164757D01*
X41540884Y-132164757D02*
X41398027Y-132236185D01*
X41398027Y-132236185D02*
X41326598Y-132307614D01*
X41326598Y-132307614D02*
X41255170Y-132450471D01*
X43826598Y-131521900D02*
X42540884Y-133450471D01*
X45112313Y-133093328D02*
X44255170Y-133093328D01*
X44683741Y-133093328D02*
X44683741Y-131593328D01*
X44683741Y-131593328D02*
X44540884Y-131807614D01*
X44540884Y-131807614D02*
X44398027Y-131950471D01*
X44398027Y-131950471D02*
X44255170Y-132021900D01*
X45683741Y-131736185D02*
X45755169Y-131664757D01*
X45755169Y-131664757D02*
X45898027Y-131593328D01*
X45898027Y-131593328D02*
X46255169Y-131593328D01*
X46255169Y-131593328D02*
X46398027Y-131664757D01*
X46398027Y-131664757D02*
X46469455Y-131736185D01*
X46469455Y-131736185D02*
X46540884Y-131879042D01*
X46540884Y-131879042D02*
X46540884Y-132021900D01*
X46540884Y-132021900D02*
X46469455Y-132236185D01*
X46469455Y-132236185D02*
X45612312Y-133093328D01*
X45612312Y-133093328D02*
X46540884Y-133093328D01*
D10*
D11*
X-49057800Y-124007200D02*
X58942200Y-124007200D01*
D10*
D13*
X-47366072Y-124711638D02*
X-46223215Y-124711638D01*
X-47044643Y-126711638D02*
X-46794643Y-124711638D01*
X-45806548Y-126711638D02*
X-45639881Y-125378304D01*
X-45556548Y-124711638D02*
X-45663691Y-124806876D01*
X-45663691Y-124806876D02*
X-45580357Y-124902114D01*
X-45580357Y-124902114D02*
X-45473214Y-124806876D01*
X-45473214Y-124806876D02*
X-45556548Y-124711638D01*
X-45556548Y-124711638D02*
X-45580357Y-124902114D01*
X-44973214Y-125378304D02*
X-44211310Y-125378304D01*
X-44604167Y-124711638D02*
X-44818452Y-126425923D01*
X-44818452Y-126425923D02*
X-44747024Y-126616400D01*
X-44747024Y-126616400D02*
X-44568452Y-126711638D01*
X-44568452Y-126711638D02*
X-44377976Y-126711638D01*
X-43425595Y-126711638D02*
X-43604167Y-126616400D01*
X-43604167Y-126616400D02*
X-43675595Y-126425923D01*
X-43675595Y-126425923D02*
X-43461310Y-124711638D01*
X-41889881Y-126616400D02*
X-42092262Y-126711638D01*
X-42092262Y-126711638D02*
X-42473215Y-126711638D01*
X-42473215Y-126711638D02*
X-42651786Y-126616400D01*
X-42651786Y-126616400D02*
X-42723215Y-126425923D01*
X-42723215Y-126425923D02*
X-42627976Y-125664019D01*
X-42627976Y-125664019D02*
X-42508929Y-125473542D01*
X-42508929Y-125473542D02*
X-42306548Y-125378304D01*
X-42306548Y-125378304D02*
X-41925596Y-125378304D01*
X-41925596Y-125378304D02*
X-41747024Y-125473542D01*
X-41747024Y-125473542D02*
X-41675596Y-125664019D01*
X-41675596Y-125664019D02*
X-41699405Y-125854495D01*
X-41699405Y-125854495D02*
X-42675596Y-126044971D01*
X-40925595Y-126521161D02*
X-40842262Y-126616400D01*
X-40842262Y-126616400D02*
X-40949405Y-126711638D01*
X-40949405Y-126711638D02*
X-41032738Y-126616400D01*
X-41032738Y-126616400D02*
X-40925595Y-126521161D01*
X-40925595Y-126521161D02*
X-40949405Y-126711638D01*
X-40794643Y-125473542D02*
X-40711310Y-125568780D01*
X-40711310Y-125568780D02*
X-40818452Y-125664019D01*
X-40818452Y-125664019D02*
X-40901786Y-125568780D01*
X-40901786Y-125568780D02*
X-40794643Y-125473542D01*
X-40794643Y-125473542D02*
X-40818452Y-125664019D01*
X-38473214Y-126711638D02*
X-38223214Y-124711638D01*
X-38342261Y-125664019D02*
X-37199404Y-125664019D01*
X-37330357Y-126711638D02*
X-37080357Y-124711638D01*
X-36377976Y-126711638D02*
X-36127976Y-124711638D01*
X-36127976Y-124711638D02*
X-35651785Y-124711638D01*
X-35651785Y-124711638D02*
X-35377976Y-124806876D01*
X-35377976Y-124806876D02*
X-35211309Y-124997352D01*
X-35211309Y-124997352D02*
X-35139881Y-125187828D01*
X-35139881Y-125187828D02*
X-35092261Y-125568780D01*
X-35092261Y-125568780D02*
X-35127976Y-125854495D01*
X-35127976Y-125854495D02*
X-35270833Y-126235447D01*
X-35270833Y-126235447D02*
X-35389881Y-126425923D01*
X-35389881Y-126425923D02*
X-35604166Y-126616400D01*
X-35604166Y-126616400D02*
X-35901785Y-126711638D01*
X-35901785Y-126711638D02*
X-36377976Y-126711638D01*
X-34282738Y-125949733D02*
X-32758928Y-125949733D01*
X-30794643Y-124711638D02*
X-31175595Y-124711638D01*
X-31175595Y-124711638D02*
X-31377976Y-124806876D01*
X-31377976Y-124806876D02*
X-31485119Y-124902114D01*
X-31485119Y-124902114D02*
X-31711310Y-125187828D01*
X-31711310Y-125187828D02*
X-31854167Y-125568780D01*
X-31854167Y-125568780D02*
X-31949405Y-126330685D01*
X-31949405Y-126330685D02*
X-31877976Y-126521161D01*
X-31877976Y-126521161D02*
X-31794643Y-126616400D01*
X-31794643Y-126616400D02*
X-31616071Y-126711638D01*
X-31616071Y-126711638D02*
X-31235119Y-126711638D01*
X-31235119Y-126711638D02*
X-31032738Y-126616400D01*
X-31032738Y-126616400D02*
X-30925595Y-126521161D01*
X-30925595Y-126521161D02*
X-30806548Y-126330685D01*
X-30806548Y-126330685D02*
X-30747024Y-125854495D01*
X-30747024Y-125854495D02*
X-30818452Y-125664019D01*
X-30818452Y-125664019D02*
X-30901786Y-125568780D01*
X-30901786Y-125568780D02*
X-31080357Y-125473542D01*
X-31080357Y-125473542D02*
X-31461310Y-125473542D01*
X-31461310Y-125473542D02*
X-31663691Y-125568780D01*
X-31663691Y-125568780D02*
X-31770833Y-125664019D01*
X-31770833Y-125664019D02*
X-31889881Y-125854495D01*
X-28973214Y-125378304D02*
X-29139881Y-126711638D01*
X-29354167Y-124616400D02*
X-30008929Y-126044971D01*
X-30008929Y-126044971D02*
X-28770833Y-126044971D01*
X-27235119Y-126711638D02*
X-27104167Y-125664019D01*
X-27104167Y-125664019D02*
X-27175595Y-125473542D01*
X-27175595Y-125473542D02*
X-27354167Y-125378304D01*
X-27354167Y-125378304D02*
X-27735119Y-125378304D01*
X-27735119Y-125378304D02*
X-27937500Y-125473542D01*
X-27223214Y-126616400D02*
X-27425595Y-126711638D01*
X-27425595Y-126711638D02*
X-27901786Y-126711638D01*
X-27901786Y-126711638D02*
X-28080357Y-126616400D01*
X-28080357Y-126616400D02*
X-28151786Y-126425923D01*
X-28151786Y-126425923D02*
X-28127976Y-126235447D01*
X-28127976Y-126235447D02*
X-28008928Y-126044971D01*
X-28008928Y-126044971D02*
X-27806547Y-125949733D01*
X-27806547Y-125949733D02*
X-27330357Y-125949733D01*
X-27330357Y-125949733D02*
X-27127976Y-125854495D01*
D10*
D11*
X-47101974Y-122107614D02*
X-47601974Y-122107614D01*
X-47601974Y-122893328D02*
X-47601974Y-121393328D01*
X-47601974Y-121393328D02*
X-46887688Y-121393328D01*
X-46316260Y-122893328D02*
X-46316260Y-121893328D01*
X-46316260Y-121393328D02*
X-46387688Y-121464757D01*
X-46387688Y-121464757D02*
X-46316260Y-121536185D01*
X-46316260Y-121536185D02*
X-46244831Y-121464757D01*
X-46244831Y-121464757D02*
X-46316260Y-121393328D01*
X-46316260Y-121393328D02*
X-46316260Y-121536185D01*
X-45387688Y-122893328D02*
X-45530545Y-122821900D01*
X-45530545Y-122821900D02*
X-45601974Y-122679042D01*
X-45601974Y-122679042D02*
X-45601974Y-121393328D01*
X-44244831Y-122821900D02*
X-44387688Y-122893328D01*
X-44387688Y-122893328D02*
X-44673402Y-122893328D01*
X-44673402Y-122893328D02*
X-44816260Y-122821900D01*
X-44816260Y-122821900D02*
X-44887688Y-122679042D01*
X-44887688Y-122679042D02*
X-44887688Y-122107614D01*
X-44887688Y-122107614D02*
X-44816260Y-121964757D01*
X-44816260Y-121964757D02*
X-44673402Y-121893328D01*
X-44673402Y-121893328D02*
X-44387688Y-121893328D01*
X-44387688Y-121893328D02*
X-44244831Y-121964757D01*
X-44244831Y-121964757D02*
X-44173402Y-122107614D01*
X-44173402Y-122107614D02*
X-44173402Y-122250471D01*
X-44173402Y-122250471D02*
X-44887688Y-122393328D01*
X-43530546Y-122750471D02*
X-43459117Y-122821900D01*
X-43459117Y-122821900D02*
X-43530546Y-122893328D01*
X-43530546Y-122893328D02*
X-43601974Y-122821900D01*
X-43601974Y-122821900D02*
X-43530546Y-122750471D01*
X-43530546Y-122750471D02*
X-43530546Y-122893328D01*
X-43530546Y-121964757D02*
X-43459117Y-122036185D01*
X-43459117Y-122036185D02*
X-43530546Y-122107614D01*
X-43530546Y-122107614D02*
X-43601974Y-122036185D01*
X-43601974Y-122036185D02*
X-43530546Y-121964757D01*
X-43530546Y-121964757D02*
X-43530546Y-122107614D01*
X-41673403Y-122893328D02*
X-41673403Y-121393328D01*
X-41030545Y-122893328D02*
X-41030545Y-122107614D01*
X-41030545Y-122107614D02*
X-41101974Y-121964757D01*
X-41101974Y-121964757D02*
X-41244831Y-121893328D01*
X-41244831Y-121893328D02*
X-41459117Y-121893328D01*
X-41459117Y-121893328D02*
X-41601974Y-121964757D01*
X-41601974Y-121964757D02*
X-41673403Y-122036185D01*
X-39673402Y-122893328D02*
X-39673402Y-121393328D01*
X-39673402Y-122821900D02*
X-39816260Y-122893328D01*
X-39816260Y-122893328D02*
X-40101974Y-122893328D01*
X-40101974Y-122893328D02*
X-40244831Y-122821900D01*
X-40244831Y-122821900D02*
X-40316260Y-122750471D01*
X-40316260Y-122750471D02*
X-40387688Y-122607614D01*
X-40387688Y-122607614D02*
X-40387688Y-122179042D01*
X-40387688Y-122179042D02*
X-40316260Y-122036185D01*
X-40316260Y-122036185D02*
X-40244831Y-121964757D01*
X-40244831Y-121964757D02*
X-40101974Y-121893328D01*
X-40101974Y-121893328D02*
X-39816260Y-121893328D01*
X-39816260Y-121893328D02*
X-39673402Y-121964757D01*
X-39316259Y-123036185D02*
X-38173402Y-123036185D01*
X-37173402Y-121393328D02*
X-37459117Y-121393328D01*
X-37459117Y-121393328D02*
X-37601974Y-121464757D01*
X-37601974Y-121464757D02*
X-37673402Y-121536185D01*
X-37673402Y-121536185D02*
X-37816260Y-121750471D01*
X-37816260Y-121750471D02*
X-37887688Y-122036185D01*
X-37887688Y-122036185D02*
X-37887688Y-122607614D01*
X-37887688Y-122607614D02*
X-37816260Y-122750471D01*
X-37816260Y-122750471D02*
X-37744831Y-122821900D01*
X-37744831Y-122821900D02*
X-37601974Y-122893328D01*
X-37601974Y-122893328D02*
X-37316260Y-122893328D01*
X-37316260Y-122893328D02*
X-37173402Y-122821900D01*
X-37173402Y-122821900D02*
X-37101974Y-122750471D01*
X-37101974Y-122750471D02*
X-37030545Y-122607614D01*
X-37030545Y-122607614D02*
X-37030545Y-122250471D01*
X-37030545Y-122250471D02*
X-37101974Y-122107614D01*
X-37101974Y-122107614D02*
X-37173402Y-122036185D01*
X-37173402Y-122036185D02*
X-37316260Y-121964757D01*
X-37316260Y-121964757D02*
X-37601974Y-121964757D01*
X-37601974Y-121964757D02*
X-37744831Y-122036185D01*
X-37744831Y-122036185D02*
X-37816260Y-122107614D01*
X-37816260Y-122107614D02*
X-37887688Y-122250471D01*
X-35744831Y-121893328D02*
X-35744831Y-122893328D01*
X-36101974Y-121321900D02*
X-36459117Y-122393328D01*
X-36459117Y-122393328D02*
X-35530546Y-122393328D01*
X-35316260Y-123036185D02*
X-34173403Y-123036185D01*
X-34030546Y-121893328D02*
X-33459118Y-121893328D01*
X-33816261Y-122893328D02*
X-33816261Y-121607614D01*
X-33816261Y-121607614D02*
X-33744832Y-121464757D01*
X-33744832Y-121464757D02*
X-33601975Y-121393328D01*
X-33601975Y-121393328D02*
X-33459118Y-121393328D01*
X-32744832Y-122893328D02*
X-32887689Y-122821900D01*
X-32887689Y-122821900D02*
X-32959118Y-122679042D01*
X-32959118Y-122679042D02*
X-32959118Y-121393328D01*
X-31601975Y-122821900D02*
X-31744832Y-122893328D01*
X-31744832Y-122893328D02*
X-32030546Y-122893328D01*
X-32030546Y-122893328D02*
X-32173404Y-122821900D01*
X-32173404Y-122821900D02*
X-32244832Y-122679042D01*
X-32244832Y-122679042D02*
X-32244832Y-122107614D01*
X-32244832Y-122107614D02*
X-32173404Y-121964757D01*
X-32173404Y-121964757D02*
X-32030546Y-121893328D01*
X-32030546Y-121893328D02*
X-31744832Y-121893328D01*
X-31744832Y-121893328D02*
X-31601975Y-121964757D01*
X-31601975Y-121964757D02*
X-31530546Y-122107614D01*
X-31530546Y-122107614D02*
X-31530546Y-122250471D01*
X-31530546Y-122250471D02*
X-32244832Y-122393328D01*
X-31030547Y-122893328D02*
X-30244832Y-121893328D01*
X-31030547Y-121893328D02*
X-30244832Y-122893328D01*
X-30030546Y-123036185D02*
X-28887689Y-123036185D01*
X-28530547Y-121893328D02*
X-28530547Y-123393328D01*
X-28530547Y-121964757D02*
X-28387689Y-121893328D01*
X-28387689Y-121893328D02*
X-28101975Y-121893328D01*
X-28101975Y-121893328D02*
X-27959118Y-121964757D01*
X-27959118Y-121964757D02*
X-27887689Y-122036185D01*
X-27887689Y-122036185D02*
X-27816261Y-122179042D01*
X-27816261Y-122179042D02*
X-27816261Y-122607614D01*
X-27816261Y-122607614D02*
X-27887689Y-122750471D01*
X-27887689Y-122750471D02*
X-27959118Y-122821900D01*
X-27959118Y-122821900D02*
X-28101975Y-122893328D01*
X-28101975Y-122893328D02*
X-28387689Y-122893328D01*
X-28387689Y-122893328D02*
X-28530547Y-122821900D01*
X-27173404Y-122893328D02*
X-27173404Y-121893328D01*
X-27173404Y-122179042D02*
X-27101975Y-122036185D01*
X-27101975Y-122036185D02*
X-27030546Y-121964757D01*
X-27030546Y-121964757D02*
X-26887689Y-121893328D01*
X-26887689Y-121893328D02*
X-26744832Y-121893328D01*
X-25673404Y-122821900D02*
X-25816261Y-122893328D01*
X-25816261Y-122893328D02*
X-26101975Y-122893328D01*
X-26101975Y-122893328D02*
X-26244833Y-122821900D01*
X-26244833Y-122821900D02*
X-26316261Y-122679042D01*
X-26316261Y-122679042D02*
X-26316261Y-122107614D01*
X-26316261Y-122107614D02*
X-26244833Y-121964757D01*
X-26244833Y-121964757D02*
X-26101975Y-121893328D01*
X-26101975Y-121893328D02*
X-25816261Y-121893328D01*
X-25816261Y-121893328D02*
X-25673404Y-121964757D01*
X-25673404Y-121964757D02*
X-25601975Y-122107614D01*
X-25601975Y-122107614D02*
X-25601975Y-122250471D01*
X-25601975Y-122250471D02*
X-26316261Y-122393328D01*
X-25030547Y-122821900D02*
X-24887690Y-122893328D01*
X-24887690Y-122893328D02*
X-24601976Y-122893328D01*
X-24601976Y-122893328D02*
X-24459119Y-122821900D01*
X-24459119Y-122821900D02*
X-24387690Y-122679042D01*
X-24387690Y-122679042D02*
X-24387690Y-122607614D01*
X-24387690Y-122607614D02*
X-24459119Y-122464757D01*
X-24459119Y-122464757D02*
X-24601976Y-122393328D01*
X-24601976Y-122393328D02*
X-24816261Y-122393328D01*
X-24816261Y-122393328D02*
X-24959119Y-122321900D01*
X-24959119Y-122321900D02*
X-25030547Y-122179042D01*
X-25030547Y-122179042D02*
X-25030547Y-122107614D01*
X-25030547Y-122107614D02*
X-24959119Y-121964757D01*
X-24959119Y-121964757D02*
X-24816261Y-121893328D01*
X-24816261Y-121893328D02*
X-24601976Y-121893328D01*
X-24601976Y-121893328D02*
X-24459119Y-121964757D01*
X-23816261Y-122821900D02*
X-23673404Y-122893328D01*
X-23673404Y-122893328D02*
X-23387690Y-122893328D01*
X-23387690Y-122893328D02*
X-23244833Y-122821900D01*
X-23244833Y-122821900D02*
X-23173404Y-122679042D01*
X-23173404Y-122679042D02*
X-23173404Y-122607614D01*
X-23173404Y-122607614D02*
X-23244833Y-122464757D01*
X-23244833Y-122464757D02*
X-23387690Y-122393328D01*
X-23387690Y-122393328D02*
X-23601975Y-122393328D01*
X-23601975Y-122393328D02*
X-23744833Y-122321900D01*
X-23744833Y-122321900D02*
X-23816261Y-122179042D01*
X-23816261Y-122179042D02*
X-23816261Y-122107614D01*
X-23816261Y-122107614D02*
X-23744833Y-121964757D01*
X-23744833Y-121964757D02*
X-23601975Y-121893328D01*
X-23601975Y-121893328D02*
X-23387690Y-121893328D01*
X-23387690Y-121893328D02*
X-23244833Y-121964757D01*
X-22887689Y-123036185D02*
X-21744832Y-123036185D01*
X-21530547Y-121893328D02*
X-21173404Y-122893328D01*
X-21173404Y-122893328D02*
X-20816261Y-121893328D01*
X-19459118Y-122893328D02*
X-20316261Y-122893328D01*
X-19887690Y-122893328D02*
X-19887690Y-121393328D01*
X-19887690Y-121393328D02*
X-20030547Y-121607614D01*
X-20030547Y-121607614D02*
X-20173404Y-121750471D01*
X-20173404Y-121750471D02*
X-20316261Y-121821900D01*
X-18816262Y-122750471D02*
X-18744833Y-122821900D01*
X-18744833Y-122821900D02*
X-18816262Y-122893328D01*
X-18816262Y-122893328D02*
X-18887690Y-122821900D01*
X-18887690Y-122821900D02*
X-18816262Y-122750471D01*
X-18816262Y-122750471D02*
X-18816262Y-122893328D01*
X-18101976Y-122893328D02*
X-18101976Y-121393328D01*
X-17959118Y-122321900D02*
X-17530547Y-122893328D01*
X-17530547Y-121893328D02*
X-18101976Y-122464757D01*
X-16887690Y-122893328D02*
X-16887690Y-121893328D01*
X-16887690Y-121393328D02*
X-16959118Y-121464757D01*
X-16959118Y-121464757D02*
X-16887690Y-121536185D01*
X-16887690Y-121536185D02*
X-16816261Y-121464757D01*
X-16816261Y-121464757D02*
X-16887690Y-121393328D01*
X-16887690Y-121393328D02*
X-16887690Y-121536185D01*
X-15530546Y-122821900D02*
X-15673404Y-122893328D01*
X-15673404Y-122893328D02*
X-15959118Y-122893328D01*
X-15959118Y-122893328D02*
X-16101975Y-122821900D01*
X-16101975Y-122821900D02*
X-16173404Y-122750471D01*
X-16173404Y-122750471D02*
X-16244832Y-122607614D01*
X-16244832Y-122607614D02*
X-16244832Y-122179042D01*
X-16244832Y-122179042D02*
X-16173404Y-122036185D01*
X-16173404Y-122036185D02*
X-16101975Y-121964757D01*
X-16101975Y-121964757D02*
X-15959118Y-121893328D01*
X-15959118Y-121893328D02*
X-15673404Y-121893328D01*
X-15673404Y-121893328D02*
X-15530546Y-121964757D01*
X-14244832Y-122893328D02*
X-14244832Y-122107614D01*
X-14244832Y-122107614D02*
X-14316261Y-121964757D01*
X-14316261Y-121964757D02*
X-14459118Y-121893328D01*
X-14459118Y-121893328D02*
X-14744832Y-121893328D01*
X-14744832Y-121893328D02*
X-14887690Y-121964757D01*
X-14244832Y-122821900D02*
X-14387690Y-122893328D01*
X-14387690Y-122893328D02*
X-14744832Y-122893328D01*
X-14744832Y-122893328D02*
X-14887690Y-122821900D01*
X-14887690Y-122821900D02*
X-14959118Y-122679042D01*
X-14959118Y-122679042D02*
X-14959118Y-122536185D01*
X-14959118Y-122536185D02*
X-14887690Y-122393328D01*
X-14887690Y-122393328D02*
X-14744832Y-122321900D01*
X-14744832Y-122321900D02*
X-14387690Y-122321900D01*
X-14387690Y-122321900D02*
X-14244832Y-122250471D01*
X-12887689Y-122893328D02*
X-12887689Y-121393328D01*
X-12887689Y-122821900D02*
X-13030547Y-122893328D01*
X-13030547Y-122893328D02*
X-13316261Y-122893328D01*
X-13316261Y-122893328D02*
X-13459118Y-122821900D01*
X-13459118Y-122821900D02*
X-13530547Y-122750471D01*
X-13530547Y-122750471D02*
X-13601975Y-122607614D01*
X-13601975Y-122607614D02*
X-13601975Y-122179042D01*
X-13601975Y-122179042D02*
X-13530547Y-122036185D01*
X-13530547Y-122036185D02*
X-13459118Y-121964757D01*
X-13459118Y-121964757D02*
X-13316261Y-121893328D01*
X-13316261Y-121893328D02*
X-13030547Y-121893328D01*
X-13030547Y-121893328D02*
X-12887689Y-121964757D01*
X-12530546Y-123036185D02*
X-11387689Y-123036185D01*
X-11030547Y-121893328D02*
X-11030547Y-123393328D01*
X-11030547Y-121964757D02*
X-10887689Y-121893328D01*
X-10887689Y-121893328D02*
X-10601975Y-121893328D01*
X-10601975Y-121893328D02*
X-10459118Y-121964757D01*
X-10459118Y-121964757D02*
X-10387689Y-122036185D01*
X-10387689Y-122036185D02*
X-10316261Y-122179042D01*
X-10316261Y-122179042D02*
X-10316261Y-122607614D01*
X-10316261Y-122607614D02*
X-10387689Y-122750471D01*
X-10387689Y-122750471D02*
X-10459118Y-122821900D01*
X-10459118Y-122821900D02*
X-10601975Y-122893328D01*
X-10601975Y-122893328D02*
X-10887689Y-122893328D01*
X-10887689Y-122893328D02*
X-11030547Y-122821900D01*
X-9030546Y-122821900D02*
X-9173404Y-122893328D01*
X-9173404Y-122893328D02*
X-9459118Y-122893328D01*
X-9459118Y-122893328D02*
X-9601975Y-122821900D01*
X-9601975Y-122821900D02*
X-9673404Y-122750471D01*
X-9673404Y-122750471D02*
X-9744832Y-122607614D01*
X-9744832Y-122607614D02*
X-9744832Y-122179042D01*
X-9744832Y-122179042D02*
X-9673404Y-122036185D01*
X-9673404Y-122036185D02*
X-9601975Y-121964757D01*
X-9601975Y-121964757D02*
X-9459118Y-121893328D01*
X-9459118Y-121893328D02*
X-9173404Y-121893328D01*
X-9173404Y-121893328D02*
X-9030546Y-121964757D01*
X-8387690Y-122893328D02*
X-8387690Y-121393328D01*
X-8387690Y-121964757D02*
X-8244832Y-121893328D01*
X-8244832Y-121893328D02*
X-7959118Y-121893328D01*
X-7959118Y-121893328D02*
X-7816261Y-121964757D01*
X-7816261Y-121964757D02*
X-7744832Y-122036185D01*
X-7744832Y-122036185D02*
X-7673404Y-122179042D01*
X-7673404Y-122179042D02*
X-7673404Y-122607614D01*
X-7673404Y-122607614D02*
X-7744832Y-122750471D01*
X-7744832Y-122750471D02*
X-7816261Y-122821900D01*
X-7816261Y-122821900D02*
X-7959118Y-122893328D01*
X-7959118Y-122893328D02*
X-8244832Y-122893328D01*
X-8244832Y-122893328D02*
X-8387690Y-122821900D01*
D10*
D11*
X-49057800Y-118007200D02*
X58942200Y-118007200D01*
D10*
D11*
X-47673402Y-120121900D02*
X-47459116Y-120193328D01*
X-47459116Y-120193328D02*
X-47101974Y-120193328D01*
X-47101974Y-120193328D02*
X-46959116Y-120121900D01*
X-46959116Y-120121900D02*
X-46887688Y-120050471D01*
X-46887688Y-120050471D02*
X-46816259Y-119907614D01*
X-46816259Y-119907614D02*
X-46816259Y-119764757D01*
X-46816259Y-119764757D02*
X-46887688Y-119621900D01*
X-46887688Y-119621900D02*
X-46959116Y-119550471D01*
X-46959116Y-119550471D02*
X-47101974Y-119479042D01*
X-47101974Y-119479042D02*
X-47387688Y-119407614D01*
X-47387688Y-119407614D02*
X-47530545Y-119336185D01*
X-47530545Y-119336185D02*
X-47601974Y-119264757D01*
X-47601974Y-119264757D02*
X-47673402Y-119121900D01*
X-47673402Y-119121900D02*
X-47673402Y-118979042D01*
X-47673402Y-118979042D02*
X-47601974Y-118836185D01*
X-47601974Y-118836185D02*
X-47530545Y-118764757D01*
X-47530545Y-118764757D02*
X-47387688Y-118693328D01*
X-47387688Y-118693328D02*
X-47030545Y-118693328D01*
X-47030545Y-118693328D02*
X-46816259Y-118764757D01*
X-46173403Y-120193328D02*
X-46173403Y-118693328D01*
X-45530545Y-120193328D02*
X-45530545Y-119407614D01*
X-45530545Y-119407614D02*
X-45601974Y-119264757D01*
X-45601974Y-119264757D02*
X-45744831Y-119193328D01*
X-45744831Y-119193328D02*
X-45959117Y-119193328D01*
X-45959117Y-119193328D02*
X-46101974Y-119264757D01*
X-46101974Y-119264757D02*
X-46173403Y-119336185D01*
X-44244831Y-120121900D02*
X-44387688Y-120193328D01*
X-44387688Y-120193328D02*
X-44673402Y-120193328D01*
X-44673402Y-120193328D02*
X-44816260Y-120121900D01*
X-44816260Y-120121900D02*
X-44887688Y-119979042D01*
X-44887688Y-119979042D02*
X-44887688Y-119407614D01*
X-44887688Y-119407614D02*
X-44816260Y-119264757D01*
X-44816260Y-119264757D02*
X-44673402Y-119193328D01*
X-44673402Y-119193328D02*
X-44387688Y-119193328D01*
X-44387688Y-119193328D02*
X-44244831Y-119264757D01*
X-44244831Y-119264757D02*
X-44173402Y-119407614D01*
X-44173402Y-119407614D02*
X-44173402Y-119550471D01*
X-44173402Y-119550471D02*
X-44887688Y-119693328D01*
X-42959117Y-120121900D02*
X-43101974Y-120193328D01*
X-43101974Y-120193328D02*
X-43387688Y-120193328D01*
X-43387688Y-120193328D02*
X-43530546Y-120121900D01*
X-43530546Y-120121900D02*
X-43601974Y-119979042D01*
X-43601974Y-119979042D02*
X-43601974Y-119407614D01*
X-43601974Y-119407614D02*
X-43530546Y-119264757D01*
X-43530546Y-119264757D02*
X-43387688Y-119193328D01*
X-43387688Y-119193328D02*
X-43101974Y-119193328D01*
X-43101974Y-119193328D02*
X-42959117Y-119264757D01*
X-42959117Y-119264757D02*
X-42887688Y-119407614D01*
X-42887688Y-119407614D02*
X-42887688Y-119550471D01*
X-42887688Y-119550471D02*
X-43601974Y-119693328D01*
X-42459117Y-119193328D02*
X-41887689Y-119193328D01*
X-42244832Y-118693328D02*
X-42244832Y-119979042D01*
X-42244832Y-119979042D02*
X-42173403Y-120121900D01*
X-42173403Y-120121900D02*
X-42030546Y-120193328D01*
X-42030546Y-120193328D02*
X-41887689Y-120193328D01*
X-41387689Y-120050471D02*
X-41316260Y-120121900D01*
X-41316260Y-120121900D02*
X-41387689Y-120193328D01*
X-41387689Y-120193328D02*
X-41459117Y-120121900D01*
X-41459117Y-120121900D02*
X-41387689Y-120050471D01*
X-41387689Y-120050471D02*
X-41387689Y-120193328D01*
X-41387689Y-119264757D02*
X-41316260Y-119336185D01*
X-41316260Y-119336185D02*
X-41387689Y-119407614D01*
X-41387689Y-119407614D02*
X-41459117Y-119336185D01*
X-41459117Y-119336185D02*
X-41387689Y-119264757D01*
X-41387689Y-119264757D02*
X-41387689Y-119407614D01*
D10*
D11*
X-47601974Y-114193328D02*
X-47601974Y-112693328D01*
X-46959116Y-114193328D02*
X-46959116Y-113407614D01*
X-46959116Y-113407614D02*
X-47030545Y-113264757D01*
X-47030545Y-113264757D02*
X-47173402Y-113193328D01*
X-47173402Y-113193328D02*
X-47387688Y-113193328D01*
X-47387688Y-113193328D02*
X-47530545Y-113264757D01*
X-47530545Y-113264757D02*
X-47601974Y-113336185D01*
X-46459116Y-113193328D02*
X-45887688Y-113193328D01*
X-46244831Y-112693328D02*
X-46244831Y-113979042D01*
X-46244831Y-113979042D02*
X-46173402Y-114121900D01*
X-46173402Y-114121900D02*
X-46030545Y-114193328D01*
X-46030545Y-114193328D02*
X-45887688Y-114193328D01*
X-45601973Y-113193328D02*
X-45030545Y-113193328D01*
X-45387688Y-112693328D02*
X-45387688Y-113979042D01*
X-45387688Y-113979042D02*
X-45316259Y-114121900D01*
X-45316259Y-114121900D02*
X-45173402Y-114193328D01*
X-45173402Y-114193328D02*
X-45030545Y-114193328D01*
X-44530545Y-113193328D02*
X-44530545Y-114693328D01*
X-44530545Y-113264757D02*
X-44387687Y-113193328D01*
X-44387687Y-113193328D02*
X-44101973Y-113193328D01*
X-44101973Y-113193328D02*
X-43959116Y-113264757D01*
X-43959116Y-113264757D02*
X-43887687Y-113336185D01*
X-43887687Y-113336185D02*
X-43816259Y-113479042D01*
X-43816259Y-113479042D02*
X-43816259Y-113907614D01*
X-43816259Y-113907614D02*
X-43887687Y-114050471D01*
X-43887687Y-114050471D02*
X-43959116Y-114121900D01*
X-43959116Y-114121900D02*
X-44101973Y-114193328D01*
X-44101973Y-114193328D02*
X-44387687Y-114193328D01*
X-44387687Y-114193328D02*
X-44530545Y-114121900D01*
X-43173402Y-114050471D02*
X-43101973Y-114121900D01*
X-43101973Y-114121900D02*
X-43173402Y-114193328D01*
X-43173402Y-114193328D02*
X-43244830Y-114121900D01*
X-43244830Y-114121900D02*
X-43173402Y-114050471D01*
X-43173402Y-114050471D02*
X-43173402Y-114193328D01*
X-43173402Y-113264757D02*
X-43101973Y-113336185D01*
X-43101973Y-113336185D02*
X-43173402Y-113407614D01*
X-43173402Y-113407614D02*
X-43244830Y-113336185D01*
X-43244830Y-113336185D02*
X-43173402Y-113264757D01*
X-43173402Y-113264757D02*
X-43173402Y-113407614D01*
X-41387687Y-112621900D02*
X-42673401Y-114550471D01*
X-39816258Y-112621900D02*
X-41101972Y-114550471D01*
X-38673400Y-114121900D02*
X-38816258Y-114193328D01*
X-38816258Y-114193328D02*
X-39101972Y-114193328D01*
X-39101972Y-114193328D02*
X-39244829Y-114121900D01*
X-39244829Y-114121900D02*
X-39316258Y-114050471D01*
X-39316258Y-114050471D02*
X-39387686Y-113907614D01*
X-39387686Y-113907614D02*
X-39387686Y-113479042D01*
X-39387686Y-113479042D02*
X-39316258Y-113336185D01*
X-39316258Y-113336185D02*
X-39244829Y-113264757D01*
X-39244829Y-113264757D02*
X-39101972Y-113193328D01*
X-39101972Y-113193328D02*
X-38816258Y-113193328D01*
X-38816258Y-113193328D02*
X-38673400Y-113264757D01*
X-38030544Y-114193328D02*
X-38030544Y-113193328D01*
X-38030544Y-113479042D02*
X-37959115Y-113336185D01*
X-37959115Y-113336185D02*
X-37887686Y-113264757D01*
X-37887686Y-113264757D02*
X-37744829Y-113193328D01*
X-37744829Y-113193328D02*
X-37601972Y-113193328D01*
X-36530544Y-114121900D02*
X-36673401Y-114193328D01*
X-36673401Y-114193328D02*
X-36959115Y-114193328D01*
X-36959115Y-114193328D02*
X-37101973Y-114121900D01*
X-37101973Y-114121900D02*
X-37173401Y-113979042D01*
X-37173401Y-113979042D02*
X-37173401Y-113407614D01*
X-37173401Y-113407614D02*
X-37101973Y-113264757D01*
X-37101973Y-113264757D02*
X-36959115Y-113193328D01*
X-36959115Y-113193328D02*
X-36673401Y-113193328D01*
X-36673401Y-113193328D02*
X-36530544Y-113264757D01*
X-36530544Y-113264757D02*
X-36459115Y-113407614D01*
X-36459115Y-113407614D02*
X-36459115Y-113550471D01*
X-36459115Y-113550471D02*
X-37173401Y-113693328D01*
X-35173401Y-114193328D02*
X-35173401Y-113407614D01*
X-35173401Y-113407614D02*
X-35244830Y-113264757D01*
X-35244830Y-113264757D02*
X-35387687Y-113193328D01*
X-35387687Y-113193328D02*
X-35673401Y-113193328D01*
X-35673401Y-113193328D02*
X-35816259Y-113264757D01*
X-35173401Y-114121900D02*
X-35316259Y-114193328D01*
X-35316259Y-114193328D02*
X-35673401Y-114193328D01*
X-35673401Y-114193328D02*
X-35816259Y-114121900D01*
X-35816259Y-114121900D02*
X-35887687Y-113979042D01*
X-35887687Y-113979042D02*
X-35887687Y-113836185D01*
X-35887687Y-113836185D02*
X-35816259Y-113693328D01*
X-35816259Y-113693328D02*
X-35673401Y-113621900D01*
X-35673401Y-113621900D02*
X-35316259Y-113621900D01*
X-35316259Y-113621900D02*
X-35173401Y-113550471D01*
X-34673401Y-113193328D02*
X-34101973Y-113193328D01*
X-34459116Y-112693328D02*
X-34459116Y-113979042D01*
X-34459116Y-113979042D02*
X-34387687Y-114121900D01*
X-34387687Y-114121900D02*
X-34244830Y-114193328D01*
X-34244830Y-114193328D02*
X-34101973Y-114193328D01*
X-33601973Y-114193328D02*
X-33601973Y-113193328D01*
X-33601973Y-112693328D02*
X-33673401Y-112764757D01*
X-33673401Y-112764757D02*
X-33601973Y-112836185D01*
X-33601973Y-112836185D02*
X-33530544Y-112764757D01*
X-33530544Y-112764757D02*
X-33601973Y-112693328D01*
X-33601973Y-112693328D02*
X-33601973Y-112836185D01*
X-33030544Y-113193328D02*
X-32673401Y-114193328D01*
X-32673401Y-114193328D02*
X-32316258Y-113193328D01*
X-31173401Y-114121900D02*
X-31316258Y-114193328D01*
X-31316258Y-114193328D02*
X-31601972Y-114193328D01*
X-31601972Y-114193328D02*
X-31744830Y-114121900D01*
X-31744830Y-114121900D02*
X-31816258Y-113979042D01*
X-31816258Y-113979042D02*
X-31816258Y-113407614D01*
X-31816258Y-113407614D02*
X-31744830Y-113264757D01*
X-31744830Y-113264757D02*
X-31601972Y-113193328D01*
X-31601972Y-113193328D02*
X-31316258Y-113193328D01*
X-31316258Y-113193328D02*
X-31173401Y-113264757D01*
X-31173401Y-113264757D02*
X-31101972Y-113407614D01*
X-31101972Y-113407614D02*
X-31101972Y-113550471D01*
X-31101972Y-113550471D02*
X-31816258Y-113693328D01*
X-29816258Y-114121900D02*
X-29959116Y-114193328D01*
X-29959116Y-114193328D02*
X-30244830Y-114193328D01*
X-30244830Y-114193328D02*
X-30387687Y-114121900D01*
X-30387687Y-114121900D02*
X-30459116Y-114050471D01*
X-30459116Y-114050471D02*
X-30530544Y-113907614D01*
X-30530544Y-113907614D02*
X-30530544Y-113479042D01*
X-30530544Y-113479042D02*
X-30459116Y-113336185D01*
X-30459116Y-113336185D02*
X-30387687Y-113264757D01*
X-30387687Y-113264757D02*
X-30244830Y-113193328D01*
X-30244830Y-113193328D02*
X-29959116Y-113193328D01*
X-29959116Y-113193328D02*
X-29816258Y-113264757D01*
X-28959116Y-114193328D02*
X-29101973Y-114121900D01*
X-29101973Y-114121900D02*
X-29173402Y-114050471D01*
X-29173402Y-114050471D02*
X-29244830Y-113907614D01*
X-29244830Y-113907614D02*
X-29244830Y-113479042D01*
X-29244830Y-113479042D02*
X-29173402Y-113336185D01*
X-29173402Y-113336185D02*
X-29101973Y-113264757D01*
X-29101973Y-113264757D02*
X-28959116Y-113193328D01*
X-28959116Y-113193328D02*
X-28744830Y-113193328D01*
X-28744830Y-113193328D02*
X-28601973Y-113264757D01*
X-28601973Y-113264757D02*
X-28530544Y-113336185D01*
X-28530544Y-113336185D02*
X-28459116Y-113479042D01*
X-28459116Y-113479042D02*
X-28459116Y-113907614D01*
X-28459116Y-113907614D02*
X-28530544Y-114050471D01*
X-28530544Y-114050471D02*
X-28601973Y-114121900D01*
X-28601973Y-114121900D02*
X-28744830Y-114193328D01*
X-28744830Y-114193328D02*
X-28959116Y-114193328D01*
X-27816259Y-114193328D02*
X-27816259Y-113193328D01*
X-27816259Y-113336185D02*
X-27744830Y-113264757D01*
X-27744830Y-113264757D02*
X-27601973Y-113193328D01*
X-27601973Y-113193328D02*
X-27387687Y-113193328D01*
X-27387687Y-113193328D02*
X-27244830Y-113264757D01*
X-27244830Y-113264757D02*
X-27173401Y-113407614D01*
X-27173401Y-113407614D02*
X-27173401Y-114193328D01*
X-27173401Y-113407614D02*
X-27101973Y-113264757D01*
X-27101973Y-113264757D02*
X-26959116Y-113193328D01*
X-26959116Y-113193328D02*
X-26744830Y-113193328D01*
X-26744830Y-113193328D02*
X-26601973Y-113264757D01*
X-26601973Y-113264757D02*
X-26530544Y-113407614D01*
X-26530544Y-113407614D02*
X-26530544Y-114193328D01*
X-25816259Y-114193328D02*
X-25816259Y-113193328D01*
X-25816259Y-113336185D02*
X-25744830Y-113264757D01*
X-25744830Y-113264757D02*
X-25601973Y-113193328D01*
X-25601973Y-113193328D02*
X-25387687Y-113193328D01*
X-25387687Y-113193328D02*
X-25244830Y-113264757D01*
X-25244830Y-113264757D02*
X-25173401Y-113407614D01*
X-25173401Y-113407614D02*
X-25173401Y-114193328D01*
X-25173401Y-113407614D02*
X-25101973Y-113264757D01*
X-25101973Y-113264757D02*
X-24959116Y-113193328D01*
X-24959116Y-113193328D02*
X-24744830Y-113193328D01*
X-24744830Y-113193328D02*
X-24601973Y-113264757D01*
X-24601973Y-113264757D02*
X-24530544Y-113407614D01*
X-24530544Y-113407614D02*
X-24530544Y-114193328D01*
X-23601973Y-114193328D02*
X-23744830Y-114121900D01*
X-23744830Y-114121900D02*
X-23816259Y-114050471D01*
X-23816259Y-114050471D02*
X-23887687Y-113907614D01*
X-23887687Y-113907614D02*
X-23887687Y-113479042D01*
X-23887687Y-113479042D02*
X-23816259Y-113336185D01*
X-23816259Y-113336185D02*
X-23744830Y-113264757D01*
X-23744830Y-113264757D02*
X-23601973Y-113193328D01*
X-23601973Y-113193328D02*
X-23387687Y-113193328D01*
X-23387687Y-113193328D02*
X-23244830Y-113264757D01*
X-23244830Y-113264757D02*
X-23173401Y-113336185D01*
X-23173401Y-113336185D02*
X-23101973Y-113479042D01*
X-23101973Y-113479042D02*
X-23101973Y-113907614D01*
X-23101973Y-113907614D02*
X-23173401Y-114050471D01*
X-23173401Y-114050471D02*
X-23244830Y-114121900D01*
X-23244830Y-114121900D02*
X-23387687Y-114193328D01*
X-23387687Y-114193328D02*
X-23601973Y-114193328D01*
X-22459116Y-113193328D02*
X-22459116Y-114193328D01*
X-22459116Y-113336185D02*
X-22387687Y-113264757D01*
X-22387687Y-113264757D02*
X-22244830Y-113193328D01*
X-22244830Y-113193328D02*
X-22030544Y-113193328D01*
X-22030544Y-113193328D02*
X-21887687Y-113264757D01*
X-21887687Y-113264757D02*
X-21816258Y-113407614D01*
X-21816258Y-113407614D02*
X-21816258Y-114193328D01*
X-21173401Y-114121900D02*
X-21030544Y-114193328D01*
X-21030544Y-114193328D02*
X-20744830Y-114193328D01*
X-20744830Y-114193328D02*
X-20601973Y-114121900D01*
X-20601973Y-114121900D02*
X-20530544Y-113979042D01*
X-20530544Y-113979042D02*
X-20530544Y-113907614D01*
X-20530544Y-113907614D02*
X-20601973Y-113764757D01*
X-20601973Y-113764757D02*
X-20744830Y-113693328D01*
X-20744830Y-113693328D02*
X-20959115Y-113693328D01*
X-20959115Y-113693328D02*
X-21101973Y-113621900D01*
X-21101973Y-113621900D02*
X-21173401Y-113479042D01*
X-21173401Y-113479042D02*
X-21173401Y-113407614D01*
X-21173401Y-113407614D02*
X-21101973Y-113264757D01*
X-21101973Y-113264757D02*
X-20959115Y-113193328D01*
X-20959115Y-113193328D02*
X-20744830Y-113193328D01*
X-20744830Y-113193328D02*
X-20601973Y-113264757D01*
X-19887687Y-114050471D02*
X-19816258Y-114121900D01*
X-19816258Y-114121900D02*
X-19887687Y-114193328D01*
X-19887687Y-114193328D02*
X-19959115Y-114121900D01*
X-19959115Y-114121900D02*
X-19887687Y-114050471D01*
X-19887687Y-114050471D02*
X-19887687Y-114193328D01*
X-18959115Y-114193328D02*
X-19101972Y-114121900D01*
X-19101972Y-114121900D02*
X-19173401Y-114050471D01*
X-19173401Y-114050471D02*
X-19244829Y-113907614D01*
X-19244829Y-113907614D02*
X-19244829Y-113479042D01*
X-19244829Y-113479042D02*
X-19173401Y-113336185D01*
X-19173401Y-113336185D02*
X-19101972Y-113264757D01*
X-19101972Y-113264757D02*
X-18959115Y-113193328D01*
X-18959115Y-113193328D02*
X-18744829Y-113193328D01*
X-18744829Y-113193328D02*
X-18601972Y-113264757D01*
X-18601972Y-113264757D02*
X-18530543Y-113336185D01*
X-18530543Y-113336185D02*
X-18459115Y-113479042D01*
X-18459115Y-113479042D02*
X-18459115Y-113907614D01*
X-18459115Y-113907614D02*
X-18530543Y-114050471D01*
X-18530543Y-114050471D02*
X-18601972Y-114121900D01*
X-18601972Y-114121900D02*
X-18744829Y-114193328D01*
X-18744829Y-114193328D02*
X-18959115Y-114193328D01*
X-17816258Y-114193328D02*
X-17816258Y-113193328D01*
X-17816258Y-113479042D02*
X-17744829Y-113336185D01*
X-17744829Y-113336185D02*
X-17673400Y-113264757D01*
X-17673400Y-113264757D02*
X-17530543Y-113193328D01*
X-17530543Y-113193328D02*
X-17387686Y-113193328D01*
X-16244829Y-113193328D02*
X-16244829Y-114407614D01*
X-16244829Y-114407614D02*
X-16316258Y-114550471D01*
X-16316258Y-114550471D02*
X-16387687Y-114621900D01*
X-16387687Y-114621900D02*
X-16530544Y-114693328D01*
X-16530544Y-114693328D02*
X-16744829Y-114693328D01*
X-16744829Y-114693328D02*
X-16887687Y-114621900D01*
X-16244829Y-114121900D02*
X-16387687Y-114193328D01*
X-16387687Y-114193328D02*
X-16673401Y-114193328D01*
X-16673401Y-114193328D02*
X-16816258Y-114121900D01*
X-16816258Y-114121900D02*
X-16887687Y-114050471D01*
X-16887687Y-114050471D02*
X-16959115Y-113907614D01*
X-16959115Y-113907614D02*
X-16959115Y-113479042D01*
X-16959115Y-113479042D02*
X-16887687Y-113336185D01*
X-16887687Y-113336185D02*
X-16816258Y-113264757D01*
X-16816258Y-113264757D02*
X-16673401Y-113193328D01*
X-16673401Y-113193328D02*
X-16387687Y-113193328D01*
X-16387687Y-113193328D02*
X-16244829Y-113264757D01*
X-14459115Y-112621900D02*
X-15744829Y-114550471D01*
X-13744829Y-114193328D02*
X-13887686Y-114121900D01*
X-13887686Y-114121900D02*
X-13959115Y-113979042D01*
X-13959115Y-113979042D02*
X-13959115Y-112693328D01*
X-13173401Y-114193328D02*
X-13173401Y-113193328D01*
X-13173401Y-112693328D02*
X-13244829Y-112764757D01*
X-13244829Y-112764757D02*
X-13173401Y-112836185D01*
X-13173401Y-112836185D02*
X-13101972Y-112764757D01*
X-13101972Y-112764757D02*
X-13173401Y-112693328D01*
X-13173401Y-112693328D02*
X-13173401Y-112836185D01*
X-11816257Y-114121900D02*
X-11959115Y-114193328D01*
X-11959115Y-114193328D02*
X-12244829Y-114193328D01*
X-12244829Y-114193328D02*
X-12387686Y-114121900D01*
X-12387686Y-114121900D02*
X-12459115Y-114050471D01*
X-12459115Y-114050471D02*
X-12530543Y-113907614D01*
X-12530543Y-113907614D02*
X-12530543Y-113479042D01*
X-12530543Y-113479042D02*
X-12459115Y-113336185D01*
X-12459115Y-113336185D02*
X-12387686Y-113264757D01*
X-12387686Y-113264757D02*
X-12244829Y-113193328D01*
X-12244829Y-113193328D02*
X-11959115Y-113193328D01*
X-11959115Y-113193328D02*
X-11816257Y-113264757D01*
X-10601972Y-114121900D02*
X-10744829Y-114193328D01*
X-10744829Y-114193328D02*
X-11030543Y-114193328D01*
X-11030543Y-114193328D02*
X-11173401Y-114121900D01*
X-11173401Y-114121900D02*
X-11244829Y-113979042D01*
X-11244829Y-113979042D02*
X-11244829Y-113407614D01*
X-11244829Y-113407614D02*
X-11173401Y-113264757D01*
X-11173401Y-113264757D02*
X-11030543Y-113193328D01*
X-11030543Y-113193328D02*
X-10744829Y-113193328D01*
X-10744829Y-113193328D02*
X-10601972Y-113264757D01*
X-10601972Y-113264757D02*
X-10530543Y-113407614D01*
X-10530543Y-113407614D02*
X-10530543Y-113550471D01*
X-10530543Y-113550471D02*
X-11244829Y-113693328D01*
X-9887687Y-113193328D02*
X-9887687Y-114193328D01*
X-9887687Y-113336185D02*
X-9816258Y-113264757D01*
X-9816258Y-113264757D02*
X-9673401Y-113193328D01*
X-9673401Y-113193328D02*
X-9459115Y-113193328D01*
X-9459115Y-113193328D02*
X-9316258Y-113264757D01*
X-9316258Y-113264757D02*
X-9244829Y-113407614D01*
X-9244829Y-113407614D02*
X-9244829Y-114193328D01*
X-8601972Y-114121900D02*
X-8459115Y-114193328D01*
X-8459115Y-114193328D02*
X-8173401Y-114193328D01*
X-8173401Y-114193328D02*
X-8030544Y-114121900D01*
X-8030544Y-114121900D02*
X-7959115Y-113979042D01*
X-7959115Y-113979042D02*
X-7959115Y-113907614D01*
X-7959115Y-113907614D02*
X-8030544Y-113764757D01*
X-8030544Y-113764757D02*
X-8173401Y-113693328D01*
X-8173401Y-113693328D02*
X-8387686Y-113693328D01*
X-8387686Y-113693328D02*
X-8530544Y-113621900D01*
X-8530544Y-113621900D02*
X-8601972Y-113479042D01*
X-8601972Y-113479042D02*
X-8601972Y-113407614D01*
X-8601972Y-113407614D02*
X-8530544Y-113264757D01*
X-8530544Y-113264757D02*
X-8387686Y-113193328D01*
X-8387686Y-113193328D02*
X-8173401Y-113193328D01*
X-8173401Y-113193328D02*
X-8030544Y-113264757D01*
X-6744829Y-114121900D02*
X-6887686Y-114193328D01*
X-6887686Y-114193328D02*
X-7173400Y-114193328D01*
X-7173400Y-114193328D02*
X-7316258Y-114121900D01*
X-7316258Y-114121900D02*
X-7387686Y-113979042D01*
X-7387686Y-113979042D02*
X-7387686Y-113407614D01*
X-7387686Y-113407614D02*
X-7316258Y-113264757D01*
X-7316258Y-113264757D02*
X-7173400Y-113193328D01*
X-7173400Y-113193328D02*
X-6887686Y-113193328D01*
X-6887686Y-113193328D02*
X-6744829Y-113264757D01*
X-6744829Y-113264757D02*
X-6673400Y-113407614D01*
X-6673400Y-113407614D02*
X-6673400Y-113550471D01*
X-6673400Y-113550471D02*
X-7387686Y-113693328D01*
X-6101972Y-114121900D02*
X-5959115Y-114193328D01*
X-5959115Y-114193328D02*
X-5673401Y-114193328D01*
X-5673401Y-114193328D02*
X-5530544Y-114121900D01*
X-5530544Y-114121900D02*
X-5459115Y-113979042D01*
X-5459115Y-113979042D02*
X-5459115Y-113907614D01*
X-5459115Y-113907614D02*
X-5530544Y-113764757D01*
X-5530544Y-113764757D02*
X-5673401Y-113693328D01*
X-5673401Y-113693328D02*
X-5887686Y-113693328D01*
X-5887686Y-113693328D02*
X-6030544Y-113621900D01*
X-6030544Y-113621900D02*
X-6101972Y-113479042D01*
X-6101972Y-113479042D02*
X-6101972Y-113407614D01*
X-6101972Y-113407614D02*
X-6030544Y-113264757D01*
X-6030544Y-113264757D02*
X-5887686Y-113193328D01*
X-5887686Y-113193328D02*
X-5673401Y-113193328D01*
X-5673401Y-113193328D02*
X-5530544Y-113264757D01*
X-3744829Y-112621900D02*
X-5030543Y-114550471D01*
X-3244829Y-114193328D02*
X-3244829Y-112693328D01*
X-3244829Y-113264757D02*
X-3101971Y-113193328D01*
X-3101971Y-113193328D02*
X-2816257Y-113193328D01*
X-2816257Y-113193328D02*
X-2673400Y-113264757D01*
X-2673400Y-113264757D02*
X-2601971Y-113336185D01*
X-2601971Y-113336185D02*
X-2530543Y-113479042D01*
X-2530543Y-113479042D02*
X-2530543Y-113907614D01*
X-2530543Y-113907614D02*
X-2601971Y-114050471D01*
X-2601971Y-114050471D02*
X-2673400Y-114121900D01*
X-2673400Y-114121900D02*
X-2816257Y-114193328D01*
X-2816257Y-114193328D02*
X-3101971Y-114193328D01*
X-3101971Y-114193328D02*
X-3244829Y-114121900D01*
X-2030543Y-113193328D02*
X-1673400Y-114193328D01*
X-1316257Y-113193328D02*
X-1673400Y-114193328D01*
X-1673400Y-114193328D02*
X-1816257Y-114550471D01*
X-1816257Y-114550471D02*
X-1887686Y-114621900D01*
X-1887686Y-114621900D02*
X-2030543Y-114693328D01*
X-744829Y-113621900D02*
X398029Y-113621900D01*
X1040886Y-114121900D02*
X1183743Y-114193328D01*
X1183743Y-114193328D02*
X1469457Y-114193328D01*
X1469457Y-114193328D02*
X1612314Y-114121900D01*
X1612314Y-114121900D02*
X1683743Y-113979042D01*
X1683743Y-113979042D02*
X1683743Y-113907614D01*
X1683743Y-113907614D02*
X1612314Y-113764757D01*
X1612314Y-113764757D02*
X1469457Y-113693328D01*
X1469457Y-113693328D02*
X1255172Y-113693328D01*
X1255172Y-113693328D02*
X1112314Y-113621900D01*
X1112314Y-113621900D02*
X1040886Y-113479042D01*
X1040886Y-113479042D02*
X1040886Y-113407614D01*
X1040886Y-113407614D02*
X1112314Y-113264757D01*
X1112314Y-113264757D02*
X1255172Y-113193328D01*
X1255172Y-113193328D02*
X1469457Y-113193328D01*
X1469457Y-113193328D02*
X1612314Y-113264757D01*
X2969458Y-114193328D02*
X2969458Y-113407614D01*
X2969458Y-113407614D02*
X2898029Y-113264757D01*
X2898029Y-113264757D02*
X2755172Y-113193328D01*
X2755172Y-113193328D02*
X2469458Y-113193328D01*
X2469458Y-113193328D02*
X2326600Y-113264757D01*
X2969458Y-114121900D02*
X2826600Y-114193328D01*
X2826600Y-114193328D02*
X2469458Y-114193328D01*
X2469458Y-114193328D02*
X2326600Y-114121900D01*
X2326600Y-114121900D02*
X2255172Y-113979042D01*
X2255172Y-113979042D02*
X2255172Y-113836185D01*
X2255172Y-113836185D02*
X2326600Y-113693328D01*
X2326600Y-113693328D02*
X2469458Y-113621900D01*
X2469458Y-113621900D02*
X2826600Y-113621900D01*
X2826600Y-113621900D02*
X2969458Y-113550471D01*
X4755172Y-112621900D02*
X3469458Y-114550471D01*
X5898030Y-113193328D02*
X5898030Y-114193328D01*
X5540887Y-112621900D02*
X5183744Y-113693328D01*
X5183744Y-113693328D02*
X6112315Y-113693328D01*
X6683743Y-114050471D02*
X6755172Y-114121900D01*
X6755172Y-114121900D02*
X6683743Y-114193328D01*
X6683743Y-114193328D02*
X6612315Y-114121900D01*
X6612315Y-114121900D02*
X6683743Y-114050471D01*
X6683743Y-114050471D02*
X6683743Y-114193328D01*
X7683744Y-112693328D02*
X7826601Y-112693328D01*
X7826601Y-112693328D02*
X7969458Y-112764757D01*
X7969458Y-112764757D02*
X8040887Y-112836185D01*
X8040887Y-112836185D02*
X8112315Y-112979042D01*
X8112315Y-112979042D02*
X8183744Y-113264757D01*
X8183744Y-113264757D02*
X8183744Y-113621900D01*
X8183744Y-113621900D02*
X8112315Y-113907614D01*
X8112315Y-113907614D02*
X8040887Y-114050471D01*
X8040887Y-114050471D02*
X7969458Y-114121900D01*
X7969458Y-114121900D02*
X7826601Y-114193328D01*
X7826601Y-114193328D02*
X7683744Y-114193328D01*
X7683744Y-114193328D02*
X7540887Y-114121900D01*
X7540887Y-114121900D02*
X7469458Y-114050471D01*
X7469458Y-114050471D02*
X7398029Y-113907614D01*
X7398029Y-113907614D02*
X7326601Y-113621900D01*
X7326601Y-113621900D02*
X7326601Y-113264757D01*
X7326601Y-113264757D02*
X7398029Y-112979042D01*
X7398029Y-112979042D02*
X7469458Y-112836185D01*
X7469458Y-112836185D02*
X7540887Y-112764757D01*
X7540887Y-112764757D02*
X7683744Y-112693328D01*
X9898029Y-112621900D02*
X8612315Y-114550471D01*
D10*
D11*
X-46744831Y-111050471D02*
X-46816259Y-111121900D01*
X-46816259Y-111121900D02*
X-47030545Y-111193328D01*
X-47030545Y-111193328D02*
X-47173402Y-111193328D01*
X-47173402Y-111193328D02*
X-47387688Y-111121900D01*
X-47387688Y-111121900D02*
X-47530545Y-110979042D01*
X-47530545Y-110979042D02*
X-47601974Y-110836185D01*
X-47601974Y-110836185D02*
X-47673402Y-110550471D01*
X-47673402Y-110550471D02*
X-47673402Y-110336185D01*
X-47673402Y-110336185D02*
X-47601974Y-110050471D01*
X-47601974Y-110050471D02*
X-47530545Y-109907614D01*
X-47530545Y-109907614D02*
X-47387688Y-109764757D01*
X-47387688Y-109764757D02*
X-47173402Y-109693328D01*
X-47173402Y-109693328D02*
X-47030545Y-109693328D01*
X-47030545Y-109693328D02*
X-46816259Y-109764757D01*
X-46816259Y-109764757D02*
X-46744831Y-109836185D01*
X-45244831Y-111050471D02*
X-45316259Y-111121900D01*
X-45316259Y-111121900D02*
X-45530545Y-111193328D01*
X-45530545Y-111193328D02*
X-45673402Y-111193328D01*
X-45673402Y-111193328D02*
X-45887688Y-111121900D01*
X-45887688Y-111121900D02*
X-46030545Y-110979042D01*
X-46030545Y-110979042D02*
X-46101974Y-110836185D01*
X-46101974Y-110836185D02*
X-46173402Y-110550471D01*
X-46173402Y-110550471D02*
X-46173402Y-110336185D01*
X-46173402Y-110336185D02*
X-46101974Y-110050471D01*
X-46101974Y-110050471D02*
X-46030545Y-109907614D01*
X-46030545Y-109907614D02*
X-45887688Y-109764757D01*
X-45887688Y-109764757D02*
X-45673402Y-109693328D01*
X-45673402Y-109693328D02*
X-45530545Y-109693328D01*
X-45530545Y-109693328D02*
X-45316259Y-109764757D01*
X-45316259Y-109764757D02*
X-45244831Y-109836185D01*
X-42959117Y-110407614D02*
X-42744831Y-110479042D01*
X-42744831Y-110479042D02*
X-42673402Y-110550471D01*
X-42673402Y-110550471D02*
X-42601974Y-110693328D01*
X-42601974Y-110693328D02*
X-42601974Y-110907614D01*
X-42601974Y-110907614D02*
X-42673402Y-111050471D01*
X-42673402Y-111050471D02*
X-42744831Y-111121900D01*
X-42744831Y-111121900D02*
X-42887688Y-111193328D01*
X-42887688Y-111193328D02*
X-43459117Y-111193328D01*
X-43459117Y-111193328D02*
X-43459117Y-109693328D01*
X-43459117Y-109693328D02*
X-42959117Y-109693328D01*
X-42959117Y-109693328D02*
X-42816259Y-109764757D01*
X-42816259Y-109764757D02*
X-42744831Y-109836185D01*
X-42744831Y-109836185D02*
X-42673402Y-109979042D01*
X-42673402Y-109979042D02*
X-42673402Y-110121900D01*
X-42673402Y-110121900D02*
X-42744831Y-110264757D01*
X-42744831Y-110264757D02*
X-42816259Y-110336185D01*
X-42816259Y-110336185D02*
X-42959117Y-110407614D01*
X-42959117Y-110407614D02*
X-43459117Y-110407614D01*
X-41673402Y-110479042D02*
X-41673402Y-111193328D01*
X-42173402Y-109693328D02*
X-41673402Y-110479042D01*
X-41673402Y-110479042D02*
X-41173402Y-109693328D01*
X-40673403Y-110621900D02*
X-39530545Y-110621900D01*
X-38887688Y-111121900D02*
X-38673402Y-111193328D01*
X-38673402Y-111193328D02*
X-38316260Y-111193328D01*
X-38316260Y-111193328D02*
X-38173402Y-111121900D01*
X-38173402Y-111121900D02*
X-38101974Y-111050471D01*
X-38101974Y-111050471D02*
X-38030545Y-110907614D01*
X-38030545Y-110907614D02*
X-38030545Y-110764757D01*
X-38030545Y-110764757D02*
X-38101974Y-110621900D01*
X-38101974Y-110621900D02*
X-38173402Y-110550471D01*
X-38173402Y-110550471D02*
X-38316260Y-110479042D01*
X-38316260Y-110479042D02*
X-38601974Y-110407614D01*
X-38601974Y-110407614D02*
X-38744831Y-110336185D01*
X-38744831Y-110336185D02*
X-38816260Y-110264757D01*
X-38816260Y-110264757D02*
X-38887688Y-110121900D01*
X-38887688Y-110121900D02*
X-38887688Y-109979042D01*
X-38887688Y-109979042D02*
X-38816260Y-109836185D01*
X-38816260Y-109836185D02*
X-38744831Y-109764757D01*
X-38744831Y-109764757D02*
X-38601974Y-109693328D01*
X-38601974Y-109693328D02*
X-38244831Y-109693328D01*
X-38244831Y-109693328D02*
X-38030545Y-109764757D01*
X-37459117Y-110764757D02*
X-36744831Y-110764757D01*
X-37601974Y-111193328D02*
X-37101974Y-109693328D01*
X-37101974Y-109693328D02*
X-36601974Y-111193328D01*
X-34316260Y-110193328D02*
X-34316260Y-111193328D01*
X-34673403Y-109621900D02*
X-35030546Y-110693328D01*
X-35030546Y-110693328D02*
X-34101975Y-110693328D01*
X-33530547Y-111050471D02*
X-33459118Y-111121900D01*
X-33459118Y-111121900D02*
X-33530547Y-111193328D01*
X-33530547Y-111193328D02*
X-33601975Y-111121900D01*
X-33601975Y-111121900D02*
X-33530547Y-111050471D01*
X-33530547Y-111050471D02*
X-33530547Y-111193328D01*
X-32530546Y-109693328D02*
X-32387689Y-109693328D01*
X-32387689Y-109693328D02*
X-32244832Y-109764757D01*
X-32244832Y-109764757D02*
X-32173403Y-109836185D01*
X-32173403Y-109836185D02*
X-32101975Y-109979042D01*
X-32101975Y-109979042D02*
X-32030546Y-110264757D01*
X-32030546Y-110264757D02*
X-32030546Y-110621900D01*
X-32030546Y-110621900D02*
X-32101975Y-110907614D01*
X-32101975Y-110907614D02*
X-32173403Y-111050471D01*
X-32173403Y-111050471D02*
X-32244832Y-111121900D01*
X-32244832Y-111121900D02*
X-32387689Y-111193328D01*
X-32387689Y-111193328D02*
X-32530546Y-111193328D01*
X-32530546Y-111193328D02*
X-32673403Y-111121900D01*
X-32673403Y-111121900D02*
X-32744832Y-111050471D01*
X-32744832Y-111050471D02*
X-32816261Y-110907614D01*
X-32816261Y-110907614D02*
X-32887689Y-110621900D01*
X-32887689Y-110621900D02*
X-32887689Y-110264757D01*
X-32887689Y-110264757D02*
X-32816261Y-109979042D01*
X-32816261Y-109979042D02*
X-32744832Y-109836185D01*
X-32744832Y-109836185D02*
X-32673403Y-109764757D01*
X-32673403Y-109764757D02*
X-32530546Y-109693328D01*
X-31387690Y-111050471D02*
X-31316261Y-111121900D01*
X-31316261Y-111121900D02*
X-31387690Y-111193328D01*
X-31387690Y-111193328D02*
X-31459118Y-111121900D01*
X-31459118Y-111121900D02*
X-31387690Y-111050471D01*
X-31387690Y-111050471D02*
X-31387690Y-111193328D01*
X-29744832Y-109693328D02*
X-28887689Y-109693328D01*
X-29316261Y-111193328D02*
X-29316261Y-109693328D01*
X-28173404Y-111193328D02*
X-28316261Y-111121900D01*
X-28316261Y-111121900D02*
X-28387690Y-111050471D01*
X-28387690Y-111050471D02*
X-28459118Y-110907614D01*
X-28459118Y-110907614D02*
X-28459118Y-110479042D01*
X-28459118Y-110479042D02*
X-28387690Y-110336185D01*
X-28387690Y-110336185D02*
X-28316261Y-110264757D01*
X-28316261Y-110264757D02*
X-28173404Y-110193328D01*
X-28173404Y-110193328D02*
X-27959118Y-110193328D01*
X-27959118Y-110193328D02*
X-27816261Y-110264757D01*
X-27816261Y-110264757D02*
X-27744832Y-110336185D01*
X-27744832Y-110336185D02*
X-27673404Y-110479042D01*
X-27673404Y-110479042D02*
X-27673404Y-110907614D01*
X-27673404Y-110907614D02*
X-27744832Y-111050471D01*
X-27744832Y-111050471D02*
X-27816261Y-111121900D01*
X-27816261Y-111121900D02*
X-27959118Y-111193328D01*
X-27959118Y-111193328D02*
X-28173404Y-111193328D01*
X-26030547Y-110193328D02*
X-25673404Y-111193328D01*
X-25673404Y-111193328D02*
X-25316261Y-110193328D01*
X-24744833Y-111193328D02*
X-24744833Y-110193328D01*
X-24744833Y-109693328D02*
X-24816261Y-109764757D01*
X-24816261Y-109764757D02*
X-24744833Y-109836185D01*
X-24744833Y-109836185D02*
X-24673404Y-109764757D01*
X-24673404Y-109764757D02*
X-24744833Y-109693328D01*
X-24744833Y-109693328D02*
X-24744833Y-109836185D01*
X-23459118Y-111121900D02*
X-23601975Y-111193328D01*
X-23601975Y-111193328D02*
X-23887689Y-111193328D01*
X-23887689Y-111193328D02*
X-24030547Y-111121900D01*
X-24030547Y-111121900D02*
X-24101975Y-110979042D01*
X-24101975Y-110979042D02*
X-24101975Y-110407614D01*
X-24101975Y-110407614D02*
X-24030547Y-110264757D01*
X-24030547Y-110264757D02*
X-23887689Y-110193328D01*
X-23887689Y-110193328D02*
X-23601975Y-110193328D01*
X-23601975Y-110193328D02*
X-23459118Y-110264757D01*
X-23459118Y-110264757D02*
X-23387689Y-110407614D01*
X-23387689Y-110407614D02*
X-23387689Y-110550471D01*
X-23387689Y-110550471D02*
X-24101975Y-110693328D01*
X-22887690Y-110193328D02*
X-22601975Y-111193328D01*
X-22601975Y-111193328D02*
X-22316261Y-110479042D01*
X-22316261Y-110479042D02*
X-22030547Y-111193328D01*
X-22030547Y-111193328D02*
X-21744833Y-110193328D01*
X-19387689Y-111193328D02*
X-19387689Y-110407614D01*
X-19387689Y-110407614D02*
X-19459118Y-110264757D01*
X-19459118Y-110264757D02*
X-19601975Y-110193328D01*
X-19601975Y-110193328D02*
X-19887689Y-110193328D01*
X-19887689Y-110193328D02*
X-20030547Y-110264757D01*
X-19387689Y-111121900D02*
X-19530547Y-111193328D01*
X-19530547Y-111193328D02*
X-19887689Y-111193328D01*
X-19887689Y-111193328D02*
X-20030547Y-111121900D01*
X-20030547Y-111121900D02*
X-20101975Y-110979042D01*
X-20101975Y-110979042D02*
X-20101975Y-110836185D01*
X-20101975Y-110836185D02*
X-20030547Y-110693328D01*
X-20030547Y-110693328D02*
X-19887689Y-110621900D01*
X-19887689Y-110621900D02*
X-19530547Y-110621900D01*
X-19530547Y-110621900D02*
X-19387689Y-110550471D01*
X-16887689Y-111121900D02*
X-17030547Y-111193328D01*
X-17030547Y-111193328D02*
X-17316261Y-111193328D01*
X-17316261Y-111193328D02*
X-17459118Y-111121900D01*
X-17459118Y-111121900D02*
X-17530547Y-111050471D01*
X-17530547Y-111050471D02*
X-17601975Y-110907614D01*
X-17601975Y-110907614D02*
X-17601975Y-110479042D01*
X-17601975Y-110479042D02*
X-17530547Y-110336185D01*
X-17530547Y-110336185D02*
X-17459118Y-110264757D01*
X-17459118Y-110264757D02*
X-17316261Y-110193328D01*
X-17316261Y-110193328D02*
X-17030547Y-110193328D01*
X-17030547Y-110193328D02*
X-16887689Y-110264757D01*
X-16030547Y-111193328D02*
X-16173404Y-111121900D01*
X-16173404Y-111121900D02*
X-16244833Y-111050471D01*
X-16244833Y-111050471D02*
X-16316261Y-110907614D01*
X-16316261Y-110907614D02*
X-16316261Y-110479042D01*
X-16316261Y-110479042D02*
X-16244833Y-110336185D01*
X-16244833Y-110336185D02*
X-16173404Y-110264757D01*
X-16173404Y-110264757D02*
X-16030547Y-110193328D01*
X-16030547Y-110193328D02*
X-15816261Y-110193328D01*
X-15816261Y-110193328D02*
X-15673404Y-110264757D01*
X-15673404Y-110264757D02*
X-15601975Y-110336185D01*
X-15601975Y-110336185D02*
X-15530547Y-110479042D01*
X-15530547Y-110479042D02*
X-15530547Y-110907614D01*
X-15530547Y-110907614D02*
X-15601975Y-111050471D01*
X-15601975Y-111050471D02*
X-15673404Y-111121900D01*
X-15673404Y-111121900D02*
X-15816261Y-111193328D01*
X-15816261Y-111193328D02*
X-16030547Y-111193328D01*
X-14887690Y-110193328D02*
X-14887690Y-111693328D01*
X-14887690Y-110264757D02*
X-14744832Y-110193328D01*
X-14744832Y-110193328D02*
X-14459118Y-110193328D01*
X-14459118Y-110193328D02*
X-14316261Y-110264757D01*
X-14316261Y-110264757D02*
X-14244832Y-110336185D01*
X-14244832Y-110336185D02*
X-14173404Y-110479042D01*
X-14173404Y-110479042D02*
X-14173404Y-110907614D01*
X-14173404Y-110907614D02*
X-14244832Y-111050471D01*
X-14244832Y-111050471D02*
X-14316261Y-111121900D01*
X-14316261Y-111121900D02*
X-14459118Y-111193328D01*
X-14459118Y-111193328D02*
X-14744832Y-111193328D01*
X-14744832Y-111193328D02*
X-14887690Y-111121900D01*
X-13673404Y-110193328D02*
X-13316261Y-111193328D01*
X-12959118Y-110193328D02*
X-13316261Y-111193328D01*
X-13316261Y-111193328D02*
X-13459118Y-111550471D01*
X-13459118Y-111550471D02*
X-13530547Y-111621900D01*
X-13530547Y-111621900D02*
X-13673404Y-111693328D01*
X-11030547Y-111193328D02*
X-11173404Y-111121900D01*
X-11173404Y-111121900D02*
X-11244833Y-111050471D01*
X-11244833Y-111050471D02*
X-11316261Y-110907614D01*
X-11316261Y-110907614D02*
X-11316261Y-110479042D01*
X-11316261Y-110479042D02*
X-11244833Y-110336185D01*
X-11244833Y-110336185D02*
X-11173404Y-110264757D01*
X-11173404Y-110264757D02*
X-11030547Y-110193328D01*
X-11030547Y-110193328D02*
X-10816261Y-110193328D01*
X-10816261Y-110193328D02*
X-10673404Y-110264757D01*
X-10673404Y-110264757D02*
X-10601975Y-110336185D01*
X-10601975Y-110336185D02*
X-10530547Y-110479042D01*
X-10530547Y-110479042D02*
X-10530547Y-110907614D01*
X-10530547Y-110907614D02*
X-10601975Y-111050471D01*
X-10601975Y-111050471D02*
X-10673404Y-111121900D01*
X-10673404Y-111121900D02*
X-10816261Y-111193328D01*
X-10816261Y-111193328D02*
X-11030547Y-111193328D01*
X-10101975Y-110193328D02*
X-9530547Y-110193328D01*
X-9887690Y-111193328D02*
X-9887690Y-109907614D01*
X-9887690Y-109907614D02*
X-9816261Y-109764757D01*
X-9816261Y-109764757D02*
X-9673404Y-109693328D01*
X-9673404Y-109693328D02*
X-9530547Y-109693328D01*
X-8101975Y-110193328D02*
X-7530547Y-110193328D01*
X-7887690Y-109693328D02*
X-7887690Y-110979042D01*
X-7887690Y-110979042D02*
X-7816261Y-111121900D01*
X-7816261Y-111121900D02*
X-7673404Y-111193328D01*
X-7673404Y-111193328D02*
X-7530547Y-111193328D01*
X-7030547Y-111193328D02*
X-7030547Y-109693328D01*
X-6387689Y-111193328D02*
X-6387689Y-110407614D01*
X-6387689Y-110407614D02*
X-6459118Y-110264757D01*
X-6459118Y-110264757D02*
X-6601975Y-110193328D01*
X-6601975Y-110193328D02*
X-6816261Y-110193328D01*
X-6816261Y-110193328D02*
X-6959118Y-110264757D01*
X-6959118Y-110264757D02*
X-7030547Y-110336185D01*
X-5673404Y-111193328D02*
X-5673404Y-110193328D01*
X-5673404Y-109693328D02*
X-5744832Y-109764757D01*
X-5744832Y-109764757D02*
X-5673404Y-109836185D01*
X-5673404Y-109836185D02*
X-5601975Y-109764757D01*
X-5601975Y-109764757D02*
X-5673404Y-109693328D01*
X-5673404Y-109693328D02*
X-5673404Y-109836185D01*
X-5030546Y-111121900D02*
X-4887689Y-111193328D01*
X-4887689Y-111193328D02*
X-4601975Y-111193328D01*
X-4601975Y-111193328D02*
X-4459118Y-111121900D01*
X-4459118Y-111121900D02*
X-4387689Y-110979042D01*
X-4387689Y-110979042D02*
X-4387689Y-110907614D01*
X-4387689Y-110907614D02*
X-4459118Y-110764757D01*
X-4459118Y-110764757D02*
X-4601975Y-110693328D01*
X-4601975Y-110693328D02*
X-4816260Y-110693328D01*
X-4816260Y-110693328D02*
X-4959118Y-110621900D01*
X-4959118Y-110621900D02*
X-5030546Y-110479042D01*
X-5030546Y-110479042D02*
X-5030546Y-110407614D01*
X-5030546Y-110407614D02*
X-4959118Y-110264757D01*
X-4959118Y-110264757D02*
X-4816260Y-110193328D01*
X-4816260Y-110193328D02*
X-4601975Y-110193328D01*
X-4601975Y-110193328D02*
X-4459118Y-110264757D01*
X-2387689Y-111193328D02*
X-2530546Y-111121900D01*
X-2530546Y-111121900D02*
X-2601975Y-110979042D01*
X-2601975Y-110979042D02*
X-2601975Y-109693328D01*
X-1816261Y-111193328D02*
X-1816261Y-110193328D01*
X-1816261Y-109693328D02*
X-1887689Y-109764757D01*
X-1887689Y-109764757D02*
X-1816261Y-109836185D01*
X-1816261Y-109836185D02*
X-1744832Y-109764757D01*
X-1744832Y-109764757D02*
X-1816261Y-109693328D01*
X-1816261Y-109693328D02*
X-1816261Y-109836185D01*
X-459117Y-111121900D02*
X-601975Y-111193328D01*
X-601975Y-111193328D02*
X-887689Y-111193328D01*
X-887689Y-111193328D02*
X-1030546Y-111121900D01*
X-1030546Y-111121900D02*
X-1101975Y-111050471D01*
X-1101975Y-111050471D02*
X-1173403Y-110907614D01*
X-1173403Y-110907614D02*
X-1173403Y-110479042D01*
X-1173403Y-110479042D02*
X-1101975Y-110336185D01*
X-1101975Y-110336185D02*
X-1030546Y-110264757D01*
X-1030546Y-110264757D02*
X-887689Y-110193328D01*
X-887689Y-110193328D02*
X-601975Y-110193328D01*
X-601975Y-110193328D02*
X-459117Y-110264757D01*
X755168Y-111121900D02*
X612311Y-111193328D01*
X612311Y-111193328D02*
X326597Y-111193328D01*
X326597Y-111193328D02*
X183739Y-111121900D01*
X183739Y-111121900D02*
X112311Y-110979042D01*
X112311Y-110979042D02*
X112311Y-110407614D01*
X112311Y-110407614D02*
X183739Y-110264757D01*
X183739Y-110264757D02*
X326597Y-110193328D01*
X326597Y-110193328D02*
X612311Y-110193328D01*
X612311Y-110193328D02*
X755168Y-110264757D01*
X755168Y-110264757D02*
X826597Y-110407614D01*
X826597Y-110407614D02*
X826597Y-110550471D01*
X826597Y-110550471D02*
X112311Y-110693328D01*
X1469453Y-110193328D02*
X1469453Y-111193328D01*
X1469453Y-110336185D02*
X1540882Y-110264757D01*
X1540882Y-110264757D02*
X1683739Y-110193328D01*
X1683739Y-110193328D02*
X1898025Y-110193328D01*
X1898025Y-110193328D02*
X2040882Y-110264757D01*
X2040882Y-110264757D02*
X2112311Y-110407614D01*
X2112311Y-110407614D02*
X2112311Y-111193328D01*
X2755168Y-111121900D02*
X2898025Y-111193328D01*
X2898025Y-111193328D02*
X3183739Y-111193328D01*
X3183739Y-111193328D02*
X3326596Y-111121900D01*
X3326596Y-111121900D02*
X3398025Y-110979042D01*
X3398025Y-110979042D02*
X3398025Y-110907614D01*
X3398025Y-110907614D02*
X3326596Y-110764757D01*
X3326596Y-110764757D02*
X3183739Y-110693328D01*
X3183739Y-110693328D02*
X2969454Y-110693328D01*
X2969454Y-110693328D02*
X2826596Y-110621900D01*
X2826596Y-110621900D02*
X2755168Y-110479042D01*
X2755168Y-110479042D02*
X2755168Y-110407614D01*
X2755168Y-110407614D02*
X2826596Y-110264757D01*
X2826596Y-110264757D02*
X2969454Y-110193328D01*
X2969454Y-110193328D02*
X3183739Y-110193328D01*
X3183739Y-110193328D02*
X3326596Y-110264757D01*
X4612311Y-111121900D02*
X4469454Y-111193328D01*
X4469454Y-111193328D02*
X4183740Y-111193328D01*
X4183740Y-111193328D02*
X4040882Y-111121900D01*
X4040882Y-111121900D02*
X3969454Y-110979042D01*
X3969454Y-110979042D02*
X3969454Y-110407614D01*
X3969454Y-110407614D02*
X4040882Y-110264757D01*
X4040882Y-110264757D02*
X4183740Y-110193328D01*
X4183740Y-110193328D02*
X4469454Y-110193328D01*
X4469454Y-110193328D02*
X4612311Y-110264757D01*
X4612311Y-110264757D02*
X4683740Y-110407614D01*
X4683740Y-110407614D02*
X4683740Y-110550471D01*
X4683740Y-110550471D02*
X3969454Y-110693328D01*
X5398025Y-111121900D02*
X5398025Y-111193328D01*
X5398025Y-111193328D02*
X5326596Y-111336185D01*
X5326596Y-111336185D02*
X5255168Y-111407614D01*
X7040882Y-110193328D02*
X7398025Y-111193328D01*
X7398025Y-111193328D02*
X7755168Y-110193328D01*
X8326596Y-111193328D02*
X8326596Y-110193328D01*
X8326596Y-109693328D02*
X8255168Y-109764757D01*
X8255168Y-109764757D02*
X8326596Y-109836185D01*
X8326596Y-109836185D02*
X8398025Y-109764757D01*
X8398025Y-109764757D02*
X8326596Y-109693328D01*
X8326596Y-109693328D02*
X8326596Y-109836185D01*
X8969454Y-111121900D02*
X9112311Y-111193328D01*
X9112311Y-111193328D02*
X9398025Y-111193328D01*
X9398025Y-111193328D02*
X9540882Y-111121900D01*
X9540882Y-111121900D02*
X9612311Y-110979042D01*
X9612311Y-110979042D02*
X9612311Y-110907614D01*
X9612311Y-110907614D02*
X9540882Y-110764757D01*
X9540882Y-110764757D02*
X9398025Y-110693328D01*
X9398025Y-110693328D02*
X9183740Y-110693328D01*
X9183740Y-110693328D02*
X9040882Y-110621900D01*
X9040882Y-110621900D02*
X8969454Y-110479042D01*
X8969454Y-110479042D02*
X8969454Y-110407614D01*
X8969454Y-110407614D02*
X9040882Y-110264757D01*
X9040882Y-110264757D02*
X9183740Y-110193328D01*
X9183740Y-110193328D02*
X9398025Y-110193328D01*
X9398025Y-110193328D02*
X9540882Y-110264757D01*
X10255168Y-111193328D02*
X10255168Y-110193328D01*
X10255168Y-109693328D02*
X10183740Y-109764757D01*
X10183740Y-109764757D02*
X10255168Y-109836185D01*
X10255168Y-109836185D02*
X10326597Y-109764757D01*
X10326597Y-109764757D02*
X10255168Y-109693328D01*
X10255168Y-109693328D02*
X10255168Y-109836185D01*
X10755169Y-110193328D02*
X11326597Y-110193328D01*
X10969454Y-109693328D02*
X10969454Y-110979042D01*
X10969454Y-110979042D02*
X11040883Y-111121900D01*
X11040883Y-111121900D02*
X11183740Y-111193328D01*
X11183740Y-111193328D02*
X11326597Y-111193328D01*
X11826597Y-111050471D02*
X11898026Y-111121900D01*
X11898026Y-111121900D02*
X11826597Y-111193328D01*
X11826597Y-111193328D02*
X11755169Y-111121900D01*
X11755169Y-111121900D02*
X11826597Y-111050471D01*
X11826597Y-111050471D02*
X11826597Y-111193328D01*
X11826597Y-110264757D02*
X11898026Y-110336185D01*
X11898026Y-110336185D02*
X11826597Y-110407614D01*
X11826597Y-110407614D02*
X11755169Y-110336185D01*
X11755169Y-110336185D02*
X11826597Y-110264757D01*
X11826597Y-110264757D02*
X11826597Y-110407614D01*
D10*
D11*
X-47601974Y-108193328D02*
X-47601974Y-106693328D01*
X-47601974Y-107407614D02*
X-46744831Y-107407614D01*
X-46744831Y-108193328D02*
X-46744831Y-106693328D01*
X-46030545Y-108193328D02*
X-46030545Y-106693328D01*
X-46030545Y-106693328D02*
X-45673402Y-106693328D01*
X-45673402Y-106693328D02*
X-45459116Y-106764757D01*
X-45459116Y-106764757D02*
X-45316259Y-106907614D01*
X-45316259Y-106907614D02*
X-45244830Y-107050471D01*
X-45244830Y-107050471D02*
X-45173402Y-107336185D01*
X-45173402Y-107336185D02*
X-45173402Y-107550471D01*
X-45173402Y-107550471D02*
X-45244830Y-107836185D01*
X-45244830Y-107836185D02*
X-45316259Y-107979042D01*
X-45316259Y-107979042D02*
X-45459116Y-108121900D01*
X-45459116Y-108121900D02*
X-45673402Y-108193328D01*
X-45673402Y-108193328D02*
X-46030545Y-108193328D01*
X-44530545Y-107621900D02*
X-43387687Y-107621900D01*
X-42030544Y-106693328D02*
X-42316259Y-106693328D01*
X-42316259Y-106693328D02*
X-42459116Y-106764757D01*
X-42459116Y-106764757D02*
X-42530544Y-106836185D01*
X-42530544Y-106836185D02*
X-42673402Y-107050471D01*
X-42673402Y-107050471D02*
X-42744830Y-107336185D01*
X-42744830Y-107336185D02*
X-42744830Y-107907614D01*
X-42744830Y-107907614D02*
X-42673402Y-108050471D01*
X-42673402Y-108050471D02*
X-42601973Y-108121900D01*
X-42601973Y-108121900D02*
X-42459116Y-108193328D01*
X-42459116Y-108193328D02*
X-42173402Y-108193328D01*
X-42173402Y-108193328D02*
X-42030544Y-108121900D01*
X-42030544Y-108121900D02*
X-41959116Y-108050471D01*
X-41959116Y-108050471D02*
X-41887687Y-107907614D01*
X-41887687Y-107907614D02*
X-41887687Y-107550471D01*
X-41887687Y-107550471D02*
X-41959116Y-107407614D01*
X-41959116Y-107407614D02*
X-42030544Y-107336185D01*
X-42030544Y-107336185D02*
X-42173402Y-107264757D01*
X-42173402Y-107264757D02*
X-42459116Y-107264757D01*
X-42459116Y-107264757D02*
X-42601973Y-107336185D01*
X-42601973Y-107336185D02*
X-42673402Y-107407614D01*
X-42673402Y-107407614D02*
X-42744830Y-107550471D01*
X-40601973Y-107193328D02*
X-40601973Y-108193328D01*
X-40959116Y-106621900D02*
X-41316259Y-107693328D01*
X-41316259Y-107693328D02*
X-40387688Y-107693328D01*
X-39173402Y-108193328D02*
X-39173402Y-107407614D01*
X-39173402Y-107407614D02*
X-39244831Y-107264757D01*
X-39244831Y-107264757D02*
X-39387688Y-107193328D01*
X-39387688Y-107193328D02*
X-39673402Y-107193328D01*
X-39673402Y-107193328D02*
X-39816260Y-107264757D01*
X-39173402Y-108121900D02*
X-39316260Y-108193328D01*
X-39316260Y-108193328D02*
X-39673402Y-108193328D01*
X-39673402Y-108193328D02*
X-39816260Y-108121900D01*
X-39816260Y-108121900D02*
X-39887688Y-107979042D01*
X-39887688Y-107979042D02*
X-39887688Y-107836185D01*
X-39887688Y-107836185D02*
X-39816260Y-107693328D01*
X-39816260Y-107693328D02*
X-39673402Y-107621900D01*
X-39673402Y-107621900D02*
X-39316260Y-107621900D01*
X-39316260Y-107621900D02*
X-39173402Y-107550471D01*
X-36101974Y-107050471D02*
X-36244831Y-106979042D01*
X-36244831Y-106979042D02*
X-36530545Y-106979042D01*
X-36530545Y-106979042D02*
X-36673402Y-107050471D01*
X-36673402Y-107050471D02*
X-36816260Y-107193328D01*
X-36816260Y-107193328D02*
X-36887688Y-107336185D01*
X-36887688Y-107336185D02*
X-36887688Y-107621900D01*
X-36887688Y-107621900D02*
X-36816260Y-107764757D01*
X-36816260Y-107764757D02*
X-36673402Y-107907614D01*
X-36673402Y-107907614D02*
X-36530545Y-107979042D01*
X-36530545Y-107979042D02*
X-36244831Y-107979042D01*
X-36244831Y-107979042D02*
X-36101974Y-107907614D01*
X-36387688Y-106479042D02*
X-36744831Y-106550471D01*
X-36744831Y-106550471D02*
X-37101974Y-106764757D01*
X-37101974Y-106764757D02*
X-37316260Y-107121900D01*
X-37316260Y-107121900D02*
X-37387688Y-107479042D01*
X-37387688Y-107479042D02*
X-37316260Y-107836185D01*
X-37316260Y-107836185D02*
X-37101974Y-108193328D01*
X-37101974Y-108193328D02*
X-36744831Y-108407614D01*
X-36744831Y-108407614D02*
X-36387688Y-108479042D01*
X-36387688Y-108479042D02*
X-36030545Y-108407614D01*
X-36030545Y-108407614D02*
X-35673402Y-108193328D01*
X-35673402Y-108193328D02*
X-35459117Y-107836185D01*
X-35459117Y-107836185D02*
X-35387688Y-107479042D01*
X-35387688Y-107479042D02*
X-35459117Y-107121900D01*
X-35459117Y-107121900D02*
X-35673402Y-106764757D01*
X-35673402Y-106764757D02*
X-36030545Y-106550471D01*
X-36030545Y-106550471D02*
X-36387688Y-106479042D01*
X-33673402Y-106836185D02*
X-33601974Y-106764757D01*
X-33601974Y-106764757D02*
X-33459116Y-106693328D01*
X-33459116Y-106693328D02*
X-33101974Y-106693328D01*
X-33101974Y-106693328D02*
X-32959116Y-106764757D01*
X-32959116Y-106764757D02*
X-32887688Y-106836185D01*
X-32887688Y-106836185D02*
X-32816259Y-106979042D01*
X-32816259Y-106979042D02*
X-32816259Y-107121900D01*
X-32816259Y-107121900D02*
X-32887688Y-107336185D01*
X-32887688Y-107336185D02*
X-33744831Y-108193328D01*
X-33744831Y-108193328D02*
X-32816259Y-108193328D01*
X-31887688Y-106693328D02*
X-31744831Y-106693328D01*
X-31744831Y-106693328D02*
X-31601974Y-106764757D01*
X-31601974Y-106764757D02*
X-31530545Y-106836185D01*
X-31530545Y-106836185D02*
X-31459117Y-106979042D01*
X-31459117Y-106979042D02*
X-31387688Y-107264757D01*
X-31387688Y-107264757D02*
X-31387688Y-107621900D01*
X-31387688Y-107621900D02*
X-31459117Y-107907614D01*
X-31459117Y-107907614D02*
X-31530545Y-108050471D01*
X-31530545Y-108050471D02*
X-31601974Y-108121900D01*
X-31601974Y-108121900D02*
X-31744831Y-108193328D01*
X-31744831Y-108193328D02*
X-31887688Y-108193328D01*
X-31887688Y-108193328D02*
X-32030545Y-108121900D01*
X-32030545Y-108121900D02*
X-32101974Y-108050471D01*
X-32101974Y-108050471D02*
X-32173403Y-107907614D01*
X-32173403Y-107907614D02*
X-32244831Y-107621900D01*
X-32244831Y-107621900D02*
X-32244831Y-107264757D01*
X-32244831Y-107264757D02*
X-32173403Y-106979042D01*
X-32173403Y-106979042D02*
X-32101974Y-106836185D01*
X-32101974Y-106836185D02*
X-32030545Y-106764757D01*
X-32030545Y-106764757D02*
X-31887688Y-106693328D01*
X-30816260Y-106836185D02*
X-30744832Y-106764757D01*
X-30744832Y-106764757D02*
X-30601974Y-106693328D01*
X-30601974Y-106693328D02*
X-30244832Y-106693328D01*
X-30244832Y-106693328D02*
X-30101974Y-106764757D01*
X-30101974Y-106764757D02*
X-30030546Y-106836185D01*
X-30030546Y-106836185D02*
X-29959117Y-106979042D01*
X-29959117Y-106979042D02*
X-29959117Y-107121900D01*
X-29959117Y-107121900D02*
X-30030546Y-107336185D01*
X-30030546Y-107336185D02*
X-30887689Y-108193328D01*
X-30887689Y-108193328D02*
X-29959117Y-108193328D01*
X-28673403Y-107193328D02*
X-28673403Y-108193328D01*
X-29030546Y-106621900D02*
X-29387689Y-107693328D01*
X-29387689Y-107693328D02*
X-28459118Y-107693328D01*
X-26744833Y-108193328D02*
X-26744833Y-106693328D01*
X-26744833Y-107264757D02*
X-26601975Y-107193328D01*
X-26601975Y-107193328D02*
X-26316261Y-107193328D01*
X-26316261Y-107193328D02*
X-26173404Y-107264757D01*
X-26173404Y-107264757D02*
X-26101975Y-107336185D01*
X-26101975Y-107336185D02*
X-26030547Y-107479042D01*
X-26030547Y-107479042D02*
X-26030547Y-107907614D01*
X-26030547Y-107907614D02*
X-26101975Y-108050471D01*
X-26101975Y-108050471D02*
X-26173404Y-108121900D01*
X-26173404Y-108121900D02*
X-26316261Y-108193328D01*
X-26316261Y-108193328D02*
X-26601975Y-108193328D01*
X-26601975Y-108193328D02*
X-26744833Y-108121900D01*
X-25530547Y-107193328D02*
X-25173404Y-108193328D01*
X-24816261Y-107193328D02*
X-25173404Y-108193328D01*
X-25173404Y-108193328D02*
X-25316261Y-108550471D01*
X-25316261Y-108550471D02*
X-25387690Y-108621900D01*
X-25387690Y-108621900D02*
X-25530547Y-108693328D01*
X-23316261Y-106693328D02*
X-22816261Y-108193328D01*
X-22816261Y-108193328D02*
X-22316261Y-106693328D01*
X-21816262Y-108193328D02*
X-21816262Y-107193328D01*
X-21816262Y-106693328D02*
X-21887690Y-106764757D01*
X-21887690Y-106764757D02*
X-21816262Y-106836185D01*
X-21816262Y-106836185D02*
X-21744833Y-106764757D01*
X-21744833Y-106764757D02*
X-21816262Y-106693328D01*
X-21816262Y-106693328D02*
X-21816262Y-106836185D01*
X-21316261Y-107193328D02*
X-20744833Y-107193328D01*
X-21101976Y-106693328D02*
X-21101976Y-107979042D01*
X-21101976Y-107979042D02*
X-21030547Y-108121900D01*
X-21030547Y-108121900D02*
X-20887690Y-108193328D01*
X-20887690Y-108193328D02*
X-20744833Y-108193328D01*
X-20459118Y-107193328D02*
X-19887690Y-107193328D01*
X-20244833Y-106693328D02*
X-20244833Y-107979042D01*
X-20244833Y-107979042D02*
X-20173404Y-108121900D01*
X-20173404Y-108121900D02*
X-20030547Y-108193328D01*
X-20030547Y-108193328D02*
X-19887690Y-108193328D01*
X-19173404Y-108193328D02*
X-19316261Y-108121900D01*
X-19316261Y-108121900D02*
X-19387690Y-108050471D01*
X-19387690Y-108050471D02*
X-19459118Y-107907614D01*
X-19459118Y-107907614D02*
X-19459118Y-107479042D01*
X-19459118Y-107479042D02*
X-19387690Y-107336185D01*
X-19387690Y-107336185D02*
X-19316261Y-107264757D01*
X-19316261Y-107264757D02*
X-19173404Y-107193328D01*
X-19173404Y-107193328D02*
X-18959118Y-107193328D01*
X-18959118Y-107193328D02*
X-18816261Y-107264757D01*
X-18816261Y-107264757D02*
X-18744832Y-107336185D01*
X-18744832Y-107336185D02*
X-18673404Y-107479042D01*
X-18673404Y-107479042D02*
X-18673404Y-107907614D01*
X-18673404Y-107907614D02*
X-18744832Y-108050471D01*
X-18744832Y-108050471D02*
X-18816261Y-108121900D01*
X-18816261Y-108121900D02*
X-18959118Y-108193328D01*
X-18959118Y-108193328D02*
X-19173404Y-108193328D01*
X-18030547Y-108193328D02*
X-18030547Y-107193328D01*
X-18030547Y-107479042D02*
X-17959118Y-107336185D01*
X-17959118Y-107336185D02*
X-17887689Y-107264757D01*
X-17887689Y-107264757D02*
X-17744832Y-107193328D01*
X-17744832Y-107193328D02*
X-17601975Y-107193328D01*
X-17101976Y-108193328D02*
X-17101976Y-107193328D01*
X-17101976Y-106693328D02*
X-17173404Y-106764757D01*
X-17173404Y-106764757D02*
X-17101976Y-106836185D01*
X-17101976Y-106836185D02*
X-17030547Y-106764757D01*
X-17030547Y-106764757D02*
X-17101976Y-106693328D01*
X-17101976Y-106693328D02*
X-17101976Y-106836185D01*
X-16173404Y-108193328D02*
X-16316261Y-108121900D01*
X-16316261Y-108121900D02*
X-16387690Y-108050471D01*
X-16387690Y-108050471D02*
X-16459118Y-107907614D01*
X-16459118Y-107907614D02*
X-16459118Y-107479042D01*
X-16459118Y-107479042D02*
X-16387690Y-107336185D01*
X-16387690Y-107336185D02*
X-16316261Y-107264757D01*
X-16316261Y-107264757D02*
X-16173404Y-107193328D01*
X-16173404Y-107193328D02*
X-15959118Y-107193328D01*
X-15959118Y-107193328D02*
X-15816261Y-107264757D01*
X-15816261Y-107264757D02*
X-15744832Y-107336185D01*
X-15744832Y-107336185D02*
X-15673404Y-107479042D01*
X-15673404Y-107479042D02*
X-15673404Y-107907614D01*
X-15673404Y-107907614D02*
X-15744832Y-108050471D01*
X-15744832Y-108050471D02*
X-15816261Y-108121900D01*
X-15816261Y-108121900D02*
X-15959118Y-108193328D01*
X-15959118Y-108193328D02*
X-16173404Y-108193328D01*
X-13887690Y-108193328D02*
X-13887690Y-106693328D01*
X-13887690Y-106693328D02*
X-13316261Y-106693328D01*
X-13316261Y-106693328D02*
X-13173404Y-106764757D01*
X-13173404Y-106764757D02*
X-13101975Y-106836185D01*
X-13101975Y-106836185D02*
X-13030547Y-106979042D01*
X-13030547Y-106979042D02*
X-13030547Y-107193328D01*
X-13030547Y-107193328D02*
X-13101975Y-107336185D01*
X-13101975Y-107336185D02*
X-13173404Y-107407614D01*
X-13173404Y-107407614D02*
X-13316261Y-107479042D01*
X-13316261Y-107479042D02*
X-13887690Y-107479042D01*
X-11744832Y-108193328D02*
X-11744832Y-107407614D01*
X-11744832Y-107407614D02*
X-11816261Y-107264757D01*
X-11816261Y-107264757D02*
X-11959118Y-107193328D01*
X-11959118Y-107193328D02*
X-12244832Y-107193328D01*
X-12244832Y-107193328D02*
X-12387690Y-107264757D01*
X-11744832Y-108121900D02*
X-11887690Y-108193328D01*
X-11887690Y-108193328D02*
X-12244832Y-108193328D01*
X-12244832Y-108193328D02*
X-12387690Y-108121900D01*
X-12387690Y-108121900D02*
X-12459118Y-107979042D01*
X-12459118Y-107979042D02*
X-12459118Y-107836185D01*
X-12459118Y-107836185D02*
X-12387690Y-107693328D01*
X-12387690Y-107693328D02*
X-12244832Y-107621900D01*
X-12244832Y-107621900D02*
X-11887690Y-107621900D01*
X-11887690Y-107621900D02*
X-11744832Y-107550471D01*
X-11101975Y-108121900D02*
X-10959118Y-108193328D01*
X-10959118Y-108193328D02*
X-10673404Y-108193328D01*
X-10673404Y-108193328D02*
X-10530547Y-108121900D01*
X-10530547Y-108121900D02*
X-10459118Y-107979042D01*
X-10459118Y-107979042D02*
X-10459118Y-107907614D01*
X-10459118Y-107907614D02*
X-10530547Y-107764757D01*
X-10530547Y-107764757D02*
X-10673404Y-107693328D01*
X-10673404Y-107693328D02*
X-10887689Y-107693328D01*
X-10887689Y-107693328D02*
X-11030547Y-107621900D01*
X-11030547Y-107621900D02*
X-11101975Y-107479042D01*
X-11101975Y-107479042D02*
X-11101975Y-107407614D01*
X-11101975Y-107407614D02*
X-11030547Y-107264757D01*
X-11030547Y-107264757D02*
X-10887689Y-107193328D01*
X-10887689Y-107193328D02*
X-10673404Y-107193328D01*
X-10673404Y-107193328D02*
X-10530547Y-107264757D01*
X-9173403Y-108121900D02*
X-9316261Y-108193328D01*
X-9316261Y-108193328D02*
X-9601975Y-108193328D01*
X-9601975Y-108193328D02*
X-9744832Y-108121900D01*
X-9744832Y-108121900D02*
X-9816261Y-108050471D01*
X-9816261Y-108050471D02*
X-9887689Y-107907614D01*
X-9887689Y-107907614D02*
X-9887689Y-107479042D01*
X-9887689Y-107479042D02*
X-9816261Y-107336185D01*
X-9816261Y-107336185D02*
X-9744832Y-107264757D01*
X-9744832Y-107264757D02*
X-9601975Y-107193328D01*
X-9601975Y-107193328D02*
X-9316261Y-107193328D01*
X-9316261Y-107193328D02*
X-9173403Y-107264757D01*
X-7887689Y-107193328D02*
X-7887689Y-108193328D01*
X-8530547Y-107193328D02*
X-8530547Y-107979042D01*
X-8530547Y-107979042D02*
X-8459118Y-108121900D01*
X-8459118Y-108121900D02*
X-8316261Y-108193328D01*
X-8316261Y-108193328D02*
X-8101975Y-108193328D01*
X-8101975Y-108193328D02*
X-7959118Y-108121900D01*
X-7959118Y-108121900D02*
X-7887689Y-108050471D01*
X-6530546Y-108121900D02*
X-6673404Y-108193328D01*
X-6673404Y-108193328D02*
X-6959118Y-108193328D01*
X-6959118Y-108193328D02*
X-7101975Y-108121900D01*
X-7101975Y-108121900D02*
X-7173404Y-108050471D01*
X-7173404Y-108050471D02*
X-7244832Y-107907614D01*
X-7244832Y-107907614D02*
X-7244832Y-107479042D01*
X-7244832Y-107479042D02*
X-7173404Y-107336185D01*
X-7173404Y-107336185D02*
X-7101975Y-107264757D01*
X-7101975Y-107264757D02*
X-6959118Y-107193328D01*
X-6959118Y-107193328D02*
X-6673404Y-107193328D01*
X-6673404Y-107193328D02*
X-6530546Y-107264757D01*
X-5244832Y-108121900D02*
X-5387690Y-108193328D01*
X-5387690Y-108193328D02*
X-5673404Y-108193328D01*
X-5673404Y-108193328D02*
X-5816261Y-108121900D01*
X-5816261Y-108121900D02*
X-5887690Y-108050471D01*
X-5887690Y-108050471D02*
X-5959118Y-107907614D01*
X-5959118Y-107907614D02*
X-5959118Y-107479042D01*
X-5959118Y-107479042D02*
X-5887690Y-107336185D01*
X-5887690Y-107336185D02*
X-5816261Y-107264757D01*
X-5816261Y-107264757D02*
X-5673404Y-107193328D01*
X-5673404Y-107193328D02*
X-5387690Y-107193328D01*
X-5387690Y-107193328D02*
X-5244832Y-107264757D01*
X-4601976Y-108193328D02*
X-4601976Y-107193328D01*
X-4601976Y-106693328D02*
X-4673404Y-106764757D01*
X-4673404Y-106764757D02*
X-4601976Y-106836185D01*
X-4601976Y-106836185D02*
X-4530547Y-106764757D01*
X-4530547Y-106764757D02*
X-4601976Y-106693328D01*
X-4601976Y-106693328D02*
X-4601976Y-106836185D01*
X-2316261Y-108764757D02*
X-2387690Y-108693328D01*
X-2387690Y-108693328D02*
X-2530547Y-108479042D01*
X-2530547Y-108479042D02*
X-2601975Y-108336185D01*
X-2601975Y-108336185D02*
X-2673404Y-108121900D01*
X-2673404Y-108121900D02*
X-2744833Y-107764757D01*
X-2744833Y-107764757D02*
X-2744833Y-107479042D01*
X-2744833Y-107479042D02*
X-2673404Y-107121900D01*
X-2673404Y-107121900D02*
X-2601975Y-106907614D01*
X-2601975Y-106907614D02*
X-2530547Y-106764757D01*
X-2530547Y-106764757D02*
X-2387690Y-106550471D01*
X-2387690Y-106550471D02*
X-2316261Y-106479042D01*
X-1816261Y-108121900D02*
X-1601975Y-108193328D01*
X-1601975Y-108193328D02*
X-1244833Y-108193328D01*
X-1244833Y-108193328D02*
X-1101975Y-108121900D01*
X-1101975Y-108121900D02*
X-1030547Y-108050471D01*
X-1030547Y-108050471D02*
X-959118Y-107907614D01*
X-959118Y-107907614D02*
X-959118Y-107764757D01*
X-959118Y-107764757D02*
X-1030547Y-107621900D01*
X-1030547Y-107621900D02*
X-1101975Y-107550471D01*
X-1101975Y-107550471D02*
X-1244833Y-107479042D01*
X-1244833Y-107479042D02*
X-1530547Y-107407614D01*
X-1530547Y-107407614D02*
X-1673404Y-107336185D01*
X-1673404Y-107336185D02*
X-1744833Y-107264757D01*
X-1744833Y-107264757D02*
X-1816261Y-107121900D01*
X-1816261Y-107121900D02*
X-1816261Y-106979042D01*
X-1816261Y-106979042D02*
X-1744833Y-106836185D01*
X-1744833Y-106836185D02*
X-1673404Y-106764757D01*
X-1673404Y-106764757D02*
X-1530547Y-106693328D01*
X-1530547Y-106693328D02*
X-1173404Y-106693328D01*
X-1173404Y-106693328D02*
X-959118Y-106764757D01*
X-316262Y-108193328D02*
X-316262Y-107193328D01*
X-316262Y-106693328D02*
X-387690Y-106764757D01*
X-387690Y-106764757D02*
X-316262Y-106836185D01*
X-316262Y-106836185D02*
X-244833Y-106764757D01*
X-244833Y-106764757D02*
X-316262Y-106693328D01*
X-316262Y-106693328D02*
X-316262Y-106836185D01*
X1040882Y-108193328D02*
X1040882Y-106693328D01*
X1040882Y-108121900D02*
X898024Y-108193328D01*
X898024Y-108193328D02*
X612310Y-108193328D01*
X612310Y-108193328D02*
X469453Y-108121900D01*
X469453Y-108121900D02*
X398024Y-108050471D01*
X398024Y-108050471D02*
X326596Y-107907614D01*
X326596Y-107907614D02*
X326596Y-107479042D01*
X326596Y-107479042D02*
X398024Y-107336185D01*
X398024Y-107336185D02*
X469453Y-107264757D01*
X469453Y-107264757D02*
X612310Y-107193328D01*
X612310Y-107193328D02*
X898024Y-107193328D01*
X898024Y-107193328D02*
X1040882Y-107264757D01*
X2326596Y-108121900D02*
X2183739Y-108193328D01*
X2183739Y-108193328D02*
X1898025Y-108193328D01*
X1898025Y-108193328D02*
X1755167Y-108121900D01*
X1755167Y-108121900D02*
X1683739Y-107979042D01*
X1683739Y-107979042D02*
X1683739Y-107407614D01*
X1683739Y-107407614D02*
X1755167Y-107264757D01*
X1755167Y-107264757D02*
X1898025Y-107193328D01*
X1898025Y-107193328D02*
X2183739Y-107193328D01*
X2183739Y-107193328D02*
X2326596Y-107264757D01*
X2326596Y-107264757D02*
X2398025Y-107407614D01*
X2398025Y-107407614D02*
X2398025Y-107550471D01*
X2398025Y-107550471D02*
X1683739Y-107693328D01*
X3040881Y-108193328D02*
X3040881Y-106693328D01*
X3040881Y-106693328D02*
X3612310Y-106693328D01*
X3612310Y-106693328D02*
X3755167Y-106764757D01*
X3755167Y-106764757D02*
X3826596Y-106836185D01*
X3826596Y-106836185D02*
X3898024Y-106979042D01*
X3898024Y-106979042D02*
X3898024Y-107193328D01*
X3898024Y-107193328D02*
X3826596Y-107336185D01*
X3826596Y-107336185D02*
X3755167Y-107407614D01*
X3755167Y-107407614D02*
X3612310Y-107479042D01*
X3612310Y-107479042D02*
X3040881Y-107479042D01*
X4540881Y-108193328D02*
X4540881Y-107193328D01*
X4540881Y-107479042D02*
X4612310Y-107336185D01*
X4612310Y-107336185D02*
X4683739Y-107264757D01*
X4683739Y-107264757D02*
X4826596Y-107193328D01*
X4826596Y-107193328D02*
X4969453Y-107193328D01*
X5683738Y-108193328D02*
X5540881Y-108121900D01*
X5540881Y-108121900D02*
X5469452Y-108050471D01*
X5469452Y-108050471D02*
X5398024Y-107907614D01*
X5398024Y-107907614D02*
X5398024Y-107479042D01*
X5398024Y-107479042D02*
X5469452Y-107336185D01*
X5469452Y-107336185D02*
X5540881Y-107264757D01*
X5540881Y-107264757D02*
X5683738Y-107193328D01*
X5683738Y-107193328D02*
X5898024Y-107193328D01*
X5898024Y-107193328D02*
X6040881Y-107264757D01*
X6040881Y-107264757D02*
X6112310Y-107336185D01*
X6112310Y-107336185D02*
X6183738Y-107479042D01*
X6183738Y-107479042D02*
X6183738Y-107907614D01*
X6183738Y-107907614D02*
X6112310Y-108050471D01*
X6112310Y-108050471D02*
X6040881Y-108121900D01*
X6040881Y-108121900D02*
X5898024Y-108193328D01*
X5898024Y-108193328D02*
X5683738Y-108193328D01*
X6826595Y-107193328D02*
X6826595Y-108479042D01*
X6826595Y-108479042D02*
X6755167Y-108621900D01*
X6755167Y-108621900D02*
X6612310Y-108693328D01*
X6612310Y-108693328D02*
X6540881Y-108693328D01*
X6826595Y-106693328D02*
X6755167Y-106764757D01*
X6755167Y-106764757D02*
X6826595Y-106836185D01*
X6826595Y-106836185D02*
X6898024Y-106764757D01*
X6898024Y-106764757D02*
X6826595Y-106693328D01*
X6826595Y-106693328D02*
X6826595Y-106836185D01*
X8112310Y-108121900D02*
X7969453Y-108193328D01*
X7969453Y-108193328D02*
X7683739Y-108193328D01*
X7683739Y-108193328D02*
X7540881Y-108121900D01*
X7540881Y-108121900D02*
X7469453Y-107979042D01*
X7469453Y-107979042D02*
X7469453Y-107407614D01*
X7469453Y-107407614D02*
X7540881Y-107264757D01*
X7540881Y-107264757D02*
X7683739Y-107193328D01*
X7683739Y-107193328D02*
X7969453Y-107193328D01*
X7969453Y-107193328D02*
X8112310Y-107264757D01*
X8112310Y-107264757D02*
X8183739Y-107407614D01*
X8183739Y-107407614D02*
X8183739Y-107550471D01*
X8183739Y-107550471D02*
X7469453Y-107693328D01*
X9469453Y-108121900D02*
X9326595Y-108193328D01*
X9326595Y-108193328D02*
X9040881Y-108193328D01*
X9040881Y-108193328D02*
X8898024Y-108121900D01*
X8898024Y-108121900D02*
X8826595Y-108050471D01*
X8826595Y-108050471D02*
X8755167Y-107907614D01*
X8755167Y-107907614D02*
X8755167Y-107479042D01*
X8755167Y-107479042D02*
X8826595Y-107336185D01*
X8826595Y-107336185D02*
X8898024Y-107264757D01*
X8898024Y-107264757D02*
X9040881Y-107193328D01*
X9040881Y-107193328D02*
X9326595Y-107193328D01*
X9326595Y-107193328D02*
X9469453Y-107264757D01*
X9898024Y-107193328D02*
X10469452Y-107193328D01*
X10112309Y-106693328D02*
X10112309Y-107979042D01*
X10112309Y-107979042D02*
X10183738Y-108121900D01*
X10183738Y-108121900D02*
X10326595Y-108193328D01*
X10326595Y-108193328D02*
X10469452Y-108193328D01*
X10898024Y-108121900D02*
X11040881Y-108193328D01*
X11040881Y-108193328D02*
X11326595Y-108193328D01*
X11326595Y-108193328D02*
X11469452Y-108121900D01*
X11469452Y-108121900D02*
X11540881Y-107979042D01*
X11540881Y-107979042D02*
X11540881Y-107907614D01*
X11540881Y-107907614D02*
X11469452Y-107764757D01*
X11469452Y-107764757D02*
X11326595Y-107693328D01*
X11326595Y-107693328D02*
X11112310Y-107693328D01*
X11112310Y-107693328D02*
X10969452Y-107621900D01*
X10969452Y-107621900D02*
X10898024Y-107479042D01*
X10898024Y-107479042D02*
X10898024Y-107407614D01*
X10898024Y-107407614D02*
X10969452Y-107264757D01*
X10969452Y-107264757D02*
X11112310Y-107193328D01*
X11112310Y-107193328D02*
X11326595Y-107193328D01*
X11326595Y-107193328D02*
X11469452Y-107264757D01*
X12898024Y-108193328D02*
X12183738Y-108193328D01*
X12183738Y-108193328D02*
X12183738Y-106693328D01*
X14040882Y-108193328D02*
X14040882Y-107407614D01*
X14040882Y-107407614D02*
X13969453Y-107264757D01*
X13969453Y-107264757D02*
X13826596Y-107193328D01*
X13826596Y-107193328D02*
X13540882Y-107193328D01*
X13540882Y-107193328D02*
X13398024Y-107264757D01*
X14040882Y-108121900D02*
X13898024Y-108193328D01*
X13898024Y-108193328D02*
X13540882Y-108193328D01*
X13540882Y-108193328D02*
X13398024Y-108121900D01*
X13398024Y-108121900D02*
X13326596Y-107979042D01*
X13326596Y-107979042D02*
X13326596Y-107836185D01*
X13326596Y-107836185D02*
X13398024Y-107693328D01*
X13398024Y-107693328D02*
X13540882Y-107621900D01*
X13540882Y-107621900D02*
X13898024Y-107621900D01*
X13898024Y-107621900D02*
X14040882Y-107550471D01*
X14755167Y-108193328D02*
X14755167Y-106693328D01*
X14755167Y-107264757D02*
X14898025Y-107193328D01*
X14898025Y-107193328D02*
X15183739Y-107193328D01*
X15183739Y-107193328D02*
X15326596Y-107264757D01*
X15326596Y-107264757D02*
X15398025Y-107336185D01*
X15398025Y-107336185D02*
X15469453Y-107479042D01*
X15469453Y-107479042D02*
X15469453Y-107907614D01*
X15469453Y-107907614D02*
X15398025Y-108050471D01*
X15398025Y-108050471D02*
X15326596Y-108121900D01*
X15326596Y-108121900D02*
X15183739Y-108193328D01*
X15183739Y-108193328D02*
X14898025Y-108193328D01*
X14898025Y-108193328D02*
X14755167Y-108121900D01*
X15969453Y-108764757D02*
X16040882Y-108693328D01*
X16040882Y-108693328D02*
X16183739Y-108479042D01*
X16183739Y-108479042D02*
X16255168Y-108336185D01*
X16255168Y-108336185D02*
X16326596Y-108121900D01*
X16326596Y-108121900D02*
X16398025Y-107764757D01*
X16398025Y-107764757D02*
X16398025Y-107479042D01*
X16398025Y-107479042D02*
X16326596Y-107121900D01*
X16326596Y-107121900D02*
X16255168Y-106907614D01*
X16255168Y-106907614D02*
X16183739Y-106764757D01*
X16183739Y-106764757D02*
X16040882Y-106550471D01*
X16040882Y-106550471D02*
X15969453Y-106479042D01*
X18255167Y-108193328D02*
X18255167Y-107193328D01*
X18255167Y-106693328D02*
X18183739Y-106764757D01*
X18183739Y-106764757D02*
X18255167Y-106836185D01*
X18255167Y-106836185D02*
X18326596Y-106764757D01*
X18326596Y-106764757D02*
X18255167Y-106693328D01*
X18255167Y-106693328D02*
X18255167Y-106836185D01*
X18898025Y-108121900D02*
X19040882Y-108193328D01*
X19040882Y-108193328D02*
X19326596Y-108193328D01*
X19326596Y-108193328D02*
X19469453Y-108121900D01*
X19469453Y-108121900D02*
X19540882Y-107979042D01*
X19540882Y-107979042D02*
X19540882Y-107907614D01*
X19540882Y-107907614D02*
X19469453Y-107764757D01*
X19469453Y-107764757D02*
X19326596Y-107693328D01*
X19326596Y-107693328D02*
X19112311Y-107693328D01*
X19112311Y-107693328D02*
X18969453Y-107621900D01*
X18969453Y-107621900D02*
X18898025Y-107479042D01*
X18898025Y-107479042D02*
X18898025Y-107407614D01*
X18898025Y-107407614D02*
X18969453Y-107264757D01*
X18969453Y-107264757D02*
X19112311Y-107193328D01*
X19112311Y-107193328D02*
X19326596Y-107193328D01*
X19326596Y-107193328D02*
X19469453Y-107264757D01*
X21540882Y-108193328D02*
X21398025Y-108121900D01*
X21398025Y-108121900D02*
X21326596Y-107979042D01*
X21326596Y-107979042D02*
X21326596Y-106693328D01*
X22112310Y-108193328D02*
X22112310Y-107193328D01*
X22112310Y-106693328D02*
X22040882Y-106764757D01*
X22040882Y-106764757D02*
X22112310Y-106836185D01*
X22112310Y-106836185D02*
X22183739Y-106764757D01*
X22183739Y-106764757D02*
X22112310Y-106693328D01*
X22112310Y-106693328D02*
X22112310Y-106836185D01*
X23469454Y-108121900D02*
X23326596Y-108193328D01*
X23326596Y-108193328D02*
X23040882Y-108193328D01*
X23040882Y-108193328D02*
X22898025Y-108121900D01*
X22898025Y-108121900D02*
X22826596Y-108050471D01*
X22826596Y-108050471D02*
X22755168Y-107907614D01*
X22755168Y-107907614D02*
X22755168Y-107479042D01*
X22755168Y-107479042D02*
X22826596Y-107336185D01*
X22826596Y-107336185D02*
X22898025Y-107264757D01*
X22898025Y-107264757D02*
X23040882Y-107193328D01*
X23040882Y-107193328D02*
X23326596Y-107193328D01*
X23326596Y-107193328D02*
X23469454Y-107264757D01*
X24683739Y-108121900D02*
X24540882Y-108193328D01*
X24540882Y-108193328D02*
X24255168Y-108193328D01*
X24255168Y-108193328D02*
X24112310Y-108121900D01*
X24112310Y-108121900D02*
X24040882Y-107979042D01*
X24040882Y-107979042D02*
X24040882Y-107407614D01*
X24040882Y-107407614D02*
X24112310Y-107264757D01*
X24112310Y-107264757D02*
X24255168Y-107193328D01*
X24255168Y-107193328D02*
X24540882Y-107193328D01*
X24540882Y-107193328D02*
X24683739Y-107264757D01*
X24683739Y-107264757D02*
X24755168Y-107407614D01*
X24755168Y-107407614D02*
X24755168Y-107550471D01*
X24755168Y-107550471D02*
X24040882Y-107693328D01*
X25398024Y-107193328D02*
X25398024Y-108193328D01*
X25398024Y-107336185D02*
X25469453Y-107264757D01*
X25469453Y-107264757D02*
X25612310Y-107193328D01*
X25612310Y-107193328D02*
X25826596Y-107193328D01*
X25826596Y-107193328D02*
X25969453Y-107264757D01*
X25969453Y-107264757D02*
X26040882Y-107407614D01*
X26040882Y-107407614D02*
X26040882Y-108193328D01*
X26683739Y-108121900D02*
X26826596Y-108193328D01*
X26826596Y-108193328D02*
X27112310Y-108193328D01*
X27112310Y-108193328D02*
X27255167Y-108121900D01*
X27255167Y-108121900D02*
X27326596Y-107979042D01*
X27326596Y-107979042D02*
X27326596Y-107907614D01*
X27326596Y-107907614D02*
X27255167Y-107764757D01*
X27255167Y-107764757D02*
X27112310Y-107693328D01*
X27112310Y-107693328D02*
X26898025Y-107693328D01*
X26898025Y-107693328D02*
X26755167Y-107621900D01*
X26755167Y-107621900D02*
X26683739Y-107479042D01*
X26683739Y-107479042D02*
X26683739Y-107407614D01*
X26683739Y-107407614D02*
X26755167Y-107264757D01*
X26755167Y-107264757D02*
X26898025Y-107193328D01*
X26898025Y-107193328D02*
X27112310Y-107193328D01*
X27112310Y-107193328D02*
X27255167Y-107264757D01*
X28540882Y-108121900D02*
X28398025Y-108193328D01*
X28398025Y-108193328D02*
X28112311Y-108193328D01*
X28112311Y-108193328D02*
X27969453Y-108121900D01*
X27969453Y-108121900D02*
X27898025Y-107979042D01*
X27898025Y-107979042D02*
X27898025Y-107407614D01*
X27898025Y-107407614D02*
X27969453Y-107264757D01*
X27969453Y-107264757D02*
X28112311Y-107193328D01*
X28112311Y-107193328D02*
X28398025Y-107193328D01*
X28398025Y-107193328D02*
X28540882Y-107264757D01*
X28540882Y-107264757D02*
X28612311Y-107407614D01*
X28612311Y-107407614D02*
X28612311Y-107550471D01*
X28612311Y-107550471D02*
X27898025Y-107693328D01*
X29898025Y-108193328D02*
X29898025Y-106693328D01*
X29898025Y-108121900D02*
X29755167Y-108193328D01*
X29755167Y-108193328D02*
X29469453Y-108193328D01*
X29469453Y-108193328D02*
X29326596Y-108121900D01*
X29326596Y-108121900D02*
X29255167Y-108050471D01*
X29255167Y-108050471D02*
X29183739Y-107907614D01*
X29183739Y-107907614D02*
X29183739Y-107479042D01*
X29183739Y-107479042D02*
X29255167Y-107336185D01*
X29255167Y-107336185D02*
X29326596Y-107264757D01*
X29326596Y-107264757D02*
X29469453Y-107193328D01*
X29469453Y-107193328D02*
X29755167Y-107193328D01*
X29755167Y-107193328D02*
X29898025Y-107264757D01*
X32398025Y-107193328D02*
X32398025Y-108193328D01*
X31755167Y-107193328D02*
X31755167Y-107979042D01*
X31755167Y-107979042D02*
X31826596Y-108121900D01*
X31826596Y-108121900D02*
X31969453Y-108193328D01*
X31969453Y-108193328D02*
X32183739Y-108193328D01*
X32183739Y-108193328D02*
X32326596Y-108121900D01*
X32326596Y-108121900D02*
X32398025Y-108050471D01*
X33112310Y-107193328D02*
X33112310Y-108193328D01*
X33112310Y-107336185D02*
X33183739Y-107264757D01*
X33183739Y-107264757D02*
X33326596Y-107193328D01*
X33326596Y-107193328D02*
X33540882Y-107193328D01*
X33540882Y-107193328D02*
X33683739Y-107264757D01*
X33683739Y-107264757D02*
X33755168Y-107407614D01*
X33755168Y-107407614D02*
X33755168Y-108193328D01*
X35112311Y-108193328D02*
X35112311Y-106693328D01*
X35112311Y-108121900D02*
X34969453Y-108193328D01*
X34969453Y-108193328D02*
X34683739Y-108193328D01*
X34683739Y-108193328D02*
X34540882Y-108121900D01*
X34540882Y-108121900D02*
X34469453Y-108050471D01*
X34469453Y-108050471D02*
X34398025Y-107907614D01*
X34398025Y-107907614D02*
X34398025Y-107479042D01*
X34398025Y-107479042D02*
X34469453Y-107336185D01*
X34469453Y-107336185D02*
X34540882Y-107264757D01*
X34540882Y-107264757D02*
X34683739Y-107193328D01*
X34683739Y-107193328D02*
X34969453Y-107193328D01*
X34969453Y-107193328D02*
X35112311Y-107264757D01*
X36398025Y-108121900D02*
X36255168Y-108193328D01*
X36255168Y-108193328D02*
X35969454Y-108193328D01*
X35969454Y-108193328D02*
X35826596Y-108121900D01*
X35826596Y-108121900D02*
X35755168Y-107979042D01*
X35755168Y-107979042D02*
X35755168Y-107407614D01*
X35755168Y-107407614D02*
X35826596Y-107264757D01*
X35826596Y-107264757D02*
X35969454Y-107193328D01*
X35969454Y-107193328D02*
X36255168Y-107193328D01*
X36255168Y-107193328D02*
X36398025Y-107264757D01*
X36398025Y-107264757D02*
X36469454Y-107407614D01*
X36469454Y-107407614D02*
X36469454Y-107550471D01*
X36469454Y-107550471D02*
X35755168Y-107693328D01*
X37112310Y-108193328D02*
X37112310Y-107193328D01*
X37112310Y-107479042D02*
X37183739Y-107336185D01*
X37183739Y-107336185D02*
X37255168Y-107264757D01*
X37255168Y-107264757D02*
X37398025Y-107193328D01*
X37398025Y-107193328D02*
X37540882Y-107193328D01*
D10*
D11*
X-29057800Y-128007200D02*
X-29057800Y-131007200D01*
D10*
D11*
X34942200Y-128007200D02*
X34942200Y-134507200D01*
M02*
