%TF.GenerationSoftware,KiCad,Pcbnew,8.0.7*%
%TF.CreationDate,2025-01-06T00:02:34+01:00*%
%TF.ProjectId,hd_64_v0,68645f36-345f-4763-902e-6b696361645f,0.2*%
%TF.SameCoordinates,PX4737720PY55fe290*%
%TF.FileFunction,Soldermask,Top*%
%TF.FilePolarity,Negative*%
%FSLAX46Y46*%
G04 Gerber Fmt 4.6, Leading zero omitted, Abs format (unit mm)*
G04 Created by KiCad (PCBNEW 8.0.7) date 2025-01-06 00:02:34*
%MOMM*%
%LPD*%
G01*
G04 APERTURE LIST*
G04 Aperture macros list*
%AMRoundRect*
0 Rectangle with rounded corners*
0 $1 Rounding radius*
0 $2 $3 $4 $5 $6 $7 $8 $9 X,Y pos of 4 corners*
0 Add a 4 corners polygon primitive as box body*
4,1,4,$2,$3,$4,$5,$6,$7,$8,$9,$2,$3,0*
0 Add four circle primitives for the rounded corners*
1,1,$1+$1,$2,$3*
1,1,$1+$1,$4,$5*
1,1,$1+$1,$6,$7*
1,1,$1+$1,$8,$9*
0 Add four rect primitives between the rounded corners*
20,1,$1+$1,$2,$3,$4,$5,0*
20,1,$1+$1,$4,$5,$6,$7,0*
20,1,$1+$1,$6,$7,$8,$9,0*
20,1,$1+$1,$8,$9,$2,$3,0*%
%AMOutline5P*
0 Free polygon, 5 corners , with rotation*
0 The origin of the aperture is its center*
0 number of corners: always 5*
0 $1 to $10 corner X, Y*
0 $11 Rotation angle, in degrees counterclockwise*
0 create outline with 5 corners*
4,1,5,$1,$2,$3,$4,$5,$6,$7,$8,$9,$10,$1,$2,$11*%
%AMOutline6P*
0 Free polygon, 6 corners , with rotation*
0 The origin of the aperture is its center*
0 number of corners: always 6*
0 $1 to $12 corner X, Y*
0 $13 Rotation angle, in degrees counterclockwise*
0 create outline with 6 corners*
4,1,6,$1,$2,$3,$4,$5,$6,$7,$8,$9,$10,$11,$12,$1,$2,$13*%
%AMOutline7P*
0 Free polygon, 7 corners , with rotation*
0 The origin of the aperture is its center*
0 number of corners: always 7*
0 $1 to $14 corner X, Y*
0 $15 Rotation angle, in degrees counterclockwise*
0 create outline with 7 corners*
4,1,7,$1,$2,$3,$4,$5,$6,$7,$8,$9,$10,$11,$12,$13,$14,$1,$2,$15*%
%AMOutline8P*
0 Free polygon, 8 corners , with rotation*
0 The origin of the aperture is its center*
0 number of corners: always 8*
0 $1 to $16 corner X, Y*
0 $17 Rotation angle, in degrees counterclockwise*
0 create outline with 8 corners*
4,1,8,$1,$2,$3,$4,$5,$6,$7,$8,$9,$10,$11,$12,$13,$14,$15,$16,$1,$2,$17*%
%AMFreePoly0*
4,1,9,3.862500,-0.866500,0.737500,-0.866500,0.737500,-0.450000,-0.737500,-0.450000,-0.737500,0.450000,0.737500,0.450000,0.737500,0.866500,3.862500,0.866500,3.862500,-0.866500,3.862500,-0.866500,$1*%
%AMFreePoly1*
4,1,19,0.550000,-0.750000,0.000000,-0.750000,0.000000,-0.744911,-0.071157,-0.744911,-0.207708,-0.704816,-0.327430,-0.627875,-0.420627,-0.520320,-0.479746,-0.390866,-0.500000,-0.250000,-0.500000,0.250000,-0.479746,0.390866,-0.420627,0.520320,-0.327430,0.627875,-0.207708,0.704816,-0.071157,0.744911,0.000000,0.744911,0.000000,0.750000,0.550000,0.750000,0.550000,-0.750000,0.550000,-0.750000,
$1*%
%AMFreePoly2*
4,1,19,0.000000,0.744911,0.071157,0.744911,0.207708,0.704816,0.327430,0.627875,0.420627,0.520320,0.479746,0.390866,0.500000,0.250000,0.500000,-0.250000,0.479746,-0.390866,0.420627,-0.520320,0.327430,-0.627875,0.207708,-0.704816,0.071157,-0.744911,0.000000,-0.744911,0.000000,-0.750000,-0.550000,-0.750000,-0.550000,0.750000,0.000000,0.750000,0.000000,0.744911,0.000000,0.744911,
$1*%
%AMFreePoly3*
4,1,19,0.500000,-0.750000,0.000000,-0.750000,0.000000,-0.744911,-0.071157,-0.744911,-0.207708,-0.704816,-0.327430,-0.627875,-0.420627,-0.520320,-0.479746,-0.390866,-0.500000,-0.250000,-0.500000,0.250000,-0.479746,0.390866,-0.420627,0.520320,-0.327430,0.627875,-0.207708,0.704816,-0.071157,0.744911,0.000000,0.744911,0.000000,0.750000,0.500000,0.750000,0.500000,-0.750000,0.500000,-0.750000,
$1*%
%AMFreePoly4*
4,1,19,0.000000,0.744911,0.071157,0.744911,0.207708,0.704816,0.327430,0.627875,0.420627,0.520320,0.479746,0.390866,0.500000,0.250000,0.500000,-0.250000,0.479746,-0.390866,0.420627,-0.520320,0.327430,-0.627875,0.207708,-0.704816,0.071157,-0.744911,0.000000,-0.744911,0.000000,-0.750000,-0.500000,-0.750000,-0.500000,0.750000,0.000000,0.750000,0.000000,0.744911,0.000000,0.744911,
$1*%
G04 Aperture macros list end*
%ADD10RoundRect,0.218750X0.256250X-0.218750X0.256250X0.218750X-0.256250X0.218750X-0.256250X-0.218750X0*%
%ADD11RoundRect,0.147500X0.172500X-0.147500X0.172500X0.147500X-0.172500X0.147500X-0.172500X-0.147500X0*%
%ADD12RoundRect,0.147500X-0.172500X0.147500X-0.172500X-0.147500X0.172500X-0.147500X0.172500X0.147500X0*%
%ADD13O,2.000000X3.000000*%
%ADD14C,6.400000*%
%ADD15RoundRect,0.150000X0.512500X0.150000X-0.512500X0.150000X-0.512500X-0.150000X0.512500X-0.150000X0*%
%ADD16RoundRect,0.147500X-0.147500X-0.172500X0.147500X-0.172500X0.147500X0.172500X-0.147500X0.172500X0*%
%ADD17RoundRect,0.147500X0.147500X0.172500X-0.147500X0.172500X-0.147500X-0.172500X0.147500X-0.172500X0*%
%ADD18C,1.500000*%
%ADD19R,0.400000X1.000000*%
%ADD20RoundRect,0.100000X0.637500X0.100000X-0.637500X0.100000X-0.637500X-0.100000X0.637500X-0.100000X0*%
%ADD21R,1.300000X0.900000*%
%ADD22FreePoly0,0.000000*%
%ADD23RoundRect,0.218750X-0.218750X-0.256250X0.218750X-0.256250X0.218750X0.256250X-0.218750X0.256250X0*%
%ADD24R,0.400000X1.200000*%
%ADD25R,2.200000X3.300000*%
%ADD26R,0.300000X1.400000*%
%ADD27RoundRect,0.100000X-0.637500X-0.100000X0.637500X-0.100000X0.637500X0.100000X-0.637500X0.100000X0*%
%ADD28R,1.000000X1.000000*%
%ADD29R,5.700000X1.600000*%
%ADD30RoundRect,0.218750X-0.256250X0.218750X-0.256250X-0.218750X0.256250X-0.218750X0.256250X0.218750X0*%
%ADD31RoundRect,0.250000X-0.700000X1.825000X-0.700000X-1.825000X0.700000X-1.825000X0.700000X1.825000X0*%
%ADD32R,1.060000X0.650000*%
%ADD33RoundRect,0.218750X0.218750X0.256250X-0.218750X0.256250X-0.218750X-0.256250X0.218750X-0.256250X0*%
%ADD34C,0.508000*%
%ADD35O,0.710000X0.508000*%
%ADD36O,1.346200X1.092200*%
%ADD37R,0.304800X0.863600*%
%ADD38O,1.700000X3.000000*%
%ADD39R,0.700000X0.340000*%
%ADD40R,1.400000X1.200000*%
%ADD41FreePoly1,0.000000*%
%ADD42R,0.900000X1.500000*%
%ADD43FreePoly2,0.000000*%
%ADD44RoundRect,0.062500X0.687500X0.062500X-0.687500X0.062500X-0.687500X-0.062500X0.687500X-0.062500X0*%
%ADD45RoundRect,0.062500X0.062500X0.687500X-0.062500X0.687500X-0.062500X-0.687500X0.062500X-0.687500X0*%
%ADD46R,1.220000X0.650000*%
%ADD47R,1.700000X0.650000*%
%ADD48C,0.654000*%
%ADD49R,0.230000X0.850000*%
%ADD50R,0.230000X1.000000*%
%ADD51R,2.400000X1.380000*%
%ADD52O,1.500000X2.550000*%
%ADD53RoundRect,0.100000X0.100000X-0.637500X0.100000X0.637500X-0.100000X0.637500X-0.100000X-0.637500X0*%
%ADD54R,1.700000X1.700000*%
%ADD55O,1.700000X1.700000*%
%ADD56O,1.700000X2.900000*%
%ADD57R,1.700000X3.000000*%
%ADD58Outline6P,-0.381000X0.120000X-0.201000X0.300000X0.381000X0.300000X0.381000X-0.300000X-0.201000X-0.300000X-0.381000X-0.120000X180.000000*%
%ADD59Outline6P,-0.381000X0.300000X0.201000X0.300000X0.381000X0.120000X0.381000X-0.120000X0.201000X-0.300000X-0.381000X-0.300000X180.000000*%
%ADD60FreePoly3,270.000000*%
%ADD61FreePoly4,270.000000*%
G04 APERTURE END LIST*
D10*
X2924000Y49082500D03*
X2924000Y50657500D03*
D11*
X36888500Y37036000D03*
X36888500Y38006000D03*
D12*
X33528000Y11130000D03*
X33528000Y10160000D03*
D11*
X4826000Y27709000D03*
X4826000Y28679000D03*
D12*
X38989000Y11130000D03*
X38989000Y10160000D03*
D13*
X54356000Y59690000D03*
D12*
X30099000Y9225000D03*
X30099000Y8255000D03*
D14*
X59690000Y3810000D03*
D15*
X45460500Y27244000D03*
X45460500Y29144000D03*
X43185500Y28194000D03*
D16*
X2436000Y17399000D03*
X3406000Y17399000D03*
D17*
X29949000Y24257000D03*
X28979000Y24257000D03*
D10*
X52093000Y50139500D03*
X52093000Y51714500D03*
D18*
X51181000Y58928000D03*
D19*
X28952000Y12444000D03*
X29602000Y12444000D03*
X30252000Y12444000D03*
X30902000Y12444000D03*
X31552000Y12444000D03*
X32202000Y12444000D03*
X32852000Y12444000D03*
X33502000Y12444000D03*
X34152000Y12444000D03*
X34802000Y12444000D03*
X34802000Y18244000D03*
X34152000Y18244000D03*
X33502000Y18244000D03*
X32852000Y18244000D03*
X32202000Y18244000D03*
X31552000Y18244000D03*
X30902000Y18244000D03*
X30252000Y18244000D03*
X29602000Y18244000D03*
X28952000Y18244000D03*
D20*
X34739500Y25411000D03*
X34739500Y26061000D03*
X34739500Y26711000D03*
X34739500Y27361000D03*
X34739500Y28011000D03*
X34739500Y28661000D03*
X34739500Y29311000D03*
X34739500Y29961000D03*
X29014500Y29961000D03*
X29014500Y29311000D03*
X29014500Y28661000D03*
X29014500Y28011000D03*
X29014500Y27361000D03*
X29014500Y26711000D03*
X29014500Y26061000D03*
X29014500Y25411000D03*
D12*
X30929500Y24402000D03*
X30929500Y23432000D03*
D17*
X24615000Y54610000D03*
X23645000Y54610000D03*
D21*
X58476500Y13589000D03*
D22*
X58564000Y12089000D03*
D21*
X58476500Y10589000D03*
D12*
X25527000Y11130000D03*
X25527000Y10160000D03*
D17*
X51412000Y16510000D03*
X50442000Y16510000D03*
D11*
X5334000Y44854000D03*
X5334000Y45824000D03*
D17*
X37188000Y27813000D03*
X36218000Y27813000D03*
D23*
X56362500Y16891000D03*
X57937500Y16891000D03*
D12*
X42545000Y9225000D03*
X42545000Y8255000D03*
D23*
X33121500Y22987000D03*
X34696500Y22987000D03*
D16*
X28139000Y36270000D03*
X29109000Y36270000D03*
D24*
X4401500Y47170000D03*
X5036500Y47170000D03*
X5671500Y47170000D03*
X6306500Y47170000D03*
X6941500Y47170000D03*
X7576500Y47170000D03*
X8211500Y47170000D03*
X8846500Y47170000D03*
X8846500Y52370000D03*
X8211500Y52370000D03*
X7576500Y52370000D03*
X6941500Y52370000D03*
X6306500Y52370000D03*
X5671500Y52370000D03*
X5036500Y52370000D03*
X4401500Y52370000D03*
D25*
X24400000Y2407500D03*
X39100000Y2407500D03*
D26*
X26000000Y4477500D03*
X26500000Y4477500D03*
X27000000Y4477500D03*
X27500000Y4477500D03*
X28000000Y4477500D03*
X28500000Y4477500D03*
X29000000Y4477500D03*
X29500000Y4477500D03*
X30000000Y4477500D03*
X30500000Y4477500D03*
X31000000Y4477500D03*
X31500000Y4477500D03*
X32000000Y4477500D03*
X32500000Y4477500D03*
X33000000Y4477500D03*
X33500000Y4477500D03*
X34000000Y4477500D03*
X34500000Y4477500D03*
X35000000Y4477500D03*
X35500000Y4477500D03*
X36000000Y4477500D03*
X36500000Y4477500D03*
X37000000Y4477500D03*
X37500000Y4477500D03*
D12*
X30734000Y11130000D03*
X30734000Y10160000D03*
D17*
X27028000Y28956000D03*
X26058000Y28956000D03*
D27*
X28692000Y44368000D03*
X28692000Y43718000D03*
X28692000Y43068000D03*
X28692000Y42418000D03*
X28692000Y41768000D03*
X28692000Y41118000D03*
X28692000Y40468000D03*
X28692000Y39818000D03*
X34417000Y39818000D03*
X34417000Y40468000D03*
X34417000Y41118000D03*
X34417000Y41768000D03*
X34417000Y42418000D03*
X34417000Y43068000D03*
X34417000Y43718000D03*
X34417000Y44368000D03*
D12*
X7386000Y45429000D03*
X7386000Y44459000D03*
D28*
X61595000Y18014000D03*
X61595000Y15514000D03*
D29*
X54399000Y41465000D03*
X54399000Y46165000D03*
D17*
X26520000Y48768000D03*
X25550000Y48768000D03*
X34833500Y38664000D03*
X33863500Y38664000D03*
D23*
X28168500Y22987000D03*
X29743500Y22987000D03*
D16*
X29039000Y34270000D03*
X30009000Y34270000D03*
D30*
X49276000Y7010500D03*
X49276000Y5435500D03*
D17*
X29822000Y54483000D03*
X28852000Y54483000D03*
D12*
X29337000Y11130000D03*
X29337000Y10160000D03*
D31*
X57872500Y27478000D03*
X57872500Y20528000D03*
D12*
X46990000Y7724000D03*
X46990000Y6754000D03*
D10*
X41529000Y35153500D03*
X41529000Y36728500D03*
D16*
X23010000Y56007000D03*
X23980000Y56007000D03*
D23*
X36423500Y30099000D03*
X37998500Y30099000D03*
D28*
X53657000Y50419000D03*
X56157000Y50419000D03*
D17*
X36934000Y40259000D03*
X35964000Y40259000D03*
D32*
X34559500Y35301000D03*
X34559500Y36251000D03*
X34559500Y37201000D03*
X32359500Y37201000D03*
X32359500Y35301000D03*
D33*
X38125500Y44760000D03*
X36550500Y44760000D03*
D12*
X23624000Y45955000D03*
X23624000Y44985000D03*
D16*
X26058000Y26924000D03*
X27028000Y26924000D03*
D11*
X19685000Y17526000D03*
X19685000Y18496000D03*
D34*
X48708000Y57658000D03*
D35*
X41208000Y57658000D03*
D36*
X47358000Y55507999D03*
X42558000Y55507999D03*
X47358000Y59808001D03*
X42558000Y59808001D03*
D37*
X47708000Y56793000D03*
X46208000Y56793000D03*
X45708001Y56793000D03*
X45208000Y56793000D03*
X44708000Y56793000D03*
X44207999Y56793000D03*
X43708000Y56793000D03*
X42208000Y56793000D03*
X42208000Y58523000D03*
X43708000Y58523000D03*
X44207999Y58523000D03*
X44708000Y58523000D03*
X45208000Y58523000D03*
X45708001Y58523000D03*
X46208000Y58523000D03*
X47708000Y58523000D03*
D17*
X5311000Y43434000D03*
X4341000Y43434000D03*
D11*
X47541000Y43076000D03*
X47541000Y44046000D03*
D17*
X15725000Y54610000D03*
X14755000Y54610000D03*
D16*
X32916000Y24257000D03*
X33886000Y24257000D03*
D23*
X50647500Y17780000D03*
X52222500Y17780000D03*
D17*
X48280000Y48641000D03*
X47310000Y48641000D03*
X33251000Y30988000D03*
X32281000Y30988000D03*
D16*
X28139000Y37270000D03*
X29109000Y37270000D03*
D18*
X38735000Y37973000D03*
D12*
X4318000Y21821000D03*
X4318000Y20851000D03*
X26289000Y9225000D03*
X26289000Y8255000D03*
D23*
X48785500Y43180000D03*
X50360500Y43180000D03*
D17*
X36992500Y43490000D03*
X36022500Y43490000D03*
X26520000Y49784000D03*
X25550000Y49784000D03*
D12*
X4924000Y26555000D03*
X4924000Y25585000D03*
D30*
X50335000Y46253500D03*
X50335000Y44678500D03*
D17*
X27028000Y31242000D03*
X26058000Y31242000D03*
D23*
X56362500Y15367000D03*
X57937500Y15367000D03*
D12*
X2286000Y45443000D03*
X2286000Y44473000D03*
D11*
X10053000Y50301000D03*
X10053000Y51271000D03*
D12*
X21971000Y9225000D03*
X21971000Y8255000D03*
D10*
X41529000Y38201500D03*
X41529000Y39776500D03*
D17*
X26901000Y52070000D03*
X25931000Y52070000D03*
D12*
X24892000Y9225000D03*
X24892000Y8255000D03*
D30*
X44196000Y7137500D03*
X44196000Y5562500D03*
D17*
X57127000Y14097000D03*
X56157000Y14097000D03*
D23*
X29057500Y53213000D03*
X30632500Y53213000D03*
D17*
X35156000Y30988000D03*
X34186000Y30988000D03*
D12*
X13624000Y44955000D03*
X13624000Y43985000D03*
X30988000Y34394000D03*
X30988000Y33424000D03*
D30*
X47625000Y18313500D03*
X47625000Y16738500D03*
X52324000Y7010500D03*
X52324000Y5435500D03*
D17*
X31346000Y30988000D03*
X30376000Y30988000D03*
D12*
X6350000Y45443000D03*
X6350000Y44473000D03*
D17*
X32928500Y38664000D03*
X31958500Y38664000D03*
D38*
X20066000Y2540000D03*
X17526000Y2540000D03*
X14986000Y2540000D03*
X12446000Y2540000D03*
D39*
X50534000Y40775000D03*
X50534000Y41275000D03*
X50534000Y41775000D03*
X49034000Y41775000D03*
X49034000Y41275000D03*
X49034000Y40775000D03*
D10*
X12446000Y56108500D03*
X12446000Y57683500D03*
D11*
X27813000Y17526000D03*
X27813000Y18496000D03*
D17*
X28933000Y51943000D03*
X27963000Y51943000D03*
D12*
X41783000Y11130000D03*
X41783000Y10160000D03*
D40*
X5912000Y21275000D03*
X8312000Y21275000D03*
X8312000Y23175000D03*
X5912000Y23175000D03*
D12*
X27109500Y41308000D03*
X27109500Y40338000D03*
D16*
X33990500Y45395000D03*
X34960500Y45395000D03*
D30*
X46101000Y18313500D03*
X46101000Y16738500D03*
D17*
X15709000Y45970000D03*
X14739000Y45970000D03*
X26901000Y54102000D03*
X25931000Y54102000D03*
D10*
X33528000Y55854500D03*
X33528000Y57429500D03*
D12*
X32893000Y9225000D03*
X32893000Y8255000D03*
D17*
X37315000Y25273000D03*
X36345000Y25273000D03*
D33*
X33807500Y33655000D03*
X32232500Y33655000D03*
D16*
X2436000Y16129000D03*
X3406000Y16129000D03*
X36980000Y42418000D03*
X37950000Y42418000D03*
D12*
X11624000Y45455000D03*
X11624000Y44485000D03*
X48006000Y7724000D03*
X48006000Y6754000D03*
D41*
X36927000Y23114000D03*
D42*
X38227000Y23114000D03*
D43*
X39527000Y23114000D03*
D12*
X10624000Y45455000D03*
X10624000Y44485000D03*
D30*
X41529000Y33426500D03*
X41529000Y31851500D03*
D12*
X45466000Y36680000D03*
X45466000Y35710000D03*
X41021000Y9225000D03*
X41021000Y8255000D03*
D44*
X23860000Y47292000D03*
X23860000Y47692000D03*
X23860000Y48092000D03*
X23860000Y48492000D03*
X23860000Y48892000D03*
X23860000Y49292000D03*
X23860000Y49692000D03*
X23860000Y50092000D03*
X23860000Y50492000D03*
X23860000Y50892000D03*
X23860000Y51292000D03*
X23860000Y51692000D03*
X23860000Y52092000D03*
X23860000Y52492000D03*
X23860000Y52892000D03*
X23860000Y53292000D03*
D45*
X22685000Y54467000D03*
X22285000Y54467000D03*
X21885000Y54467000D03*
X21485000Y54467000D03*
X21085000Y54467000D03*
X20685000Y54467000D03*
X20285000Y54467000D03*
X19885000Y54467000D03*
X19485000Y54467000D03*
X19085000Y54467000D03*
X18685000Y54467000D03*
X18285000Y54467000D03*
X17885000Y54467000D03*
X17485000Y54467000D03*
X17085000Y54467000D03*
X16685000Y54467000D03*
D44*
X15510000Y53292000D03*
X15510000Y52892000D03*
X15510000Y52492000D03*
X15510000Y52092000D03*
X15510000Y51692000D03*
X15510000Y51292000D03*
X15510000Y50892000D03*
X15510000Y50492000D03*
X15510000Y50092000D03*
X15510000Y49692000D03*
X15510000Y49292000D03*
X15510000Y48892000D03*
X15510000Y48492000D03*
X15510000Y48092000D03*
X15510000Y47692000D03*
X15510000Y47292000D03*
D45*
X16685000Y46117000D03*
X17085000Y46117000D03*
X17485000Y46117000D03*
X17885000Y46117000D03*
X18285000Y46117000D03*
X18685000Y46117000D03*
X19085000Y46117000D03*
X19485000Y46117000D03*
X19885000Y46117000D03*
X20285000Y46117000D03*
X20685000Y46117000D03*
X21085000Y46117000D03*
X21485000Y46117000D03*
X21885000Y46117000D03*
X22285000Y46117000D03*
X22685000Y46117000D03*
D12*
X3324000Y45429000D03*
X3324000Y44459000D03*
D23*
X36550500Y26543000D03*
X38125500Y26543000D03*
D12*
X47879000Y31473000D03*
X47879000Y30503000D03*
X37592000Y11130000D03*
X37592000Y10160000D03*
D10*
X46017000Y49885500D03*
X46017000Y51460500D03*
D11*
X34544000Y10183000D03*
X34544000Y11153000D03*
D12*
X31945500Y24402000D03*
X31945500Y23432000D03*
D46*
X31790000Y55819000D03*
X31790000Y56769000D03*
X31790000Y57719000D03*
X29170000Y57719000D03*
X29170000Y55819000D03*
D12*
X7874000Y54714000D03*
X7874000Y53744000D03*
X35872500Y38006000D03*
X35872500Y37036000D03*
X31496000Y9225000D03*
X31496000Y8255000D03*
D14*
X59690000Y58420000D03*
D30*
X50335000Y36601500D03*
X50335000Y35026500D03*
D17*
X29441000Y30988000D03*
X28471000Y30988000D03*
D16*
X24661000Y60870000D03*
X25631000Y60870000D03*
D17*
X27028000Y30226000D03*
X26058000Y30226000D03*
D28*
X35072000Y58039000D03*
X37572000Y58039000D03*
D11*
X13970000Y50973000D03*
X13970000Y51943000D03*
D30*
X45847000Y14122500D03*
X45847000Y12547500D03*
D12*
X38227000Y9225000D03*
X38227000Y8255000D03*
X32131000Y11130000D03*
X32131000Y10160000D03*
D30*
X50800000Y7010500D03*
X50800000Y5435500D03*
D47*
X5024000Y17410000D03*
X5024000Y16140000D03*
X5024000Y14870000D03*
X5024000Y13600000D03*
X12324000Y13600000D03*
X12324000Y14870000D03*
X12324000Y16140000D03*
X12324000Y17410000D03*
D16*
X25931000Y51054000D03*
X26901000Y51054000D03*
D38*
X51308000Y22860000D03*
X48768000Y22860000D03*
X46228000Y22860000D03*
X43688000Y22860000D03*
D12*
X40386000Y11130000D03*
X40386000Y10160000D03*
X22733000Y11130000D03*
X22733000Y10160000D03*
D13*
X9144000Y59690000D03*
D11*
X47541000Y33678000D03*
X47541000Y34648000D03*
D30*
X49149000Y18313500D03*
X49149000Y16738500D03*
D17*
X37188000Y28829000D03*
X36218000Y28829000D03*
D10*
X12446000Y59283500D03*
X12446000Y60858500D03*
D12*
X44450000Y44046000D03*
X44450000Y43076000D03*
D48*
X20824000Y27670000D03*
X19824000Y27670000D03*
X18824000Y27670000D03*
X17824000Y27670000D03*
X16824000Y27670000D03*
X15824000Y27670000D03*
X14824000Y27670000D03*
X13824000Y27670000D03*
X12824000Y27670000D03*
X11824000Y27670000D03*
X10824000Y27670000D03*
X9824000Y27670000D03*
X8824000Y27670000D03*
X7824000Y27670000D03*
X20824000Y28670000D03*
X19824000Y28670000D03*
X18824000Y28670000D03*
X17824000Y28670000D03*
X16824000Y28670000D03*
X15824000Y28670000D03*
X14824000Y28670000D03*
X13824000Y28670000D03*
X12824000Y28670000D03*
X11824000Y28670000D03*
X10824000Y28670000D03*
X9824000Y28670000D03*
X8824000Y28670000D03*
X7824000Y28670000D03*
X20824000Y29670000D03*
X19824000Y29670000D03*
X18824000Y29670000D03*
X17824000Y29670000D03*
X16824000Y29670000D03*
X15824000Y29670000D03*
X14824000Y29670000D03*
X13824000Y29670000D03*
X12824000Y29670000D03*
X11824000Y29670000D03*
X10824000Y29670000D03*
X9824000Y29670000D03*
X8824000Y29670000D03*
X7824000Y29670000D03*
X20824000Y30670000D03*
X19824000Y30670000D03*
X18824000Y30670000D03*
X17824000Y30670000D03*
X16824000Y30670000D03*
X15824000Y30670000D03*
X14824000Y30670000D03*
X13824000Y30670000D03*
X12824000Y30670000D03*
X11824000Y30670000D03*
X10824000Y30670000D03*
X9824000Y30670000D03*
X8824000Y30670000D03*
X7824000Y30670000D03*
X20824000Y31670000D03*
X19824000Y31670000D03*
X18824000Y31670000D03*
X17824000Y31670000D03*
X16824000Y31670000D03*
X15824000Y31670000D03*
X14824000Y31670000D03*
X13824000Y31670000D03*
X12824000Y31670000D03*
X11824000Y31670000D03*
X10824000Y31670000D03*
X9824000Y31670000D03*
X8824000Y31670000D03*
X7824000Y31670000D03*
X20824000Y32670000D03*
X19824000Y32670000D03*
X18824000Y32670000D03*
X17824000Y32670000D03*
X16824000Y32670000D03*
X15824000Y32670000D03*
X14824000Y32670000D03*
X13824000Y32670000D03*
X12824000Y32670000D03*
X11824000Y32670000D03*
X10824000Y32670000D03*
X9824000Y32670000D03*
X8824000Y32670000D03*
X7824000Y32670000D03*
X20824000Y33670000D03*
X19824000Y33670000D03*
X18824000Y33670000D03*
X17824000Y33670000D03*
X16824000Y33670000D03*
X15824000Y33670000D03*
X14824000Y33670000D03*
X13824000Y33670000D03*
X12824000Y33670000D03*
X11824000Y33670000D03*
X10824000Y33670000D03*
X9824000Y33670000D03*
X8824000Y33670000D03*
X7824000Y33670000D03*
X20824000Y34670000D03*
X19824000Y34670000D03*
X18824000Y34670000D03*
X17824000Y34670000D03*
X16824000Y34670000D03*
X15824000Y34670000D03*
X14824000Y34670000D03*
X13824000Y34670000D03*
X12824000Y34670000D03*
X11824000Y34670000D03*
X10824000Y34670000D03*
X9824000Y34670000D03*
X8824000Y34670000D03*
X7824000Y34670000D03*
X20824000Y35670000D03*
X19824000Y35670000D03*
X18824000Y35670000D03*
X17824000Y35670000D03*
X16824000Y35670000D03*
X15824000Y35670000D03*
X14824000Y35670000D03*
X13824000Y35670000D03*
X12824000Y35670000D03*
X11824000Y35670000D03*
X10824000Y35670000D03*
X9824000Y35670000D03*
X8824000Y35670000D03*
X7824000Y35670000D03*
X20824000Y36670000D03*
X19824000Y36670000D03*
X18824000Y36670000D03*
X17824000Y36670000D03*
X16824000Y36670000D03*
X15824000Y36670000D03*
X14824000Y36670000D03*
X13824000Y36670000D03*
X12824000Y36670000D03*
X11824000Y36670000D03*
X10824000Y36670000D03*
X9824000Y36670000D03*
X8824000Y36670000D03*
X7824000Y36670000D03*
X20824000Y37670000D03*
X19824000Y37670000D03*
X18824000Y37670000D03*
X17824000Y37670000D03*
X16824000Y37670000D03*
X15824000Y37670000D03*
X14824000Y37670000D03*
X13824000Y37670000D03*
X12824000Y37670000D03*
X11824000Y37670000D03*
X10824000Y37670000D03*
X9824000Y37670000D03*
X8824000Y37670000D03*
X7824000Y37670000D03*
X20824000Y38670000D03*
X19824000Y38670000D03*
X18824000Y38670000D03*
X17824000Y38670000D03*
X16824000Y38670000D03*
X15824000Y38670000D03*
X14824000Y38670000D03*
X13824000Y38670000D03*
X12824000Y38670000D03*
X11824000Y38670000D03*
X10824000Y38670000D03*
X9824000Y38670000D03*
X8824000Y38670000D03*
X7824000Y38670000D03*
X20824000Y39670000D03*
X19824000Y39670000D03*
X18824000Y39670000D03*
X17824000Y39670000D03*
X16824000Y39670000D03*
X15824000Y39670000D03*
X14824000Y39670000D03*
X13824000Y39670000D03*
X12824000Y39670000D03*
X11824000Y39670000D03*
X10824000Y39670000D03*
X9824000Y39670000D03*
X8824000Y39670000D03*
X7824000Y39670000D03*
X20824000Y40670000D03*
X19824000Y40670000D03*
X18824000Y40670000D03*
X17824000Y40670000D03*
X16824000Y40670000D03*
X15824000Y40670000D03*
X14824000Y40670000D03*
X13824000Y40670000D03*
X12824000Y40670000D03*
X11824000Y40670000D03*
X10824000Y40670000D03*
X9824000Y40670000D03*
X8824000Y40670000D03*
X7824000Y40670000D03*
D16*
X44981000Y11303000D03*
X45951000Y11303000D03*
D17*
X43792000Y30480000D03*
X42822000Y30480000D03*
D11*
X35941000Y17526000D03*
X35941000Y18496000D03*
D49*
X16996000Y58852000D03*
D50*
X17196000Y60077000D03*
D49*
X17396000Y58852000D03*
D50*
X17596000Y60077000D03*
D49*
X17796000Y58852000D03*
D50*
X17996000Y60077000D03*
D49*
X18196000Y58852000D03*
D50*
X18396000Y60077000D03*
D49*
X18596000Y58852000D03*
D50*
X18796000Y60077000D03*
D49*
X18996000Y58852000D03*
D50*
X19196000Y60077000D03*
D49*
X19396000Y58852000D03*
D50*
X19596000Y60077000D03*
D49*
X19796000Y58852000D03*
D50*
X19996000Y60077000D03*
D49*
X20196000Y58852000D03*
D50*
X20396000Y60077000D03*
D49*
X20596000Y58852000D03*
D51*
X22246000Y60267000D03*
D52*
X21896000Y63627000D03*
X15696000Y63627000D03*
D51*
X15346000Y60267000D03*
D16*
X24661000Y58801000D03*
X25631000Y58801000D03*
D33*
X47777500Y5461000D03*
X46202500Y5461000D03*
D38*
X51308000Y2540000D03*
X48768000Y2540000D03*
X46228000Y2540000D03*
X43688000Y2540000D03*
D17*
X31023500Y38664000D03*
X30053500Y38664000D03*
D16*
X7439000Y24570000D03*
X8409000Y24570000D03*
D39*
X50534000Y30615000D03*
X50534000Y31115000D03*
X50534000Y31615000D03*
X49034000Y31615000D03*
X49034000Y31115000D03*
X49034000Y30615000D03*
D11*
X46482000Y35710000D03*
X46482000Y36680000D03*
D30*
X48811000Y46253500D03*
X48811000Y44678500D03*
D11*
X4826000Y32916000D03*
X4826000Y33886000D03*
D17*
X14963000Y17272000D03*
X13993000Y17272000D03*
D23*
X48785500Y33528000D03*
X50360500Y33528000D03*
D12*
X12624000Y45455000D03*
X12624000Y44485000D03*
D16*
X35895500Y34981000D03*
X36865500Y34981000D03*
D14*
X3810000Y3810000D03*
D17*
X37188000Y35997000D03*
X36218000Y35997000D03*
D12*
X4824000Y30855000D03*
X4824000Y29885000D03*
D53*
X47453000Y9202500D03*
X48103000Y9202500D03*
X48753000Y9202500D03*
X49403000Y9202500D03*
X50053000Y9202500D03*
X50703000Y9202500D03*
X51353000Y9202500D03*
X51353000Y14927500D03*
X50703000Y14927500D03*
X50053000Y14927500D03*
X49403000Y14927500D03*
X48753000Y14927500D03*
X48103000Y14927500D03*
X47453000Y14927500D03*
D54*
X2438000Y40488000D03*
D55*
X2438000Y37948000D03*
X2438000Y35408000D03*
X2438000Y32868000D03*
X2438000Y30328000D03*
X2438000Y27788000D03*
D30*
X41529000Y29616500D03*
X41529000Y28041500D03*
D16*
X32085500Y45395000D03*
X33055500Y45395000D03*
D17*
X31009000Y37270000D03*
X30039000Y37270000D03*
D28*
X52070000Y48387000D03*
X54570000Y48387000D03*
D46*
X50355000Y49977000D03*
X50355000Y50927000D03*
X50355000Y51877000D03*
X47735000Y51877000D03*
X47735000Y49977000D03*
D12*
X8382000Y45443000D03*
X8382000Y44473000D03*
D30*
X44323000Y14122500D03*
X44323000Y12547500D03*
D12*
X46482000Y44046000D03*
X46482000Y43076000D03*
D16*
X26058000Y27940000D03*
X27028000Y27940000D03*
D17*
X14963000Y14224000D03*
X13993000Y14224000D03*
D12*
X4318000Y45443000D03*
X4318000Y44473000D03*
D11*
X10053000Y48269000D03*
X10053000Y49239000D03*
D17*
X26901000Y53086000D03*
X25931000Y53086000D03*
D11*
X45466000Y43076000D03*
X45466000Y44046000D03*
D30*
X45720000Y8534500D03*
X45720000Y6959500D03*
D10*
X13424000Y46682500D03*
X13424000Y48257500D03*
D23*
X59791500Y8787000D03*
X61366500Y8787000D03*
D16*
X26058000Y25908000D03*
X27028000Y25908000D03*
D17*
X14963000Y15494000D03*
X13993000Y15494000D03*
D29*
X54399000Y31686000D03*
X54399000Y36386000D03*
D16*
X2436000Y14870000D03*
X3406000Y14870000D03*
D12*
X25524000Y47055000D03*
X25524000Y46085000D03*
D56*
X20066000Y22860000D03*
D38*
X17526000Y22860000D03*
X14986000Y22860000D03*
X12446000Y22860000D03*
D23*
X14198500Y18542000D03*
X15773500Y18542000D03*
D12*
X23495000Y9225000D03*
X23495000Y8255000D03*
D16*
X6350000Y43434000D03*
X7320000Y43434000D03*
D12*
X21336000Y11130000D03*
X21336000Y10160000D03*
X47498000Y36680000D03*
X47498000Y35710000D03*
D11*
X35941000Y41425000D03*
X35941000Y42395000D03*
D12*
X24130000Y11130000D03*
X24130000Y10160000D03*
D16*
X5865000Y53721000D03*
X6835000Y53721000D03*
D57*
X9271000Y9017000D03*
D38*
X11811000Y9017000D03*
X14351000Y9017000D03*
D19*
X37080000Y12444000D03*
X37730000Y12444000D03*
X38380000Y12444000D03*
X39030000Y12444000D03*
X39680000Y12444000D03*
X40330000Y12444000D03*
X40980000Y12444000D03*
X41630000Y12444000D03*
X42280000Y12444000D03*
X42930000Y12444000D03*
X42930000Y18244000D03*
X42280000Y18244000D03*
X41630000Y18244000D03*
X40980000Y18244000D03*
X40330000Y18244000D03*
X39680000Y18244000D03*
X39030000Y18244000D03*
X38380000Y18244000D03*
X37730000Y18244000D03*
X37080000Y18244000D03*
D12*
X47752000Y40744000D03*
X47752000Y39774000D03*
D58*
X38100000Y41402000D03*
D59*
X37084000Y41402000D03*
D12*
X39624000Y9225000D03*
X39624000Y8255000D03*
D16*
X29039000Y35270000D03*
X30009000Y35270000D03*
D12*
X4318000Y23853000D03*
X4318000Y22883000D03*
D30*
X48811000Y36601500D03*
X48811000Y35026500D03*
D17*
X31009000Y36270000D03*
X30039000Y36270000D03*
D14*
X3810000Y58420000D03*
D28*
X35072000Y56007000D03*
X37572000Y56007000D03*
D18*
X51181000Y56388000D03*
D60*
X54737000Y8397000D03*
D61*
X54737000Y7097000D03*
D23*
X44170500Y10033000D03*
X45745500Y10033000D03*
D19*
X20824000Y12444000D03*
X21474000Y12444000D03*
X22124000Y12444000D03*
X22774000Y12444000D03*
X23424000Y12444000D03*
X24074000Y12444000D03*
X24724000Y12444000D03*
X25374000Y12444000D03*
X26024000Y12444000D03*
X26674000Y12444000D03*
X26674000Y18244000D03*
X26024000Y18244000D03*
X25374000Y18244000D03*
X24724000Y18244000D03*
X24074000Y18244000D03*
X23424000Y18244000D03*
X22774000Y18244000D03*
X22124000Y18244000D03*
X21474000Y18244000D03*
X20824000Y18244000D03*
M02*
