M48
; DRILL file {KiCad 8.0.7} date 2025-01-06T22:32:24+0100
; FORMAT={-:-/ absolute / inch / decimal}
; #@! TF.CreationDate,2025-01-06T22:32:24+01:00
; #@! TF.GenerationSoftware,Kicad,Pcbnew,8.0.7
; #@! TF.FileFunction,Plated,1,6,PTH
FMAT,2
INCH
; #@! TA.AperFunction,Plated,PTH,ViaDrill
T1C0.0118
; #@! TA.AperFunction,Plated,PTH,ComponentDrill
T2C0.0236
; #@! TA.AperFunction,Plated,PTH,ComponentDrill
T3C0.0256
; #@! TA.AperFunction,Plated,PTH,ComponentDrill
T4C0.0394
; #@! TA.AperFunction,Plated,PTH,ComponentDrill
T5C0.1260
%
G90
G05
T1
X0.05Y0.6
X0.065Y0.735
X0.07Y1.695
X0.0718Y0.8886
X0.075Y1.995
X0.075Y0.51
X0.09Y1.81
X0.095Y0.61
X0.0959Y0.66
X0.1033Y0.8256
X0.115Y2.035
X0.115Y1.905
X0.1348Y0.9398
X0.135Y1.345
X0.135Y1.245
X0.135Y1.145
X0.15Y1.93
X0.15Y1.045
X0.155Y1.995
X0.17Y0.38
X0.1702Y0.9713
X0.19Y1.36
X0.19Y1.1563
X0.1939Y0.9004
X0.1978Y1.4831
X0.1978Y0.5028
X0.205Y2.115
X0.2096Y1.5894
X0.21Y1.74
X0.2175Y1.298
X0.2175Y1.2193
X0.2233Y1.896
X0.2254Y1.6091
X0.2254Y1.4831
X0.2254Y1.3217
X0.2254Y1.113
X0.2293Y1.1957
X0.23Y2.145
X0.23Y1.71
X0.2341Y1.0911
X0.2411Y1.5894
X0.245Y0.71
X0.245Y0.6854
X0.245Y0.6354
X0.2468Y0.5854
X0.249Y2.0224
X0.25Y0.66
X0.2529Y1.4831
X0.2608Y0.987
X0.265Y0.755
X0.265Y0.57
X0.27Y2.14
X0.27Y1.67
X0.2726Y1.8965
X0.2726Y1.8138
X0.2733Y2.0224
X0.2805Y1.0028
X0.2805Y0.8768
X0.3041Y1.02
X0.308Y1.6012
X0.308Y1.4437
X0.308Y1.2469
X0.308Y1.0894
X0.31Y2.18
X0.3217Y2.0194
X0.325Y1.665
X0.3277Y0.7941
X0.33Y1.815
X0.345Y0.605
X0.345Y0.215
X0.3474Y1.5618
X0.3474Y1.4437
X0.3474Y1.3256
X0.3474Y1.1681
X0.3474Y1.0894
X0.365Y2.19
X0.37Y1.96
X0.375Y1.725
X0.375Y0.665
X0.3868Y1.5618
X0.3868Y1.3256
X0.3868Y1.1287
X0.3868Y1.0894
X0.3958Y1.9804
X0.3958Y1.9385
X0.3986Y1.676
X0.415Y1.825
X0.415Y0.61
X0.42Y0.635
X0.4261Y1.6012
X0.4261Y1.4831
X0.4261Y1.3256
X0.4261Y1.2075
X0.4261Y1.1681
X0.4261Y1.1287
X0.4296Y0.5336
X0.4362Y0.5563
X0.4372Y1.9382
X0.4397Y0.605
X0.4439Y2.2047
X0.45Y0.99
X0.4506Y2.1031
X0.4655Y1.4437
X0.4655Y1.365
X0.4655Y1.2862
X0.4655Y1.2469
X0.4655Y1.2075
X0.4655Y1.1681
X0.4655Y1.1287
X0.4655Y1.0894
X0.4811Y1.6681
X0.485Y0.76
X0.4852Y1.7232
X0.4852Y1.6957
X0.4852Y0.6839
X0.4891Y0.18
X0.49Y2.396
X0.49Y0.82
X0.497Y1.8138
X0.5049Y1.5618
X0.5049Y1.4831
X0.5049Y1.4437
X0.5049Y1.4043
X0.5049Y1.365
X0.5049Y1.3256
X0.5049Y1.2862
X0.5049Y1.2469
X0.5049Y1.2075
X0.5049Y1.1681
X0.5049Y1.1287
X0.5049Y1.0894
X0.515Y2.3059
X0.525Y2.045
X0.53Y1.9398
X0.53Y0.6854
X0.54Y2.37
X0.5443Y1.5618
X0.5443Y1.4831
X0.5443Y1.4437
X0.5443Y1.2469
X0.5443Y1.2075
X0.5443Y1.1681
X0.5443Y1.0894
X0.55Y2.075
X0.555Y2.215
X0.5561Y2.1484
X0.5561Y1.6957
X0.565Y2.42
X0.565Y1.035
X0.565Y0.445
X0.57Y0.515
X0.5718Y1.676
X0.5757Y1.8098
X0.5836Y1.6287
X0.5836Y1.4437
X0.5836Y1.2469
X0.5836Y1.2075
X0.5836Y1.1681
X0.5836Y1.1287
X0.585Y0.65
X0.5876Y1.6957
X0.5891Y0.585
X0.59Y0.82
X0.5915Y1.7626
X0.5915Y0.18
X0.6112Y2.2594
X0.6112Y1.8453
X0.623Y1.6012
X0.623Y1.5618
X0.623Y1.5224
X0.623Y1.4831
X0.623Y1.4437
X0.623Y1.4043
X0.623Y1.365
X0.623Y1.3256
X0.623Y1.2862
X0.623Y1.2469
X0.623Y1.2075
X0.623Y1.0894
X0.625Y1.02
X0.6348Y2.2114
X0.6387Y1.815
X0.64Y1.76
X0.64Y0.055
X0.6506Y2.0972
X0.6545Y2.3177
X0.6545Y1.8768
X0.655Y2.0036
X0.655Y1.685
X0.655Y0.82
X0.655Y0.73
X0.655Y0.605
X0.655Y0.445
X0.655Y0.33
X0.655Y0.245
X0.66Y2.205
X0.6624Y1.6012
X0.6624Y1.5618
X0.6624Y1.5224
X0.6624Y1.4437
X0.6624Y1.4043
X0.6624Y1.365
X0.6624Y1.3256
X0.6624Y1.2862
X0.6624Y1.2469
X0.6689Y2.4144
X0.6702Y1.9004
X0.68Y2.06
X0.682Y1.8768
X0.685Y2.204
X0.69Y2.425
X0.6939Y2.0382
X0.6978Y1.9004
X0.7006Y2.4461
X0.7017Y1.5224
X0.7017Y1.4831
X0.7017Y1.4437
X0.7017Y1.4043
X0.7017Y1.365
X0.7017Y1.3256
X0.7017Y1.2469
X0.7017Y1.2075
X0.7056Y2.06
X0.7135Y1.8765
X0.715Y2.425
X0.725Y0.82
X0.725Y0.705
X0.725Y0.605
X0.725Y0.39
X0.725Y0.28
X0.7264Y2.2049
X0.73Y2.09
X0.74Y2.44
X0.74Y0.055
X0.7411Y1.5618
X0.7411Y1.5224
X0.7411Y1.4437
X0.7411Y1.3256
X0.7411Y1.2862
X0.7411Y1.2469
X0.7411Y1.2075
X0.7411Y1.1681
X0.745Y1.7
X0.75Y2.2054
X0.755Y2.235
X0.755Y2.095
X0.76Y2.065
X0.765Y2.425
X0.7671Y1.8768
X0.7734Y2.4471
X0.774Y2.0441
X0.775Y2.205
X0.7805Y1.9004
X0.7805Y1.5618
X0.7805Y1.4437
X0.7805Y1.3256
X0.7805Y1.2862
X0.7805Y1.2469
X0.7805Y1.2075
X0.7805Y1.1681
X0.7805Y1.1287
X0.7805Y1.0894
X0.785Y2.065
X0.7883Y0.82
X0.7883Y0.6563
X0.79Y2.43
X0.795Y0.35
X0.7983Y0.7183
X0.8Y2.205
X0.815Y2.435
X0.8198Y2.0185
X0.8198Y1.6012
X0.8198Y1.4437
X0.8198Y1.3256
X0.8198Y1.2862
X0.8198Y1.2469
X0.8198Y1.2075
X0.8198Y1.1681
X0.8198Y1.1287
X0.8198Y1.0894
X0.8198Y0.4909
X0.825Y2.205
X0.825Y2.09
X0.8317Y2.3295
X0.8317Y1.9713
X0.845Y0.765
X0.8474Y0.6799
X0.85Y2.205
X0.85Y0.21
X0.8537Y1.1126
X0.8553Y1.4909
X0.8586Y2.0
X0.8626Y1.8968
X0.8631Y2.0933
X0.875Y2.215
X0.8774Y2.185
X0.88Y2.265
X0.8828Y1.9122
X0.8828Y1.8846
X0.885Y2.04
X0.885Y0.05
X0.8868Y1.5185
X0.89Y2.075
X0.8907Y1.302
X0.8946Y1.4476
X0.9025Y1.7035
X0.9025Y1.5382
X0.905Y0.565
X0.9065Y1.6524
X0.9065Y1.5894
X0.9104Y1.8156
X0.9104Y1.3177
X0.9104Y1.2862
X0.9183Y1.4634
X0.9222Y1.7193
X0.9301Y1.7705
X0.94Y1.235
X0.94Y0.275
X0.9576Y1.3886
X0.96Y2.275
X0.9616Y1.7705
X0.9616Y1.5972
X0.9655Y1.5224
X0.975Y2.205
X0.9773Y1.7035
X0.9813Y1.5382
X0.9828Y1.1839
X0.9852Y0.6287
X0.99Y2.115
X0.99Y2.0036
X0.99Y0.89
X0.997Y1.7193
X0.997Y1.4476
X1.0Y0.955
X1.0Y0.9136
X1.005Y2.2
X1.005Y2.17
X1.005Y1.41
X1.0088Y2.42
X1.0128Y1.3335
X1.0259Y1.1
X1.035Y2.315
X1.035Y2.2
X1.035Y2.17
X1.0443Y1.165
X1.0482Y0.5303
X1.05Y2.235
X1.055Y1.815
X1.0561Y0.4516
X1.06Y2.1287
X1.06Y1.265
X1.0641Y1.23
X1.0641Y1.14
X1.065Y2.2
X1.065Y2.17
X1.0693Y0.9279
X1.07Y1.96
X1.075Y0.905
X1.075Y0.045
X1.0757Y1.672
X1.0797Y1.428
X1.08Y2.27
X1.0836Y1.6957
X1.09Y2.125
X1.09Y2.01
X1.09Y1.985
X1.09Y0.1248
X1.095Y1.535
X1.095Y0.66
X1.105Y1.295
X1.105Y0.865
X1.1183Y0.7183
X1.12Y0.36
X1.123Y1.9634
X1.125Y0.29
X1.1387Y0.4909
X1.145Y0.87
X1.155Y1.5
X1.1663Y0.676
X1.1742Y1.6445
X1.175Y2.045
X1.175Y0.845
X1.19Y1.8
X1.191Y0.6839
X1.195Y1.9
X1.1959Y1.22
X1.2Y1.495
X1.2Y1.03
X1.205Y2.23
X1.205Y2.195
X1.205Y2.155
X1.205Y2.045
X1.205Y0.66
X1.21Y0.05
X1.215Y2.27
X1.2161Y0.6839
X1.22Y1.39
X1.2214Y1.3531
X1.2214Y1.2902
X1.2214Y1.1209
X1.235Y2.045
X1.235Y0.275
X1.24Y0.22
X1.2422Y0.6839
X1.255Y0.66
X1.2569Y1.55
X1.2678Y0.6839
X1.27Y1.67
X1.27Y1.175
X1.274Y1.3898
X1.2844Y0.05
X1.2924Y0.6839
X1.295Y0.1248
X1.305Y2.315
X1.305Y0.66
X1.31Y1.745
X1.31Y1.245
X1.315Y1.09
X1.317Y0.6839
X1.32Y2.29
X1.32Y1.47
X1.32Y1.44
X1.3317Y1.2823
X1.335Y2.315
X1.34Y1.815
X1.3435Y0.6839
X1.355Y0.66
X1.355Y0.28
X1.3592Y0.365
X1.36Y1.92
X1.3631Y1.3256
X1.3677Y1.1284
X1.3677Y1.1028
X1.37Y0.9555
X1.371Y0.5264
X1.38Y1.815
X1.385Y1.245
X1.3922Y1.5222
X1.395Y1.4272
X1.3986Y0.487
X1.4Y2.065
X1.405Y1.7468
X1.405Y0.905
X1.4259Y1.135
X1.4259Y1.095
X1.43Y0.375
X1.435Y2.3
X1.435Y2.27
X1.435Y2.22
X1.435Y2.19
X1.438Y0.1248
X1.4383Y0.7183
X1.4537Y0.05
X1.4576Y0.4909
X1.465Y1.295
X1.4813Y0.676
X1.483Y0.8663
X1.485Y1.585
X1.495Y1.71
X1.495Y0.995
X1.497Y1.1366
X1.497Y1.0933
X1.5009Y1.7941
X1.5088Y0.6839
X1.525Y2.3
X1.525Y2.27
X1.525Y2.22
X1.525Y2.19
X1.525Y0.66
X1.53Y1.91
X1.5324Y1.1839
X1.535Y1.7
X1.5364Y1.0461
X1.5364Y0.6839
X1.5403Y1.7626
X1.55Y1.38
X1.555Y2.065
X1.561Y0.6839
X1.575Y0.66
X1.585Y0.845
X1.5876Y0.6839
X1.6Y0.275
X1.6122Y0.6839
X1.62Y0.96
X1.625Y0.8
X1.625Y0.66
X1.63Y1.04
X1.63Y1.015
X1.635Y1.595
X1.635Y1.35
X1.6387Y0.6839
X1.64Y1.82
X1.65Y1.66
X1.655Y1.04
X1.655Y1.015
X1.66Y0.9
X1.6633Y0.6839
X1.67Y0.215
X1.6742Y0.5382
X1.675Y0.66
X1.68Y1.04
X1.68Y1.015
X1.685Y1.23
X1.6899Y0.6839
X1.69Y2.045
X1.69Y0.76
X1.69Y0.465
X1.7Y0.395
X1.705Y1.04
X1.705Y1.015
X1.705Y0.28
X1.73Y1.57
X1.74Y2.27
X1.7417Y1.965
X1.7417Y1.935
X1.7417Y1.905
X1.75Y1.755
X1.7545Y2.3394
X1.755Y0.68
X1.76Y2.205
X1.76Y1.445
X1.765Y1.87
X1.7689Y1.6644
X1.77Y0.945
X1.77Y0.05
X1.7717Y1.965
X1.7717Y1.935
X1.7717Y1.905
X1.775Y0.661
X1.78Y2.34
X1.78Y2.19
X1.785Y1.285
X1.79Y2.09
X1.79Y1.465
X1.8Y2.27
X1.805Y0.355
X1.8089Y0.6006
X1.81Y2.07
X1.83Y2.09
X1.83Y1.675
X1.83Y1.385
X1.83Y0.59
X1.835Y0.745
X1.835Y0.405
X1.8417Y1.835
X1.8417Y1.805
X1.8417Y1.775
X1.845Y1.655
X1.8525Y0.4925
X1.86Y1.215
X1.86Y0.735
X1.86Y0.2
X1.8611Y0.4056
X1.865Y0.47
X1.87Y0.945
X1.87Y0.05
X1.8717Y1.835
X1.8717Y1.805
X1.8717Y1.775
X1.8775Y1.8925
X1.88Y1.545
X1.89Y0.55
X1.895Y0.405
X1.905Y1.605
X1.91Y0.425
X1.915Y0.54
X1.9194Y0.6294
X1.92Y0.76
X1.925Y0.405
X1.9275Y0.7875
X1.93Y1.915
X1.935Y1.96
X1.935Y1.175
X1.9404Y0.6402
X1.9417Y2.04
X1.945Y0.545
X1.945Y0.425
X1.9454Y2.0028
X1.955Y2.115
X1.955Y0.185
X1.96Y1.62
X1.9695Y0.54
X1.97Y1.88
X1.97Y0.635
X1.97Y0.425
X1.97Y0.32
X1.97Y0.05
X1.98Y1.17
X1.99Y1.575
X1.99Y1.55
X1.9931Y0.5421
X1.995Y0.32
X2.0Y2.42
X2.0Y2.395
X2.01Y1.17
X2.015Y1.575
X2.015Y1.55
X2.025Y1.195
X2.03Y2.42
X2.03Y2.395
X2.035Y2.095
X2.04Y1.575
X2.04Y1.55
X2.04Y1.17
X2.045Y1.37
X2.045Y1.34
X2.045Y1.31
X2.045Y0.405
X2.0467Y1.45
X2.0467Y1.415
X2.05Y1.755
X2.05Y1.725
X2.05Y1.695
X2.05Y0.66
X2.0517Y2.075
X2.07Y2.095
X2.07Y1.17
X2.07Y0.315
X2.075Y1.37
X2.075Y1.34
X2.075Y1.31
X2.075Y0.275
X2.08Y1.755
X2.08Y1.725
X2.08Y1.695
X2.0817Y1.45
X2.0817Y1.415
X2.095Y2.04
X2.1167Y1.45
X2.1167Y1.415
X2.135Y1.17
X2.145Y2.255
X2.1517Y1.45
X2.1517Y1.415
X2.155Y0.105
X2.165Y0.93
X2.175Y1.545
X2.185Y1.04
X2.19Y1.725
X2.1942Y1.92
X2.1942Y1.89
X2.195Y0.26
X2.2Y1.17
X2.215Y2.13
X2.2225Y1.92
X2.2225Y1.89
X2.255Y0.3
X2.2567Y2.0
X2.2567Y1.97
X2.26Y0.705
X2.275Y1.525
X2.275Y0.98
X2.285Y2.0
X2.285Y1.97
X2.295Y0.705
X2.305Y0.98
X2.32Y0.675
X2.32Y0.645
X2.32Y0.615
X2.32Y0.585
X2.325Y2.08
X2.33Y1.73
X2.335Y1.07
X2.335Y1.04
X2.335Y1.01
X2.335Y0.98
X2.34Y0.88
X2.34Y0.845
X2.34Y0.81
X2.34Y0.775
X2.34Y0.735
X2.35Y0.535
X2.36Y1.35
X2.3722Y0.495
X2.3722Y0.455
X2.39Y0.77
X2.4072Y0.495
X2.4072Y0.455
X2.425Y1.895
X2.425Y1.565
X2.425Y0.77
X2.43Y1.22
X2.4422Y0.495
X2.4422Y0.455
X2.46Y0.77
X2.46Y0.385
X2.46Y0.345
X2.46Y0.31
T4
X0.096Y1.594
X0.096Y1.494
X0.096Y1.394
X0.096Y1.294
X0.096Y1.194
X0.096Y1.094
X0.36Y2.35
X0.365Y0.355
X0.465Y0.355
X0.49Y0.9
X0.49Y0.1
X0.565Y0.355
X0.59Y0.9
X0.59Y0.1
X0.69Y0.9
X0.69Y0.1
X0.79Y0.9
X0.79Y0.1
X1.72Y0.9
X1.72Y0.1
X1.82Y0.9
X1.82Y0.1
X1.92Y0.9
X1.92Y0.1
X2.02Y0.9
X2.02Y0.1
X2.14Y2.35
T5
X0.15Y2.3
X0.15Y0.15
X2.35Y2.3
X2.35Y0.15
T2
G00X1.6814Y2.3546
M15
G01X1.6696Y2.3546
M16
G05
G00X1.6814Y2.1854
M15
G01X1.6696Y2.1854
M16
G05
G00X1.8704Y2.3546
M15
G01X1.8586Y2.3546
M16
G05
G00X1.8704Y2.1854
M15
G01X1.8586Y2.1854
M16
G05
T3
G00X0.618Y2.4843
M15
G01X0.618Y2.5257
M16
G05
G00X0.862Y2.4843
M15
G01X0.862Y2.5257
M16
G05
M30
