%TF.GenerationSoftware,KiCad,Pcbnew,9.0.6*%
%TF.CreationDate,2025-12-06T17:10:21+01:00*%
%TF.ProjectId,hd_64_v0,68645f36-345f-4763-902e-6b696361645f,0.3*%
%TF.SameCoordinates,PX4737720PY55fe290*%
%TF.FileFunction,Paste,Bot*%
%TF.FilePolarity,Positive*%
%FSLAX46Y46*%
G04 Gerber Fmt 4.6, Leading zero omitted, Abs format (unit mm)*
G04 Created by KiCad (PCBNEW 9.0.6) date 2025-12-06 17:10:21*
%MOMM*%
%LPD*%
G01*
G04 APERTURE LIST*
G04 Aperture macros list*
%AMRoundRect*
0 Rectangle with rounded corners*
0 $1 Rounding radius*
0 $2 $3 $4 $5 $6 $7 $8 $9 X,Y pos of 4 corners*
0 Add a 4 corners polygon primitive as box body*
4,1,4,$2,$3,$4,$5,$6,$7,$8,$9,$2,$3,0*
0 Add four circle primitives for the rounded corners*
1,1,$1+$1,$2,$3*
1,1,$1+$1,$4,$5*
1,1,$1+$1,$6,$7*
1,1,$1+$1,$8,$9*
0 Add four rect primitives between the rounded corners*
20,1,$1+$1,$2,$3,$4,$5,0*
20,1,$1+$1,$4,$5,$6,$7,0*
20,1,$1+$1,$6,$7,$8,$9,0*
20,1,$1+$1,$8,$9,$2,$3,0*%
G04 Aperture macros list end*
%ADD10RoundRect,0.243750X-0.456250X0.243750X-0.456250X-0.243750X0.456250X-0.243750X0.456250X0.243750X0*%
%ADD11RoundRect,0.147500X-0.147500X-0.172500X0.147500X-0.172500X0.147500X0.172500X-0.147500X0.172500X0*%
%ADD12RoundRect,0.147500X0.172500X-0.147500X0.172500X0.147500X-0.172500X0.147500X-0.172500X-0.147500X0*%
%ADD13RoundRect,0.147500X-0.172500X0.147500X-0.172500X-0.147500X0.172500X-0.147500X0.172500X0.147500X0*%
%ADD14RoundRect,0.147500X0.147500X0.172500X-0.147500X0.172500X-0.147500X-0.172500X0.147500X-0.172500X0*%
%ADD15RoundRect,0.218750X-0.256250X0.218750X-0.256250X-0.218750X0.256250X-0.218750X0.256250X0.218750X0*%
%ADD16RoundRect,0.218750X-0.218750X-0.256250X0.218750X-0.256250X0.218750X0.256250X-0.218750X0.256250X0*%
%ADD17RoundRect,0.218750X0.218750X0.256250X-0.218750X0.256250X-0.218750X-0.256250X0.218750X-0.256250X0*%
%ADD18RoundRect,0.243750X0.243750X0.456250X-0.243750X0.456250X-0.243750X-0.456250X0.243750X-0.456250X0*%
%ADD19RoundRect,0.218750X0.256250X-0.218750X0.256250X0.218750X-0.256250X0.218750X-0.256250X-0.218750X0*%
%ADD20RoundRect,0.243750X0.456250X-0.243750X0.456250X0.243750X-0.456250X0.243750X-0.456250X-0.243750X0*%
%ADD21RoundRect,0.243750X-0.243750X-0.456250X0.243750X-0.456250X0.243750X0.456250X-0.243750X0.456250X0*%
G04 APERTURE END LIST*
D10*
X24924000Y38807500D03*
X24924000Y36932500D03*
D11*
X45362000Y56769000D03*
X46332000Y56769000D03*
X15839000Y35670000D03*
X16809000Y35670000D03*
X18839000Y33670000D03*
X19809000Y33670000D03*
D12*
X12824000Y30685000D03*
X12824000Y31655000D03*
D13*
X12319000Y26774000D03*
X12319000Y25804000D03*
D11*
X7839000Y36670000D03*
X8809000Y36670000D03*
D14*
X20909000Y36670000D03*
X19939000Y36670000D03*
D15*
X50419000Y7010500D03*
X50419000Y5435500D03*
D13*
X47244000Y9629000D03*
X47244000Y8659000D03*
X19824000Y40655000D03*
X19824000Y39685000D03*
D14*
X12804000Y34670000D03*
X11834000Y34670000D03*
D15*
X44323000Y7391500D03*
X44323000Y5816500D03*
D14*
X12809000Y36670000D03*
X11839000Y36670000D03*
D16*
X47345500Y14986000D03*
X48920500Y14986000D03*
D12*
X18669000Y53871000D03*
X18669000Y54841000D03*
D13*
X11624000Y45455000D03*
X11624000Y44485000D03*
D17*
X10111500Y42570000D03*
X8536500Y42570000D03*
X11611500Y32570000D03*
X10036500Y32570000D03*
D16*
X45694500Y17526000D03*
X47269500Y17526000D03*
D13*
X9271000Y26774000D03*
X9271000Y25804000D03*
X49276000Y9629000D03*
X49276000Y8659000D03*
X10287000Y26774000D03*
X10287000Y25804000D03*
D10*
X22924000Y38807500D03*
X22924000Y36932500D03*
D18*
X25061500Y43670000D03*
X23186500Y43670000D03*
D14*
X14809000Y36670000D03*
X13839000Y36670000D03*
X9809000Y33770000D03*
X8839000Y33770000D03*
D12*
X20701000Y53871000D03*
X20701000Y54841000D03*
D19*
X23024000Y40382500D03*
X23024000Y41957500D03*
D15*
X45847000Y14122500D03*
X45847000Y12547500D03*
X51943000Y7010500D03*
X51943000Y5435500D03*
D14*
X9809000Y39670000D03*
X8839000Y39670000D03*
D16*
X47726500Y12827000D03*
X49301500Y12827000D03*
D13*
X11303000Y26774000D03*
X11303000Y25804000D03*
D11*
X44981000Y11303000D03*
X45951000Y11303000D03*
D10*
X5724000Y40607500D03*
X5724000Y38732500D03*
D19*
X24624000Y40382500D03*
X24624000Y41957500D03*
D13*
X12624000Y45455000D03*
X12624000Y44485000D03*
D15*
X48895000Y7010500D03*
X48895000Y5435500D03*
D11*
X20851000Y51816000D03*
X21821000Y51816000D03*
D19*
X45847000Y5816500D03*
X45847000Y7391500D03*
D13*
X16824000Y34655000D03*
X16824000Y33685000D03*
D14*
X16809000Y39770000D03*
X15839000Y39770000D03*
X44554000Y58420000D03*
X43584000Y58420000D03*
D11*
X12739000Y39670000D03*
X13709000Y39670000D03*
D15*
X44323000Y14122500D03*
X44323000Y12547500D03*
D20*
X14524000Y42832500D03*
X14524000Y44707500D03*
D19*
X47371000Y5816500D03*
X47371000Y7391500D03*
D13*
X48260000Y9629000D03*
X48260000Y8659000D03*
X16824000Y32655000D03*
X16824000Y31685000D03*
D21*
X22886500Y33070000D03*
X24761500Y33070000D03*
D19*
X14824000Y31682500D03*
X14824000Y33257500D03*
D11*
X20839000Y50800000D03*
X21809000Y50800000D03*
D15*
X15824000Y30157500D03*
X15824000Y28582500D03*
D16*
X44170500Y10033000D03*
X45745500Y10033000D03*
M02*
