%TF.GenerationSoftware,KiCad,Pcbnew,10.0.1*%
%TF.CreationDate,2026-04-30T00:37:00+02:00*%
%TF.ProjectId,hd_64_flex_v3,68645f36-345f-4666-9c65-785f76332e6b,0.1*%
%TF.SameCoordinates,PXd801da0PY3c45b00*%
%TF.FileFunction,Soldermask,Top*%
%TF.FilePolarity,Negative*%
%FSLAX46Y46*%
G04 Gerber Fmt 4.6, Leading zero omitted, Abs format (unit mm)*
G04 Created by KiCad (PCBNEW 10.0.1) date 2026-04-30 00:37:00*
%MOMM*%
%LPD*%
G01*
G04 APERTURE LIST*
G04 Aperture macros list*
%AMOutline5P*
0 Free polygon, 5 corners , with rotation*
0 The origin of the aperture is its center*
0 number of corners: always 5*
0 $1 to $10 corner X, Y*
0 $11 Rotation angle, in degrees counterclockwise*
0 create outline with 5 corners*
4,1,5,$1,$2,$3,$4,$5,$6,$7,$8,$9,$10,$1,$2,$11*%
%AMOutline6P*
0 Free polygon, 6 corners , with rotation*
0 The origin of the aperture is its center*
0 number of corners: always 6*
0 $1 to $12 corner X, Y*
0 $13 Rotation angle, in degrees counterclockwise*
0 create outline with 6 corners*
4,1,6,$1,$2,$3,$4,$5,$6,$7,$8,$9,$10,$11,$12,$1,$2,$13*%
%AMOutline7P*
0 Free polygon, 7 corners , with rotation*
0 The origin of the aperture is its center*
0 number of corners: always 7*
0 $1 to $14 corner X, Y*
0 $15 Rotation angle, in degrees counterclockwise*
0 create outline with 7 corners*
4,1,7,$1,$2,$3,$4,$5,$6,$7,$8,$9,$10,$11,$12,$13,$14,$1,$2,$15*%
%AMOutline8P*
0 Free polygon, 8 corners , with rotation*
0 The origin of the aperture is its center*
0 number of corners: always 8*
0 $1 to $16 corner X, Y*
0 $17 Rotation angle, in degrees counterclockwise*
0 create outline with 8 corners*
4,1,8,$1,$2,$3,$4,$5,$6,$7,$8,$9,$10,$11,$12,$13,$14,$15,$16,$1,$2,$17*%
G04 Aperture macros list end*
%ADD10Outline6P,-1.350000X0.630000X-0.930000X1.050000X1.350000X1.050000X1.350000X-1.050000X-0.930000X-1.050000X-1.350000X-0.630000X270.000000*%
G04 APERTURE END LIST*
D10*
%TO.C,J3*%
X176625000Y-61725000D03*
X179165000Y-61725000D03*
X181705000Y-61725000D03*
X184245000Y-61725000D03*
X186785000Y-61725000D03*
X189325000Y-61725000D03*
X191865000Y-61725000D03*
X194405000Y-61725000D03*
X196945000Y-61725000D03*
X199485000Y-61725000D03*
X202025000Y-61725000D03*
X204565000Y-61725000D03*
X207105000Y-61725000D03*
X209645000Y-61725000D03*
X212185000Y-61725000D03*
X214725000Y-61725000D03*
X217265000Y-61725000D03*
X219805000Y-61725000D03*
X222345000Y-61725000D03*
X224885000Y-61725000D03*
X224885000Y-46485000D03*
X222345000Y-46485000D03*
X219805000Y-46485000D03*
X217265000Y-46485000D03*
X214725000Y-46485000D03*
X212185000Y-46485000D03*
X209645000Y-46485000D03*
X207105000Y-46485000D03*
X204565000Y-46485000D03*
X202025000Y-46485000D03*
X199485000Y-46485000D03*
X196945000Y-46485000D03*
X194405000Y-46485000D03*
X191865000Y-46485000D03*
X189325000Y-46485000D03*
X186785000Y-46485000D03*
X184245000Y-46485000D03*
X181705000Y-46485000D03*
X179165000Y-46485000D03*
X176625000Y-46485000D03*
%TD*%
M02*
