M48
; DRILL file KiCad 10.0.1 date 2026-04-30T00:37:08
; FORMAT={-:-/ absolute / metric / decimal}
; #@! TF.CreationDate,2026-04-30T00:37:08+02:00
; #@! TF.GenerationSoftware,Kicad,Pcbnew,10.0.1
; #@! TF.FileFunction,MixedPlating,1,2
FMAT,2
METRIC
; #@! TA.AperFunction,Plated,PTH,ComponentDrill
T1C1.150
%
G90
G05
T1
X176.625Y-46.16G85X176.625Y-46.61
G05
X176.625Y-61.4G85X176.625Y-61.85
G05
X179.165Y-46.16G85X179.165Y-46.61
G05
X179.165Y-61.4G85X179.165Y-61.85
G05
X181.705Y-46.16G85X181.705Y-46.61
G05
X181.705Y-61.4G85X181.705Y-61.85
G05
X184.245Y-46.16G85X184.245Y-46.61
G05
X184.245Y-61.4G85X184.245Y-61.85
G05
X186.785Y-46.16G85X186.785Y-46.61
G05
X186.785Y-61.4G85X186.785Y-61.85
G05
X189.325Y-46.16G85X189.325Y-46.61
G05
X189.325Y-61.4G85X189.325Y-61.85
G05
X191.865Y-46.16G85X191.865Y-46.61
G05
X191.865Y-61.4G85X191.865Y-61.85
G05
X194.405Y-46.16G85X194.405Y-46.61
G05
X194.405Y-61.4G85X194.405Y-61.85
G05
X196.945Y-46.16G85X196.945Y-46.61
G05
X196.945Y-61.4G85X196.945Y-61.85
G05
X199.485Y-46.16G85X199.485Y-46.61
G05
X199.485Y-61.4G85X199.485Y-61.85
G05
X202.025Y-46.16G85X202.025Y-46.61
G05
X202.025Y-61.4G85X202.025Y-61.85
G05
X204.565Y-46.16G85X204.565Y-46.61
G05
X204.565Y-61.4G85X204.565Y-61.85
G05
X207.105Y-46.16G85X207.105Y-46.61
G05
X207.105Y-61.4G85X207.105Y-61.85
G05
X209.645Y-46.16G85X209.645Y-46.61
G05
X209.645Y-61.4G85X209.645Y-61.85
G05
X212.185Y-46.16G85X212.185Y-46.61
G05
X212.185Y-61.4G85X212.185Y-61.85
G05
X214.725Y-46.16G85X214.725Y-46.61
G05
X214.725Y-61.4G85X214.725Y-61.85
G05
X217.265Y-46.16G85X217.265Y-46.61
G05
X217.265Y-61.4G85X217.265Y-61.85
G05
X219.805Y-46.16G85X219.805Y-46.61
G05
X219.805Y-61.4G85X219.805Y-61.85
G05
X222.345Y-46.16G85X222.345Y-46.61
G05
X222.345Y-61.4G85X222.345Y-61.85
G05
X224.885Y-46.16G85X224.885Y-46.61
G05
X224.885Y-61.4G85X224.885Y-61.85
G05
M30
