%TF.GenerationSoftware,KiCad,Pcbnew,8.0.7*%
%TF.CreationDate,2025-01-06T00:02:34+01:00*%
%TF.ProjectId,hd_64_v0,68645f36-345f-4763-902e-6b696361645f,0.2*%
%TF.SameCoordinates,PX4737720PY55fe290*%
%TF.FileFunction,Legend,Top*%
%TF.FilePolarity,Positive*%
%FSLAX46Y46*%
G04 Gerber Fmt 4.6, Leading zero omitted, Abs format (unit mm)*
G04 Created by KiCad (PCBNEW 8.0.7) date 2025-01-06 00:02:34*
%MOMM*%
%LPD*%
G01*
G04 APERTURE LIST*
%ADD10C,0.120000*%
%ADD11C,0.300000*%
%ADD12C,0.200000*%
%ADD13C,0.000000*%
%ADD14C,0.150000*%
%ADD15C,0.127000*%
%ADD16C,0.152400*%
G04 APERTURE END LIST*
D10*
X11811000Y5715000D02*
X10541000Y7239000D01*
X13081000Y7239000D01*
X11811000Y5715000D01*
G36*
X11811000Y5715000D02*
G01*
X10541000Y7239000D01*
X13081000Y7239000D01*
X11811000Y5715000D01*
G37*
X46228000Y19431000D02*
X44958000Y20955000D01*
X47498000Y20955000D01*
X46228000Y19431000D01*
G36*
X46228000Y19431000D02*
G01*
X44958000Y20955000D01*
X47498000Y20955000D01*
X46228000Y19431000D01*
G37*
D11*
X50901939Y27152362D02*
X49949558Y27152362D01*
X49949558Y27152362D02*
X49854320Y26199981D01*
X49854320Y26199981D02*
X49949558Y26295220D01*
X49949558Y26295220D02*
X50140034Y26390458D01*
X50140034Y26390458D02*
X50616225Y26390458D01*
X50616225Y26390458D02*
X50806701Y26295220D01*
X50806701Y26295220D02*
X50901939Y26199981D01*
X50901939Y26199981D02*
X50997177Y26009505D01*
X50997177Y26009505D02*
X50997177Y25533315D01*
X50997177Y25533315D02*
X50901939Y25342839D01*
X50901939Y25342839D02*
X50806701Y25247600D01*
X50806701Y25247600D02*
X50616225Y25152362D01*
X50616225Y25152362D02*
X50140034Y25152362D01*
X50140034Y25152362D02*
X49949558Y25247600D01*
X49949558Y25247600D02*
X49854320Y25342839D01*
X51568606Y27152362D02*
X52235272Y25152362D01*
X52235272Y25152362D02*
X52901939Y27152362D01*
X59889171Y51261490D02*
X61389171Y51261490D01*
X60674885Y51261490D02*
X60674885Y50404347D01*
X59889171Y50404347D02*
X61389171Y50404347D01*
X59889171Y49690061D02*
X61389171Y49690061D01*
X61389171Y49690061D02*
X61389171Y49332918D01*
X61389171Y49332918D02*
X61317742Y49118632D01*
X61317742Y49118632D02*
X61174885Y48975775D01*
X61174885Y48975775D02*
X61032028Y48904346D01*
X61032028Y48904346D02*
X60746314Y48832918D01*
X60746314Y48832918D02*
X60532028Y48832918D01*
X60532028Y48832918D02*
X60246314Y48904346D01*
X60246314Y48904346D02*
X60103457Y48975775D01*
X60103457Y48975775D02*
X59960600Y49118632D01*
X59960600Y49118632D02*
X59889171Y49332918D01*
X59889171Y49332918D02*
X59889171Y49690061D01*
X60460600Y48190061D02*
X60460600Y47047203D01*
X61389171Y45690060D02*
X61389171Y45975775D01*
X61389171Y45975775D02*
X61317742Y46118632D01*
X61317742Y46118632D02*
X61246314Y46190060D01*
X61246314Y46190060D02*
X61032028Y46332918D01*
X61032028Y46332918D02*
X60746314Y46404346D01*
X60746314Y46404346D02*
X60174885Y46404346D01*
X60174885Y46404346D02*
X60032028Y46332918D01*
X60032028Y46332918D02*
X59960600Y46261489D01*
X59960600Y46261489D02*
X59889171Y46118632D01*
X59889171Y46118632D02*
X59889171Y45832918D01*
X59889171Y45832918D02*
X59960600Y45690060D01*
X59960600Y45690060D02*
X60032028Y45618632D01*
X60032028Y45618632D02*
X60174885Y45547203D01*
X60174885Y45547203D02*
X60532028Y45547203D01*
X60532028Y45547203D02*
X60674885Y45618632D01*
X60674885Y45618632D02*
X60746314Y45690060D01*
X60746314Y45690060D02*
X60817742Y45832918D01*
X60817742Y45832918D02*
X60817742Y46118632D01*
X60817742Y46118632D02*
X60746314Y46261489D01*
X60746314Y46261489D02*
X60674885Y46332918D01*
X60674885Y46332918D02*
X60532028Y46404346D01*
X60889171Y44261489D02*
X59889171Y44261489D01*
X61460600Y44618632D02*
X60389171Y44975775D01*
X60389171Y44975775D02*
X60389171Y44047204D01*
X61389171Y42547204D02*
X59889171Y42047204D01*
X59889171Y42047204D02*
X61389171Y41547204D01*
X61389171Y40761490D02*
X61389171Y40618633D01*
X61389171Y40618633D02*
X61317742Y40475776D01*
X61317742Y40475776D02*
X61246314Y40404347D01*
X61246314Y40404347D02*
X61103457Y40332919D01*
X61103457Y40332919D02*
X60817742Y40261490D01*
X60817742Y40261490D02*
X60460600Y40261490D01*
X60460600Y40261490D02*
X60174885Y40332919D01*
X60174885Y40332919D02*
X60032028Y40404347D01*
X60032028Y40404347D02*
X59960600Y40475776D01*
X59960600Y40475776D02*
X59889171Y40618633D01*
X59889171Y40618633D02*
X59889171Y40761490D01*
X59889171Y40761490D02*
X59960600Y40904347D01*
X59960600Y40904347D02*
X60032028Y40975776D01*
X60032028Y40975776D02*
X60174885Y41047205D01*
X60174885Y41047205D02*
X60460600Y41118633D01*
X60460600Y41118633D02*
X60817742Y41118633D01*
X60817742Y41118633D02*
X61103457Y41047205D01*
X61103457Y41047205D02*
X61246314Y40975776D01*
X61246314Y40975776D02*
X61317742Y40904347D01*
X61317742Y40904347D02*
X61389171Y40761490D01*
X60032028Y39618634D02*
X59960600Y39547205D01*
X59960600Y39547205D02*
X59889171Y39618634D01*
X59889171Y39618634D02*
X59960600Y39690062D01*
X59960600Y39690062D02*
X60032028Y39618634D01*
X60032028Y39618634D02*
X59889171Y39618634D01*
X61246314Y38975776D02*
X61317742Y38904348D01*
X61317742Y38904348D02*
X61389171Y38761490D01*
X61389171Y38761490D02*
X61389171Y38404348D01*
X61389171Y38404348D02*
X61317742Y38261490D01*
X61317742Y38261490D02*
X61246314Y38190062D01*
X61246314Y38190062D02*
X61103457Y38118633D01*
X61103457Y38118633D02*
X60960600Y38118633D01*
X60960600Y38118633D02*
X60746314Y38190062D01*
X60746314Y38190062D02*
X59889171Y39047205D01*
X59889171Y39047205D02*
X59889171Y38118633D01*
D12*
X7680006Y8321972D02*
X6965720Y8321972D01*
X6965720Y8321972D02*
X6965720Y9821972D01*
X54165571Y9784781D02*
X53594143Y9784781D01*
X53879857Y9784781D02*
X53879857Y10784781D01*
X53879857Y10784781D02*
X53784619Y10641924D01*
X53784619Y10641924D02*
X53689381Y10546686D01*
X53689381Y10546686D02*
X53594143Y10499067D01*
X54546524Y10689543D02*
X54594143Y10737162D01*
X54594143Y10737162D02*
X54689381Y10784781D01*
X54689381Y10784781D02*
X54927476Y10784781D01*
X54927476Y10784781D02*
X55022714Y10737162D01*
X55022714Y10737162D02*
X55070333Y10689543D01*
X55070333Y10689543D02*
X55117952Y10594305D01*
X55117952Y10594305D02*
X55117952Y10499067D01*
X55117952Y10499067D02*
X55070333Y10356210D01*
X55070333Y10356210D02*
X54498905Y9784781D01*
X54498905Y9784781D02*
X55117952Y9784781D01*
X55451286Y10451448D02*
X55689381Y9784781D01*
X55689381Y9784781D02*
X55927476Y10451448D01*
X37660054Y39788496D02*
X38136244Y39788496D01*
X37564816Y39502781D02*
X37898149Y40502781D01*
X37898149Y40502781D02*
X38231482Y39502781D01*
X38564816Y39502781D02*
X38564816Y40502781D01*
X38564816Y40502781D02*
X38802911Y40502781D01*
X38802911Y40502781D02*
X38945768Y40455162D01*
X38945768Y40455162D02*
X39041006Y40359924D01*
X39041006Y40359924D02*
X39088625Y40264686D01*
X39088625Y40264686D02*
X39136244Y40074210D01*
X39136244Y40074210D02*
X39136244Y39931353D01*
X39136244Y39931353D02*
X39088625Y39740877D01*
X39088625Y39740877D02*
X39041006Y39645639D01*
X39041006Y39645639D02*
X38945768Y39550400D01*
X38945768Y39550400D02*
X38802911Y39502781D01*
X38802911Y39502781D02*
X38564816Y39502781D01*
X39850530Y40502781D02*
X39850530Y39788496D01*
X39850530Y39788496D02*
X39802911Y39645639D01*
X39802911Y39645639D02*
X39707673Y39550400D01*
X39707673Y39550400D02*
X39564816Y39502781D01*
X39564816Y39502781D02*
X39469578Y39502781D01*
X53665572Y5704781D02*
X53998905Y4704781D01*
X53998905Y4704781D02*
X54332238Y5704781D01*
X54665572Y4704781D02*
X54665572Y5704781D01*
X55713190Y4800020D02*
X55665571Y4752400D01*
X55665571Y4752400D02*
X55522714Y4704781D01*
X55522714Y4704781D02*
X55427476Y4704781D01*
X55427476Y4704781D02*
X55284619Y4752400D01*
X55284619Y4752400D02*
X55189381Y4847639D01*
X55189381Y4847639D02*
X55141762Y4942877D01*
X55141762Y4942877D02*
X55094143Y5133353D01*
X55094143Y5133353D02*
X55094143Y5276210D01*
X55094143Y5276210D02*
X55141762Y5466686D01*
X55141762Y5466686D02*
X55189381Y5561924D01*
X55189381Y5561924D02*
X55284619Y5657162D01*
X55284619Y5657162D02*
X55427476Y5704781D01*
X55427476Y5704781D02*
X55522714Y5704781D01*
X55522714Y5704781D02*
X55665571Y5657162D01*
X55665571Y5657162D02*
X55713190Y5609543D01*
X43624523Y33984725D02*
X43148333Y33984725D01*
X43148333Y33984725D02*
X43100714Y33508535D01*
X43100714Y33508535D02*
X43148333Y33556154D01*
X43148333Y33556154D02*
X43243571Y33603773D01*
X43243571Y33603773D02*
X43481666Y33603773D01*
X43481666Y33603773D02*
X43576904Y33556154D01*
X43576904Y33556154D02*
X43624523Y33508535D01*
X43624523Y33508535D02*
X43672142Y33413297D01*
X43672142Y33413297D02*
X43672142Y33175202D01*
X43672142Y33175202D02*
X43624523Y33079964D01*
X43624523Y33079964D02*
X43576904Y33032344D01*
X43576904Y33032344D02*
X43481666Y32984725D01*
X43481666Y32984725D02*
X43243571Y32984725D01*
X43243571Y32984725D02*
X43148333Y33032344D01*
X43148333Y33032344D02*
X43100714Y33079964D01*
X43957857Y33984725D02*
X44291190Y32984725D01*
X44291190Y32984725D02*
X44624523Y33984725D01*
X43219762Y32374781D02*
X43410238Y32374781D01*
X43410238Y32374781D02*
X43505476Y32327162D01*
X43505476Y32327162D02*
X43600714Y32231924D01*
X43600714Y32231924D02*
X43648333Y32041448D01*
X43648333Y32041448D02*
X43648333Y31708115D01*
X43648333Y31708115D02*
X43600714Y31517639D01*
X43600714Y31517639D02*
X43505476Y31422400D01*
X43505476Y31422400D02*
X43410238Y31374781D01*
X43410238Y31374781D02*
X43219762Y31374781D01*
X43219762Y31374781D02*
X43124524Y31422400D01*
X43124524Y31422400D02*
X43029286Y31517639D01*
X43029286Y31517639D02*
X42981667Y31708115D01*
X42981667Y31708115D02*
X42981667Y32041448D01*
X42981667Y32041448D02*
X43029286Y32231924D01*
X43029286Y32231924D02*
X43124524Y32327162D01*
X43124524Y32327162D02*
X43219762Y32374781D01*
X44076905Y31374781D02*
X44076905Y32374781D01*
X44648333Y31374781D02*
X44219762Y31946210D01*
X44648333Y32374781D02*
X44076905Y31803353D01*
X42624524Y40207725D02*
X43243571Y40207725D01*
X43243571Y40207725D02*
X42910238Y39826773D01*
X42910238Y39826773D02*
X43053095Y39826773D01*
X43053095Y39826773D02*
X43148333Y39779154D01*
X43148333Y39779154D02*
X43195952Y39731535D01*
X43195952Y39731535D02*
X43243571Y39636297D01*
X43243571Y39636297D02*
X43243571Y39398202D01*
X43243571Y39398202D02*
X43195952Y39302964D01*
X43195952Y39302964D02*
X43148333Y39255344D01*
X43148333Y39255344D02*
X43053095Y39207725D01*
X43053095Y39207725D02*
X42767381Y39207725D01*
X42767381Y39207725D02*
X42672143Y39255344D01*
X42672143Y39255344D02*
X42624524Y39302964D01*
X43576905Y39874392D02*
X43815000Y39207725D01*
X43815000Y39207725D02*
X44053095Y39874392D01*
X44338810Y40207725D02*
X44957857Y40207725D01*
X44957857Y40207725D02*
X44624524Y39826773D01*
X44624524Y39826773D02*
X44767381Y39826773D01*
X44767381Y39826773D02*
X44862619Y39779154D01*
X44862619Y39779154D02*
X44910238Y39731535D01*
X44910238Y39731535D02*
X44957857Y39636297D01*
X44957857Y39636297D02*
X44957857Y39398202D01*
X44957857Y39398202D02*
X44910238Y39302964D01*
X44910238Y39302964D02*
X44862619Y39255344D01*
X44862619Y39255344D02*
X44767381Y39207725D01*
X44767381Y39207725D02*
X44481667Y39207725D01*
X44481667Y39207725D02*
X44386429Y39255344D01*
X44386429Y39255344D02*
X44338810Y39302964D01*
X43219762Y38597781D02*
X43410238Y38597781D01*
X43410238Y38597781D02*
X43505476Y38550162D01*
X43505476Y38550162D02*
X43600714Y38454924D01*
X43600714Y38454924D02*
X43648333Y38264448D01*
X43648333Y38264448D02*
X43648333Y37931115D01*
X43648333Y37931115D02*
X43600714Y37740639D01*
X43600714Y37740639D02*
X43505476Y37645400D01*
X43505476Y37645400D02*
X43410238Y37597781D01*
X43410238Y37597781D02*
X43219762Y37597781D01*
X43219762Y37597781D02*
X43124524Y37645400D01*
X43124524Y37645400D02*
X43029286Y37740639D01*
X43029286Y37740639D02*
X42981667Y37931115D01*
X42981667Y37931115D02*
X42981667Y38264448D01*
X42981667Y38264448D02*
X43029286Y38454924D01*
X43029286Y38454924D02*
X43124524Y38550162D01*
X43124524Y38550162D02*
X43219762Y38597781D01*
X44076905Y37597781D02*
X44076905Y38597781D01*
X44648333Y37597781D02*
X44219762Y38169210D01*
X44648333Y38597781D02*
X44076905Y38026353D01*
X7906238Y11705591D02*
X8239571Y11705591D01*
X8382428Y11181781D02*
X7906238Y11181781D01*
X7906238Y11181781D02*
X7906238Y12181781D01*
X7906238Y12181781D02*
X8382428Y12181781D01*
X8715762Y12181781D02*
X9382428Y11181781D01*
X9382428Y12181781D02*
X8715762Y11181781D01*
X9620524Y12181781D02*
X10191952Y12181781D01*
X9906238Y11181781D02*
X9906238Y12181781D01*
X10525286Y11277020D02*
X10572905Y11229400D01*
X10572905Y11229400D02*
X10525286Y11181781D01*
X10525286Y11181781D02*
X10477667Y11229400D01*
X10477667Y11229400D02*
X10525286Y11277020D01*
X10525286Y11277020D02*
X10525286Y11181781D01*
X11715762Y11467496D02*
X12191952Y11467496D01*
X11620524Y11181781D02*
X11953857Y12181781D01*
X11953857Y12181781D02*
X12287190Y11181781D01*
X12620524Y12181781D02*
X12620524Y11372258D01*
X12620524Y11372258D02*
X12668143Y11277020D01*
X12668143Y11277020D02*
X12715762Y11229400D01*
X12715762Y11229400D02*
X12811000Y11181781D01*
X12811000Y11181781D02*
X13001476Y11181781D01*
X13001476Y11181781D02*
X13096714Y11229400D01*
X13096714Y11229400D02*
X13144333Y11277020D01*
X13144333Y11277020D02*
X13191952Y11372258D01*
X13191952Y11372258D02*
X13191952Y12181781D01*
X13668143Y11181781D02*
X13668143Y12181781D01*
X13668143Y12181781D02*
X13906238Y12181781D01*
X13906238Y12181781D02*
X14049095Y12134162D01*
X14049095Y12134162D02*
X14144333Y12038924D01*
X14144333Y12038924D02*
X14191952Y11943686D01*
X14191952Y11943686D02*
X14239571Y11753210D01*
X14239571Y11753210D02*
X14239571Y11610353D01*
X14239571Y11610353D02*
X14191952Y11419877D01*
X14191952Y11419877D02*
X14144333Y11324639D01*
X14144333Y11324639D02*
X14049095Y11229400D01*
X14049095Y11229400D02*
X13906238Y11181781D01*
X13906238Y11181781D02*
X13668143Y11181781D01*
X14668143Y11181781D02*
X14668143Y12181781D01*
X15334809Y12181781D02*
X15525285Y12181781D01*
X15525285Y12181781D02*
X15620523Y12134162D01*
X15620523Y12134162D02*
X15715761Y12038924D01*
X15715761Y12038924D02*
X15763380Y11848448D01*
X15763380Y11848448D02*
X15763380Y11515115D01*
X15763380Y11515115D02*
X15715761Y11324639D01*
X15715761Y11324639D02*
X15620523Y11229400D01*
X15620523Y11229400D02*
X15525285Y11181781D01*
X15525285Y11181781D02*
X15334809Y11181781D01*
X15334809Y11181781D02*
X15239571Y11229400D01*
X15239571Y11229400D02*
X15144333Y11324639D01*
X15144333Y11324639D02*
X15096714Y11515115D01*
X15096714Y11515115D02*
X15096714Y11848448D01*
X15096714Y11848448D02*
X15144333Y12038924D01*
X15144333Y12038924D02*
X15239571Y12134162D01*
X15239571Y12134162D02*
X15334809Y12181781D01*
X27155048Y20611496D02*
X27631238Y20611496D01*
X27059810Y20325781D02*
X27393143Y21325781D01*
X27393143Y21325781D02*
X27726476Y20325781D01*
X28059810Y21325781D02*
X28059810Y20516258D01*
X28059810Y20516258D02*
X28107429Y20421020D01*
X28107429Y20421020D02*
X28155048Y20373400D01*
X28155048Y20373400D02*
X28250286Y20325781D01*
X28250286Y20325781D02*
X28440762Y20325781D01*
X28440762Y20325781D02*
X28536000Y20373400D01*
X28536000Y20373400D02*
X28583619Y20421020D01*
X28583619Y20421020D02*
X28631238Y20516258D01*
X28631238Y20516258D02*
X28631238Y21325781D01*
X29107429Y20325781D02*
X29107429Y21325781D01*
X29107429Y21325781D02*
X29345524Y21325781D01*
X29345524Y21325781D02*
X29488381Y21278162D01*
X29488381Y21278162D02*
X29583619Y21182924D01*
X29583619Y21182924D02*
X29631238Y21087686D01*
X29631238Y21087686D02*
X29678857Y20897210D01*
X29678857Y20897210D02*
X29678857Y20754353D01*
X29678857Y20754353D02*
X29631238Y20563877D01*
X29631238Y20563877D02*
X29583619Y20468639D01*
X29583619Y20468639D02*
X29488381Y20373400D01*
X29488381Y20373400D02*
X29345524Y20325781D01*
X29345524Y20325781D02*
X29107429Y20325781D01*
X30107429Y20325781D02*
X30107429Y21325781D01*
X30774095Y21325781D02*
X30964571Y21325781D01*
X30964571Y21325781D02*
X31059809Y21278162D01*
X31059809Y21278162D02*
X31155047Y21182924D01*
X31155047Y21182924D02*
X31202666Y20992448D01*
X31202666Y20992448D02*
X31202666Y20659115D01*
X31202666Y20659115D02*
X31155047Y20468639D01*
X31155047Y20468639D02*
X31059809Y20373400D01*
X31059809Y20373400D02*
X30964571Y20325781D01*
X30964571Y20325781D02*
X30774095Y20325781D01*
X30774095Y20325781D02*
X30678857Y20373400D01*
X30678857Y20373400D02*
X30583619Y20468639D01*
X30583619Y20468639D02*
X30536000Y20659115D01*
X30536000Y20659115D02*
X30536000Y20992448D01*
X30536000Y20992448D02*
X30583619Y21182924D01*
X30583619Y21182924D02*
X30678857Y21278162D01*
X30678857Y21278162D02*
X30774095Y21325781D01*
X31916952Y19944829D02*
X31869333Y19992448D01*
X31869333Y19992448D02*
X31774095Y20135305D01*
X31774095Y20135305D02*
X31726476Y20230543D01*
X31726476Y20230543D02*
X31678857Y20373400D01*
X31678857Y20373400D02*
X31631238Y20611496D01*
X31631238Y20611496D02*
X31631238Y20801972D01*
X31631238Y20801972D02*
X31678857Y21040067D01*
X31678857Y21040067D02*
X31726476Y21182924D01*
X31726476Y21182924D02*
X31774095Y21278162D01*
X31774095Y21278162D02*
X31869333Y21421020D01*
X31869333Y21421020D02*
X31916952Y21468639D01*
X32869333Y20325781D02*
X32536000Y20801972D01*
X32297905Y20325781D02*
X32297905Y21325781D01*
X32297905Y21325781D02*
X32678857Y21325781D01*
X32678857Y21325781D02*
X32774095Y21278162D01*
X32774095Y21278162D02*
X32821714Y21230543D01*
X32821714Y21230543D02*
X32869333Y21135305D01*
X32869333Y21135305D02*
X32869333Y20992448D01*
X32869333Y20992448D02*
X32821714Y20897210D01*
X32821714Y20897210D02*
X32774095Y20849591D01*
X32774095Y20849591D02*
X32678857Y20801972D01*
X32678857Y20801972D02*
X32297905Y20801972D01*
X33202667Y19944829D02*
X33250286Y19992448D01*
X33250286Y19992448D02*
X33345524Y20135305D01*
X33345524Y20135305D02*
X33393143Y20230543D01*
X33393143Y20230543D02*
X33440762Y20373400D01*
X33440762Y20373400D02*
X33488381Y20611496D01*
X33488381Y20611496D02*
X33488381Y20801972D01*
X33488381Y20801972D02*
X33440762Y21040067D01*
X33440762Y21040067D02*
X33393143Y21182924D01*
X33393143Y21182924D02*
X33345524Y21278162D01*
X33345524Y21278162D02*
X33250286Y21421020D01*
X33250286Y21421020D02*
X33202667Y21468639D01*
X33964572Y20421020D02*
X34012191Y20373400D01*
X34012191Y20373400D02*
X33964572Y20325781D01*
X33964572Y20325781D02*
X33916953Y20373400D01*
X33916953Y20373400D02*
X33964572Y20421020D01*
X33964572Y20421020D02*
X33964572Y20325781D01*
X33964572Y20944829D02*
X34012191Y20897210D01*
X34012191Y20897210D02*
X33964572Y20849591D01*
X33964572Y20849591D02*
X33916953Y20897210D01*
X33916953Y20897210D02*
X33964572Y20944829D01*
X33964572Y20944829D02*
X33964572Y20849591D01*
X35202667Y20849591D02*
X35536000Y20849591D01*
X35678857Y20325781D02*
X35202667Y20325781D01*
X35202667Y20325781D02*
X35202667Y21325781D01*
X35202667Y21325781D02*
X35678857Y21325781D01*
X36012191Y21325781D02*
X36678857Y20325781D01*
X36678857Y21325781D02*
X36012191Y20325781D01*
X36916953Y21325781D02*
X37488381Y21325781D01*
X37202667Y20325781D02*
X37202667Y21325781D01*
X37821715Y20706734D02*
X38583620Y20706734D01*
X39059810Y20325781D02*
X39059810Y21325781D01*
X39536000Y20325781D02*
X39536000Y21325781D01*
X39536000Y21325781D02*
X40107428Y20325781D01*
X40107428Y20325781D02*
X40107428Y21325781D01*
X40440762Y21325781D02*
X41012190Y21325781D01*
X40726476Y20325781D02*
X40726476Y21325781D01*
X16966863Y8321972D02*
X16466863Y9036258D01*
X16109720Y8321972D02*
X16109720Y9821972D01*
X16109720Y9821972D02*
X16681149Y9821972D01*
X16681149Y9821972D02*
X16824006Y9750543D01*
X16824006Y9750543D02*
X16895435Y9679115D01*
X16895435Y9679115D02*
X16966863Y9536258D01*
X16966863Y9536258D02*
X16966863Y9321972D01*
X16966863Y9321972D02*
X16895435Y9179115D01*
X16895435Y9179115D02*
X16824006Y9107686D01*
X16824006Y9107686D02*
X16681149Y9036258D01*
X16681149Y9036258D02*
X16109720Y9036258D01*
D10*
X2414000Y49707221D02*
X2414000Y50032779D01*
X3434000Y49707221D02*
X3434000Y50032779D01*
D13*
G36*
X38835798Y50542479D02*
G01*
X39182954Y50541858D01*
X39198403Y50534252D01*
X39215456Y50523732D01*
X39229011Y50510454D01*
X39239748Y50493739D01*
X39240587Y50492068D01*
X39244335Y50483987D01*
X39246604Y50477311D01*
X39247755Y50470297D01*
X39248152Y50461203D01*
X39248181Y50455568D01*
X39247986Y50444670D01*
X39247181Y50436665D01*
X39245416Y50429786D01*
X39242338Y50422265D01*
X39240978Y50419350D01*
X39230884Y50402962D01*
X39217502Y50388649D01*
X39201937Y50377540D01*
X39198197Y50375573D01*
X39185188Y50369180D01*
X38836915Y50368559D01*
X38488642Y50367939D01*
X38488642Y50455519D01*
X38488642Y50543099D01*
X38835798Y50542479D01*
G37*
G36*
X38964041Y53662572D02*
G01*
X39052940Y53659090D01*
X39123351Y53654617D01*
X39251305Y53642664D01*
X39378302Y53626154D01*
X39504259Y53605113D01*
X39629095Y53579565D01*
X39752730Y53549536D01*
X39875081Y53515051D01*
X39996067Y53476136D01*
X40115608Y53432815D01*
X40233622Y53385114D01*
X40350028Y53333059D01*
X40464744Y53276674D01*
X40577689Y53215984D01*
X40629405Y53186409D01*
X40737597Y53120635D01*
X40843228Y53050992D01*
X40946196Y52977573D01*
X41046402Y52900475D01*
X41143744Y52819792D01*
X41238122Y52735620D01*
X41329436Y52648053D01*
X41417585Y52557186D01*
X41502469Y52463115D01*
X41583987Y52365935D01*
X41662039Y52265741D01*
X41736524Y52162628D01*
X41782160Y52095324D01*
X41832214Y52017837D01*
X41878669Y51942148D01*
X41921897Y51867607D01*
X41962271Y51793560D01*
X42000162Y51719355D01*
X42020066Y51678266D01*
X42073301Y51561233D01*
X42121941Y51443752D01*
X42166030Y51325658D01*
X42205608Y51206782D01*
X42240721Y51086957D01*
X42271410Y50966016D01*
X42297719Y50843792D01*
X42319690Y50720119D01*
X42337367Y50594828D01*
X42350793Y50467753D01*
X42358725Y50361013D01*
X42359646Y50342463D01*
X42360430Y50319923D01*
X42361079Y50294026D01*
X42361593Y50265407D01*
X42361971Y50234699D01*
X42362214Y50202535D01*
X42362321Y50169550D01*
X42362293Y50136376D01*
X42362130Y50103648D01*
X42361833Y50071999D01*
X42361400Y50042063D01*
X42360832Y50014474D01*
X42360130Y49989865D01*
X42359293Y49968870D01*
X42358668Y49957320D01*
X42348386Y49828271D01*
X42333593Y49700331D01*
X42314311Y49573563D01*
X42290559Y49448034D01*
X42262360Y49323808D01*
X42229733Y49200952D01*
X42192700Y49079529D01*
X42151281Y48959606D01*
X42105498Y48841248D01*
X42055371Y48724519D01*
X42000920Y48609487D01*
X41942168Y48496215D01*
X41879133Y48384769D01*
X41832993Y48308711D01*
X41763882Y48202328D01*
X41690923Y48098560D01*
X41614188Y47997491D01*
X41533749Y47899203D01*
X41449677Y47803778D01*
X41362045Y47711300D01*
X41270924Y47621850D01*
X41176385Y47535511D01*
X41113815Y47481668D01*
X41016592Y47402834D01*
X40917098Y47327914D01*
X40814947Y47256632D01*
X40709751Y47188714D01*
X40660845Y47158892D01*
X40550302Y47095390D01*
X40437750Y47036080D01*
X40323301Y46980995D01*
X40207066Y46930170D01*
X40089156Y46883639D01*
X39969682Y46841436D01*
X39848756Y46803594D01*
X39726488Y46770148D01*
X39602990Y46741131D01*
X39478374Y46716578D01*
X39352750Y46696522D01*
X39226230Y46680998D01*
X39098924Y46670039D01*
X39051013Y46667114D01*
X39040100Y46666673D01*
X39025061Y46666289D01*
X39006435Y46665961D01*
X38984760Y46665691D01*
X38960577Y46665476D01*
X38934424Y46665318D01*
X38906843Y46665215D01*
X38878371Y46665168D01*
X38849549Y46665176D01*
X38820917Y46665239D01*
X38793013Y46665356D01*
X38766377Y46665528D01*
X38741550Y46665753D01*
X38719069Y46666032D01*
X38699475Y46666365D01*
X38683308Y46666750D01*
X38671107Y46667188D01*
X38668321Y46667328D01*
X38542828Y46676599D01*
X38417502Y46690492D01*
X38292538Y46708964D01*
X38168128Y46731969D01*
X38044467Y46759464D01*
X37921749Y46791404D01*
X37800166Y46827745D01*
X37679912Y46868443D01*
X37561182Y46913453D01*
X37520245Y46930125D01*
X37423010Y46972310D01*
X37325711Y47018190D01*
X37229094Y47067357D01*
X37133906Y47119399D01*
X37040892Y47173907D01*
X36950799Y47230470D01*
X36864373Y47288680D01*
X36852868Y47296754D01*
X36763768Y47361547D01*
X36678404Y47427677D01*
X36595879Y47495894D01*
X36515300Y47566947D01*
X36435771Y47641586D01*
X36402865Y47673791D01*
X36316421Y47762225D01*
X36234181Y47852211D01*
X36155845Y47944133D01*
X36081118Y48038376D01*
X36009700Y48135323D01*
X35941296Y48235358D01*
X35875607Y48338865D01*
X35835082Y48406718D01*
X35773849Y48516292D01*
X35716655Y48628129D01*
X35663550Y48742072D01*
X35614584Y48857960D01*
X35569807Y48975636D01*
X35529268Y49094940D01*
X35493018Y49215714D01*
X35461106Y49337799D01*
X35433583Y49461036D01*
X35410498Y49585266D01*
X35391901Y49710331D01*
X35377843Y49836072D01*
X35374760Y49870981D01*
X35372865Y49894420D01*
X35371229Y49916309D01*
X35369811Y49937446D01*
X35368571Y49958626D01*
X35367468Y49980645D01*
X35366462Y50004298D01*
X35365512Y50030383D01*
X35364578Y50059695D01*
X35363807Y50086290D01*
X35362694Y50208849D01*
X35366213Y50331971D01*
X35373834Y50447602D01*
X36326447Y50447602D01*
X36326982Y50423496D01*
X36328324Y50401213D01*
X36330481Y50382017D01*
X36330988Y50378799D01*
X36341213Y50331163D01*
X36355619Y50285394D01*
X36374039Y50241699D01*
X36396304Y50200287D01*
X36422245Y50161365D01*
X36451695Y50125143D01*
X36484485Y50091826D01*
X36520446Y50061625D01*
X36559410Y50034746D01*
X36601208Y50011398D01*
X36643692Y49992559D01*
X36668745Y49983779D01*
X36696746Y49975737D01*
X36725984Y49968895D01*
X36745572Y49965182D01*
X36749270Y49964598D01*
X36753333Y49964068D01*
X36758005Y49963588D01*
X36763529Y49963155D01*
X36770147Y49962764D01*
X36778103Y49962413D01*
X36787640Y49962097D01*
X36799001Y49961812D01*
X36812428Y49961555D01*
X36828166Y49961322D01*
X36846456Y49961110D01*
X36867542Y49960914D01*
X36891668Y49960731D01*
X36919075Y49960557D01*
X36950008Y49960389D01*
X36984708Y49960223D01*
X37023420Y49960054D01*
X37066385Y49959879D01*
X37099051Y49959752D01*
X37145378Y49959579D01*
X37187274Y49959428D01*
X37224973Y49959287D01*
X37258710Y49959146D01*
X37288722Y49958995D01*
X37315243Y49958823D01*
X37338508Y49958618D01*
X37358753Y49958371D01*
X37376212Y49958071D01*
X37391122Y49957707D01*
X37403717Y49957268D01*
X37414232Y49956744D01*
X37422903Y49956125D01*
X37429965Y49955399D01*
X37435653Y49954555D01*
X37440202Y49953584D01*
X37443847Y49952475D01*
X37446825Y49951216D01*
X37449369Y49949798D01*
X37451715Y49948209D01*
X37454098Y49946439D01*
X37456754Y49944478D01*
X37458165Y49943486D01*
X37469988Y49933827D01*
X37479443Y49922341D01*
X37487662Y49907642D01*
X37488031Y49906862D01*
X37491962Y49897366D01*
X37494042Y49888691D01*
X37494791Y49878424D01*
X37494831Y49875284D01*
X37494603Y49862834D01*
X37493492Y49853224D01*
X37491083Y49844649D01*
X37486958Y49835306D01*
X37484517Y49830534D01*
X37474717Y49816213D01*
X37461664Y49803517D01*
X37446760Y49793714D01*
X37440907Y49791014D01*
X37428073Y49785808D01*
X36963709Y49784568D01*
X36499345Y49783327D01*
X36482166Y49778316D01*
X36452145Y49767330D01*
X36424893Y49752842D01*
X36400628Y49735134D01*
X36379568Y49714491D01*
X36361932Y49691197D01*
X36347939Y49665536D01*
X36337806Y49637791D01*
X36331753Y49608247D01*
X36329973Y49580461D01*
X36332214Y49549525D01*
X36338815Y49519970D01*
X36349595Y49492107D01*
X36364373Y49466244D01*
X36382967Y49442690D01*
X36405195Y49421756D01*
X36430877Y49403749D01*
X36435174Y49401229D01*
X36444229Y49396818D01*
X36456340Y49391962D01*
X36469994Y49387175D01*
X36483680Y49382971D01*
X36495887Y49379865D01*
X36500776Y49378914D01*
X36504388Y49378698D01*
X36512451Y49378486D01*
X36524749Y49378279D01*
X36541065Y49378078D01*
X36561183Y49377885D01*
X36584889Y49377700D01*
X36611964Y49377525D01*
X36642193Y49377360D01*
X36675361Y49377208D01*
X36711250Y49377068D01*
X36749646Y49376942D01*
X36790331Y49376831D01*
X36833089Y49376736D01*
X36877705Y49376658D01*
X36923962Y49376598D01*
X36971645Y49376557D01*
X36976613Y49376554D01*
X37032223Y49376525D01*
X37083364Y49376506D01*
X37130234Y49376499D01*
X37173030Y49376505D01*
X37211952Y49376526D01*
X37247196Y49376562D01*
X37278961Y49376616D01*
X37307444Y49376688D01*
X37332844Y49376780D01*
X37355358Y49376893D01*
X37375185Y49377028D01*
X37392522Y49377187D01*
X37407567Y49377372D01*
X37420518Y49377582D01*
X37431573Y49377821D01*
X37440931Y49378088D01*
X37448788Y49378386D01*
X37455343Y49378716D01*
X37460794Y49379079D01*
X37465339Y49379476D01*
X37468754Y49379856D01*
X37516464Y49388065D01*
X37562616Y49400662D01*
X37607099Y49417596D01*
X37649799Y49438817D01*
X37690604Y49464275D01*
X37729401Y49493921D01*
X37734175Y49497980D01*
X37766159Y49528424D01*
X37795600Y49562344D01*
X37822151Y49599152D01*
X37845465Y49638259D01*
X37865194Y49679076D01*
X37880991Y49721013D01*
X37892508Y49763482D01*
X37893510Y49768213D01*
X37901230Y49816719D01*
X37904396Y49864758D01*
X37903041Y49912147D01*
X37897201Y49958699D01*
X37886911Y50004230D01*
X37872205Y50048554D01*
X37853119Y50091488D01*
X37829686Y50132846D01*
X37822687Y50143617D01*
X37797651Y50178027D01*
X37770087Y50210313D01*
X37740833Y50239549D01*
X37740584Y50239763D01*
X38080285Y50239763D01*
X38080286Y50176877D01*
X38080287Y50167932D01*
X38080301Y50098066D01*
X38080332Y50032155D01*
X38080382Y49970245D01*
X38080449Y49912382D01*
X38080533Y49858613D01*
X38080635Y49808983D01*
X38080754Y49763541D01*
X38080890Y49722331D01*
X38081043Y49685401D01*
X38081212Y49652796D01*
X38081397Y49624563D01*
X38081599Y49600749D01*
X38081817Y49581400D01*
X38082050Y49566562D01*
X38082299Y49556282D01*
X38082564Y49550607D01*
X38082661Y49549712D01*
X38089848Y49519281D01*
X38101202Y49490950D01*
X38116708Y49464745D01*
X38136355Y49440692D01*
X38145595Y49431466D01*
X38167020Y49413476D01*
X38189226Y49399497D01*
X38213375Y49388887D01*
X38234292Y49382542D01*
X38243810Y49380171D01*
X38251360Y49378549D01*
X38258190Y49377564D01*
X38265549Y49377105D01*
X38274686Y49377060D01*
X38286848Y49377319D01*
X38291463Y49377445D01*
X38309617Y49378337D01*
X38324029Y49379961D01*
X38335582Y49382420D01*
X38336966Y49382821D01*
X38359883Y49390569D01*
X38379449Y49399329D01*
X38396974Y49409839D01*
X38413766Y49422834D01*
X38423330Y49431466D01*
X38443022Y49452436D01*
X38458990Y49474935D01*
X38471798Y49499875D01*
X38481016Y49524932D01*
X38487433Y49545459D01*
X38488121Y49752500D01*
X38488340Y49818477D01*
X38488809Y49959540D01*
X38851000Y49960250D01*
X38900168Y49960344D01*
X38944909Y49960428D01*
X38985462Y49960511D01*
X39022066Y49960603D01*
X39054961Y49960712D01*
X39084386Y49960846D01*
X39110580Y49961014D01*
X39133784Y49961224D01*
X39154235Y49961486D01*
X39172174Y49961808D01*
X39187840Y49962199D01*
X39201473Y49962667D01*
X39213311Y49963221D01*
X39223595Y49963870D01*
X39232563Y49964622D01*
X39240456Y49965486D01*
X39247512Y49966470D01*
X39253970Y49967584D01*
X39260071Y49968836D01*
X39266054Y49970234D01*
X39272157Y49971788D01*
X39278621Y49973505D01*
X39285685Y49975395D01*
X39288176Y49976055D01*
X39334144Y49990546D01*
X39378042Y50009176D01*
X39419690Y50031813D01*
X39458906Y50058328D01*
X39495509Y50088590D01*
X39529318Y50122470D01*
X39560152Y50159838D01*
X39576739Y50183264D01*
X39587847Y50201276D01*
X39599373Y50222439D01*
X39610650Y50245367D01*
X39621010Y50268672D01*
X39629786Y50290965D01*
X39633056Y50300342D01*
X39645201Y50344084D01*
X39653238Y50389405D01*
X39657139Y50435622D01*
X39656877Y50482050D01*
X39652425Y50528004D01*
X39643844Y50572446D01*
X39630302Y50618262D01*
X39612661Y50662081D01*
X39591136Y50703681D01*
X39565943Y50742844D01*
X39537298Y50779349D01*
X39534588Y50782207D01*
X39831564Y50782207D01*
X39831564Y50300342D01*
X39831564Y49818477D01*
X39837019Y49788280D01*
X39847667Y49740957D01*
X39862105Y49696177D01*
X39880477Y49653574D01*
X39902929Y49612777D01*
X39910266Y49601166D01*
X39937810Y49563012D01*
X39968737Y49527813D01*
X40002726Y49495770D01*
X40039459Y49467086D01*
X40078615Y49441962D01*
X40119873Y49420600D01*
X40162915Y49403201D01*
X40207421Y49389968D01*
X40253069Y49381102D01*
X40260925Y49380043D01*
X40266534Y49379632D01*
X40276474Y49379243D01*
X40290471Y49378878D01*
X40308248Y49378536D01*
X40329531Y49378218D01*
X40354046Y49377923D01*
X40381516Y49377651D01*
X40411668Y49377404D01*
X40444225Y49377180D01*
X40478913Y49376981D01*
X40515457Y49376805D01*
X40553582Y49376654D01*
X40593013Y49376528D01*
X40633475Y49376425D01*
X40674692Y49376348D01*
X40716390Y49376295D01*
X40758294Y49376267D01*
X40800128Y49376264D01*
X40841618Y49376287D01*
X40882489Y49376334D01*
X40922465Y49376407D01*
X40961272Y49376506D01*
X40998634Y49376630D01*
X41034277Y49376780D01*
X41067926Y49376956D01*
X41099304Y49377158D01*
X41128139Y49377386D01*
X41154153Y49377640D01*
X41177073Y49377921D01*
X41196623Y49378228D01*
X41212529Y49378562D01*
X41224515Y49378922D01*
X41232306Y49379310D01*
X41235156Y49379604D01*
X41265530Y49387342D01*
X41293640Y49399052D01*
X41319233Y49414495D01*
X41342060Y49433432D01*
X41361870Y49455624D01*
X41378412Y49480834D01*
X41391435Y49508823D01*
X41400002Y49536445D01*
X41402556Y49551633D01*
X41403806Y49569648D01*
X41403776Y49588846D01*
X41402487Y49607580D01*
X41399962Y49624204D01*
X41398726Y49629465D01*
X41388505Y49659351D01*
X41374441Y49686734D01*
X41356778Y49711367D01*
X41335760Y49733004D01*
X41311630Y49751396D01*
X41284632Y49766297D01*
X41255008Y49777459D01*
X41252142Y49778294D01*
X41233989Y49783459D01*
X40769625Y49784634D01*
X40714688Y49784774D01*
X40664224Y49784909D01*
X40618039Y49785039D01*
X40575941Y49785168D01*
X40537735Y49785296D01*
X40503227Y49785426D01*
X40472225Y49785561D01*
X40444533Y49785701D01*
X40419960Y49785850D01*
X40398310Y49786010D01*
X40379391Y49786182D01*
X40363009Y49786370D01*
X40348970Y49786573D01*
X40337080Y49786796D01*
X40327145Y49787040D01*
X40318973Y49787307D01*
X40312369Y49787600D01*
X40307140Y49787920D01*
X40303092Y49788269D01*
X40300031Y49788650D01*
X40297764Y49789064D01*
X40296098Y49789515D01*
X40295319Y49789797D01*
X40277048Y49799497D01*
X40261776Y49812752D01*
X40249445Y49829617D01*
X40244882Y49838312D01*
X40239924Y49848812D01*
X40238757Y50315510D01*
X40237590Y50782207D01*
X40231145Y50802759D01*
X40219822Y50832210D01*
X40205214Y50858546D01*
X40187043Y50882221D01*
X40174417Y50895238D01*
X40151069Y50914311D01*
X40125433Y50929570D01*
X40098026Y50940869D01*
X40069363Y50948058D01*
X40039961Y50950989D01*
X40010335Y50949513D01*
X39994908Y50946933D01*
X39965272Y50938733D01*
X39938473Y50927014D01*
X39914007Y50911515D01*
X39894737Y50895238D01*
X39874311Y50872932D01*
X39857615Y50848235D01*
X39844370Y50820694D01*
X39838010Y50802759D01*
X39831564Y50782207D01*
X39534588Y50782207D01*
X39505416Y50812976D01*
X39470513Y50843506D01*
X39432804Y50870719D01*
X39392506Y50894394D01*
X39349833Y50914312D01*
X39305002Y50930252D01*
X39288348Y50934982D01*
X39281940Y50936716D01*
X39276166Y50938313D01*
X39270824Y50939780D01*
X39265713Y50941121D01*
X39260630Y50942344D01*
X39255373Y50943452D01*
X39249741Y50944452D01*
X39243532Y50945350D01*
X39236544Y50946150D01*
X39228574Y50946858D01*
X39219422Y50947480D01*
X39208884Y50948021D01*
X39196760Y50948487D01*
X39182846Y50948883D01*
X39166942Y50949216D01*
X39148845Y50949489D01*
X39128354Y50949710D01*
X39105266Y50949883D01*
X39079380Y50950015D01*
X39050493Y50950109D01*
X39018404Y50950173D01*
X38982911Y50950212D01*
X38943811Y50950231D01*
X38900904Y50950235D01*
X38853987Y50950231D01*
X38802857Y50950223D01*
X38747314Y50950218D01*
X38732492Y50950218D01*
X38249460Y50950218D01*
X38231137Y50944910D01*
X38201912Y50934158D01*
X38175059Y50919686D01*
X38150888Y50901823D01*
X38129712Y50880899D01*
X38111842Y50857243D01*
X38097590Y50831186D01*
X38087265Y50803057D01*
X38083772Y50788797D01*
X38083401Y50786593D01*
X38083057Y50783590D01*
X38082739Y50779619D01*
X38082445Y50774515D01*
X38082174Y50768110D01*
X38081927Y50760236D01*
X38081701Y50750727D01*
X38081496Y50739415D01*
X38081311Y50726133D01*
X38081145Y50710715D01*
X38080997Y50692992D01*
X38080866Y50672799D01*
X38080751Y50649966D01*
X38080652Y50624329D01*
X38080566Y50595719D01*
X38080494Y50563969D01*
X38080435Y50528912D01*
X38080387Y50490380D01*
X38080349Y50448208D01*
X38080321Y50402227D01*
X38080302Y50352271D01*
X38080290Y50298172D01*
X38080285Y50239763D01*
X37740584Y50239763D01*
X37718592Y50258675D01*
X37686113Y50282321D01*
X37650501Y50303963D01*
X37612894Y50323034D01*
X37574431Y50338966D01*
X37536251Y50351192D01*
X37529579Y50352934D01*
X37522284Y50354790D01*
X37515691Y50356470D01*
X37509548Y50357984D01*
X37503601Y50359341D01*
X37497598Y50360552D01*
X37491285Y50361625D01*
X37484408Y50362570D01*
X37476715Y50363397D01*
X37467951Y50364115D01*
X37457865Y50364733D01*
X37446202Y50365262D01*
X37432709Y50365710D01*
X37417134Y50366088D01*
X37399222Y50366405D01*
X37378720Y50366670D01*
X37355375Y50366893D01*
X37328934Y50367083D01*
X37299144Y50367250D01*
X37265751Y50367404D01*
X37228502Y50367554D01*
X37187143Y50367709D01*
X37141422Y50367880D01*
X37131669Y50367917D01*
X36800262Y50369180D01*
X36784901Y50376743D01*
X36768351Y50387326D01*
X36754080Y50401294D01*
X36743113Y50417601D01*
X36741349Y50421174D01*
X36736646Y50435992D01*
X36734841Y50452854D01*
X36735952Y50470131D01*
X36740000Y50486192D01*
X36740538Y50487597D01*
X36748879Y50502939D01*
X36760828Y50517042D01*
X36775329Y50528794D01*
X36784746Y50534218D01*
X36800265Y50541858D01*
X37267012Y50543101D01*
X37321880Y50543248D01*
X37372278Y50543385D01*
X37418403Y50543514D01*
X37460453Y50543639D01*
X37498625Y50543762D01*
X37533117Y50543885D01*
X37564125Y50544011D01*
X37591846Y50544143D01*
X37616479Y50544282D01*
X37638219Y50544431D01*
X37657265Y50544593D01*
X37673814Y50544770D01*
X37688062Y50544965D01*
X37700208Y50545180D01*
X37710448Y50545418D01*
X37718979Y50545681D01*
X37726000Y50545971D01*
X37731706Y50546292D01*
X37736295Y50546646D01*
X37739965Y50547034D01*
X37742913Y50547460D01*
X37745336Y50547927D01*
X37747431Y50548435D01*
X37749396Y50548989D01*
X37750094Y50549196D01*
X37780433Y50560127D01*
X37807630Y50573903D01*
X37831299Y50590321D01*
X37836337Y50594566D01*
X37846688Y50604923D01*
X37857771Y50618195D01*
X37868532Y50632988D01*
X37877915Y50647907D01*
X37881261Y50654008D01*
X37892925Y50681308D01*
X37900413Y50709947D01*
X37903711Y50739303D01*
X37902805Y50768752D01*
X37897679Y50797674D01*
X37888319Y50825444D01*
X37885397Y50831962D01*
X37870163Y50859459D01*
X37852033Y50883341D01*
X37830820Y50903786D01*
X37806335Y50920971D01*
X37778392Y50935074D01*
X37774595Y50936650D01*
X37770864Y50938201D01*
X37767499Y50939631D01*
X37764305Y50940942D01*
X37761086Y50942141D01*
X37757646Y50943233D01*
X37753790Y50944221D01*
X37749321Y50945113D01*
X37744044Y50945912D01*
X37737763Y50946623D01*
X37730282Y50947252D01*
X37721405Y50947803D01*
X37710937Y50948283D01*
X37698682Y50948695D01*
X37684444Y50949044D01*
X37668027Y50949337D01*
X37649235Y50949577D01*
X37627872Y50949771D01*
X37603744Y50949922D01*
X37576653Y50950036D01*
X37546405Y50950118D01*
X37512802Y50950173D01*
X37475651Y50950206D01*
X37434753Y50950222D01*
X37389915Y50950226D01*
X37340940Y50950224D01*
X37287632Y50950219D01*
X37247228Y50950218D01*
X36767696Y50950218D01*
X36739694Y50944920D01*
X36703875Y50937178D01*
X36671103Y50927938D01*
X36639869Y50916696D01*
X36608661Y50902949D01*
X36597908Y50897675D01*
X36556217Y50874193D01*
X36517450Y50847162D01*
X36481756Y50816785D01*
X36449286Y50783266D01*
X36420191Y50746812D01*
X36394621Y50707625D01*
X36372727Y50665911D01*
X36354660Y50621874D01*
X36340570Y50575718D01*
X36332184Y50536967D01*
X36329588Y50518213D01*
X36327760Y50496225D01*
X36326710Y50472266D01*
X36326447Y50447602D01*
X35373834Y50447602D01*
X35374364Y50455649D01*
X35383005Y50544191D01*
X35399453Y50671706D01*
X35420416Y50798079D01*
X35445868Y50923235D01*
X35475778Y51047095D01*
X35510121Y51169581D01*
X35548866Y51290618D01*
X35591986Y51410126D01*
X35639453Y51528028D01*
X35691238Y51644247D01*
X35747313Y51758706D01*
X35807651Y51871326D01*
X35872222Y51982030D01*
X35940998Y52090742D01*
X35952956Y52108794D01*
X36024318Y52211658D01*
X36099640Y52312189D01*
X36178714Y52410147D01*
X36261331Y52505295D01*
X36347280Y52597391D01*
X36436352Y52686198D01*
X36528337Y52771476D01*
X36552201Y52792600D01*
X36650614Y52875822D01*
X36751538Y52955127D01*
X36854911Y53030480D01*
X36960670Y53101847D01*
X37068754Y53169194D01*
X37179101Y53232486D01*
X37291648Y53291688D01*
X37406334Y53346767D01*
X37523097Y53397688D01*
X37641874Y53444417D01*
X37762603Y53486920D01*
X37864435Y53519019D01*
X37973712Y53549589D01*
X38085593Y53576836D01*
X38199261Y53600610D01*
X38313897Y53620761D01*
X38428683Y53637139D01*
X38542801Y53649593D01*
X38602983Y53654570D01*
X38691530Y53659860D01*
X38782068Y53662957D01*
X38873328Y53663861D01*
X38964041Y53662572D01*
G37*
D10*
X44323000Y29754000D02*
X43523000Y29754000D01*
X44323000Y29754000D02*
X45123000Y29754000D01*
X44323000Y26634000D02*
X43523000Y26634000D01*
X44323000Y26634000D02*
X45123000Y26634000D01*
X45863000Y26354000D02*
X45383000Y26354000D01*
X45623000Y26684000D01*
X45863000Y26354000D01*
G36*
X45863000Y26354000D02*
G01*
X45383000Y26354000D01*
X45623000Y26684000D01*
X45863000Y26354000D01*
G37*
X51583000Y50764221D02*
X51583000Y51089779D01*
X52603000Y50764221D02*
X52603000Y51089779D01*
X52131000Y58928000D02*
G75*
G02*
X50231000Y58928000I-950000J0D01*
G01*
X50231000Y58928000D02*
G75*
G02*
X52131000Y58928000I950000J0D01*
G01*
D14*
X28427000Y17669000D02*
X28527000Y17669000D01*
X28427000Y11944000D02*
X28427000Y17669000D01*
X35252000Y17669000D02*
X35227000Y17669000D01*
X35252000Y13019000D02*
X35227000Y13019000D01*
X35252000Y13019000D02*
X35252000Y17669000D01*
D10*
X31877000Y30421000D02*
X29677000Y30421000D01*
X31877000Y30421000D02*
X34077000Y30421000D01*
X31877000Y24951000D02*
X29677000Y24951000D01*
X31877000Y24951000D02*
X35477000Y24951000D01*
X57926500Y14219000D02*
X59066500Y14219000D01*
X59066500Y14449000D02*
X59066500Y14219000D01*
X59066500Y14449000D02*
X61786500Y14449000D01*
X59066500Y9729000D02*
X59066500Y9959000D01*
X61786500Y14449000D02*
X61786500Y13139000D01*
X61786500Y11039000D02*
X61786500Y9729000D01*
X61786500Y9729000D02*
X59066500Y9729000D01*
X56987221Y17401000D02*
X57312779Y17401000D01*
X56987221Y16381000D02*
X57312779Y16381000D01*
X33746221Y23497000D02*
X34071779Y23497000D01*
X33746221Y22477000D02*
X34071779Y22477000D01*
D14*
X3924000Y47770000D02*
X3924000Y51770000D01*
X9324000Y47770000D02*
X9324000Y51770000D01*
D10*
X3924000Y47420000D02*
X3594000Y47180000D01*
X3594000Y47660000D01*
X3924000Y47420000D01*
G36*
X3924000Y47420000D02*
G01*
X3594000Y47180000D01*
X3594000Y47660000D01*
X3924000Y47420000D01*
G37*
D14*
X22750000Y4577500D02*
X25550000Y4577500D01*
X22750000Y-22500D02*
X22750000Y4577500D01*
X37950000Y4577500D02*
X40750000Y4577500D01*
X40750000Y4577500D02*
X40750000Y-22500D01*
X40750000Y-22500D02*
X22750000Y-22500D01*
D10*
X31554500Y44828000D02*
X27954500Y44828000D01*
X31554500Y44828000D02*
X33754500Y44828000D01*
X31554500Y39358000D02*
X29354500Y39358000D01*
X31554500Y39358000D02*
X33754500Y39358000D01*
X60745000Y18664000D02*
X60745000Y15514000D01*
X62445000Y18664000D02*
X60745000Y18664000D01*
X62445000Y18664000D02*
X62445000Y15514000D01*
D15*
X51399000Y42615000D02*
X51399000Y45015000D01*
X57399000Y42615000D02*
X57399000Y45015000D01*
D10*
X28793221Y23497000D02*
X29118779Y23497000D01*
X28793221Y22477000D02*
X29118779Y22477000D01*
X48766000Y6385779D02*
X48766000Y6060221D01*
X49786000Y6385779D02*
X49786000Y6060221D01*
X53612500Y27198563D02*
X53612500Y19743000D01*
X53612500Y19743000D02*
X56662500Y19743000D01*
X54676937Y28263000D02*
X53612500Y27198563D01*
X54676937Y28263000D02*
X56662500Y28263000D01*
X60082500Y29503000D02*
X60082500Y28503000D01*
X60582500Y29003000D02*
X59582500Y29003000D01*
X61068063Y28263000D02*
X59082500Y28263000D01*
X61068063Y28263000D02*
X62132500Y27198563D01*
X62132500Y27198563D02*
X62132500Y19743000D01*
X62132500Y19743000D02*
X59082500Y19743000D01*
X41019000Y35778221D02*
X41019000Y36103779D01*
X42039000Y35778221D02*
X42039000Y36103779D01*
X37048221Y30609000D02*
X37373779Y30609000D01*
X37048221Y29589000D02*
X37373779Y29589000D01*
X53007000Y51269000D02*
X53007000Y49569000D01*
X53007000Y51269000D02*
X56157000Y51269000D01*
X53007000Y49569000D02*
X56157000Y49569000D01*
X32559500Y34641000D02*
X35009500Y34641000D01*
X34359500Y37861000D02*
X32559500Y37861000D01*
X37500779Y45270000D02*
X37175221Y45270000D01*
X37500779Y44250000D02*
X37175221Y44250000D01*
D16*
X40360600Y59359800D02*
X40360600Y55956200D01*
X40360600Y55956200D02*
X41675040Y55956200D01*
X41675040Y59359800D02*
X40360600Y59359800D01*
X43440960Y55956200D02*
X46475040Y55956200D01*
X46475040Y59359800D02*
X43440960Y59359800D01*
X48240960Y55956200D02*
X49555400Y55956200D01*
X49555400Y59359800D02*
X48240960Y59359800D01*
X49555400Y55956200D02*
X49555400Y59359800D01*
D10*
X51272221Y18290000D02*
X51597779Y18290000D01*
X51272221Y17270000D02*
X51597779Y17270000D01*
X39685000Y37973000D02*
G75*
G02*
X37785000Y37973000I-950000J0D01*
G01*
X37785000Y37973000D02*
G75*
G02*
X39685000Y37973000I950000J0D01*
G01*
X49410221Y43690000D02*
X49735779Y43690000D01*
X49410221Y42670000D02*
X49735779Y42670000D01*
X49825000Y45628779D02*
X49825000Y45303221D01*
X50845000Y45628779D02*
X50845000Y45303221D01*
X56987221Y15877000D02*
X57312779Y15877000D01*
X56987221Y14857000D02*
X57312779Y14857000D01*
X40794000Y39789000D02*
X40794000Y37504000D01*
X40794000Y37504000D02*
X42264000Y37504000D01*
X42264000Y37504000D02*
X42264000Y39789000D01*
X43686000Y6512779D02*
X43686000Y6187221D01*
X44706000Y6512779D02*
X44706000Y6187221D01*
X29682221Y53723000D02*
X30007779Y53723000D01*
X29682221Y52703000D02*
X30007779Y52703000D01*
X47115000Y17688779D02*
X47115000Y17363221D01*
X48135000Y17688779D02*
X48135000Y17363221D01*
X51814000Y6385779D02*
X51814000Y6060221D01*
X52834000Y6385779D02*
X52834000Y6060221D01*
X49134000Y42175000D02*
X50434000Y42175000D01*
X50684000Y40375000D02*
X49134000Y40375000D01*
X11936000Y56733221D02*
X11936000Y57058779D01*
X12956000Y56733221D02*
X12956000Y57058779D01*
X5012000Y23975000D02*
X5012000Y20475000D01*
X5012000Y20475000D02*
X9212000Y20475000D01*
X45591000Y17688779D02*
X45591000Y17363221D01*
X46611000Y17688779D02*
X46611000Y17363221D01*
X33018000Y56479221D02*
X33018000Y56804779D01*
X34038000Y56479221D02*
X34038000Y56804779D01*
X33182779Y34165000D02*
X32857221Y34165000D01*
X33182779Y33145000D02*
X32857221Y33145000D01*
X36177000Y22814000D02*
X36177000Y23414000D01*
X36727000Y21614000D02*
X37327000Y21614000D01*
X36827000Y24114000D02*
X39627000Y24114000D01*
X37027000Y21914000D02*
X36727000Y21614000D01*
X37027000Y21914000D02*
X37327000Y21614000D01*
X39627000Y22114000D02*
X36827000Y22114000D01*
X40277000Y23414000D02*
X40277000Y22814000D01*
X36177000Y23414000D02*
G75*
G02*
X36877000Y24114000I699999J1D01*
G01*
X36877000Y22114000D02*
G75*
G02*
X36177000Y22814000I-1J699999D01*
G01*
X39577000Y24114000D02*
G75*
G02*
X40277000Y23414000I0J-700000D01*
G01*
X40277000Y22814000D02*
G75*
G02*
X39577000Y22114000I-700000J0D01*
G01*
X40794000Y34124000D02*
X40794000Y31839000D01*
X42264000Y34124000D02*
X40794000Y34124000D01*
X42264000Y31839000D02*
X42264000Y34124000D01*
X16075000Y53902000D02*
X16075000Y53677000D01*
X16075000Y46682000D02*
X16075000Y46907000D01*
X16300000Y53902000D02*
X16075000Y53902000D01*
X16300000Y46682000D02*
X16075000Y46682000D01*
X23070000Y53902000D02*
X23295000Y53902000D01*
X23070000Y46682000D02*
X23295000Y46682000D01*
X23295000Y53902000D02*
X23295000Y53677000D01*
X23295000Y46907000D02*
X24610000Y46907000D01*
X23295000Y46682000D02*
X23295000Y46907000D01*
X37175221Y27053000D02*
X37500779Y27053000D01*
X37175221Y26033000D02*
X37500779Y26033000D01*
X45507000Y50510221D02*
X45507000Y50835779D01*
X46527000Y50510221D02*
X46527000Y50835779D01*
X29600000Y55259000D02*
X32030000Y55259000D01*
X31360000Y58329000D02*
X29600000Y58329000D01*
X49825000Y35976779D02*
X49825000Y35651221D01*
X50845000Y35976779D02*
X50845000Y35651221D01*
X34422000Y58889000D02*
X34422000Y57189000D01*
X34422000Y58889000D02*
X37572000Y58889000D01*
X34422000Y57189000D02*
X37572000Y57189000D01*
X45337000Y13497779D02*
X45337000Y13172221D01*
X46357000Y13497779D02*
X46357000Y13172221D01*
X50290000Y6385779D02*
X50290000Y6060221D01*
X51310000Y6385779D02*
X51310000Y6060221D01*
D14*
X5924000Y18260000D02*
X5924000Y18055000D01*
X5924000Y18260000D02*
X11424000Y18260000D01*
X5924000Y18055000D02*
X4174000Y18055000D01*
X5924000Y12750000D02*
X5924000Y13050000D01*
X5924000Y12750000D02*
X11424000Y12750000D01*
X11424000Y18260000D02*
X11424000Y17960000D01*
X11424000Y12750000D02*
X11424000Y13050000D01*
D10*
X48639000Y17688779D02*
X48639000Y17363221D01*
X49659000Y17688779D02*
X49659000Y17363221D01*
X11711000Y60871000D02*
X11711000Y58586000D01*
X11711000Y58586000D02*
X13181000Y58586000D01*
X13181000Y58586000D02*
X13181000Y60871000D01*
D15*
X6824000Y41670000D02*
X21824000Y41670000D01*
X6824000Y26670000D02*
X6824000Y41670000D01*
X21824000Y41670000D02*
X21824000Y26670000D01*
X21824000Y26670000D02*
X6824000Y26670000D01*
D12*
X23424000Y27670000D02*
G75*
G02*
X23224000Y27670000I-100000J0D01*
G01*
X23224000Y27670000D02*
G75*
G02*
X23424000Y27670000I100000J0D01*
G01*
D10*
X15486000Y65127000D02*
X15486000Y66087000D01*
D14*
X15486000Y61227000D02*
X15486000Y62127000D01*
D10*
X15486000Y58467000D02*
X15486000Y59277000D01*
X16646000Y58467000D02*
X15486000Y58467000D01*
X16646000Y58467000D02*
X16646000Y58267000D01*
X22106000Y66087000D02*
X15486000Y66087000D01*
X22106000Y66087000D02*
X22106000Y65127000D01*
X22106000Y62127000D02*
X22106000Y61227000D01*
X22106000Y59277000D02*
X22106000Y58467000D01*
X22106000Y58467000D02*
X20946000Y58467000D01*
X47152779Y5971000D02*
X46827221Y5971000D01*
X47152779Y4951000D02*
X46827221Y4951000D01*
X49134000Y32015000D02*
X50434000Y32015000D01*
X50684000Y30215000D02*
X49134000Y30215000D01*
X48301000Y45628779D02*
X48301000Y45303221D01*
X49321000Y45628779D02*
X49321000Y45303221D01*
X49410221Y34038000D02*
X49735779Y34038000D01*
X49410221Y33018000D02*
X49735779Y33018000D01*
X46793000Y12065000D02*
X46793000Y14265000D01*
X46793000Y12065000D02*
X46793000Y8465000D01*
X52013000Y12065000D02*
X52013000Y14265000D01*
X52013000Y12065000D02*
X52013000Y9865000D01*
X1108000Y39218000D02*
X1108000Y26458000D01*
X1108000Y39218000D02*
X3768000Y39218000D01*
X1108000Y26458000D02*
X3768000Y26458000D01*
X2438000Y41818000D02*
X3768000Y41818000D01*
X3768000Y41818000D02*
X3768000Y40488000D01*
X3768000Y39218000D02*
X3768000Y26458000D01*
X41019000Y28991779D02*
X41019000Y28666221D01*
X42039000Y28991779D02*
X42039000Y28666221D01*
X51420000Y49237000D02*
X51420000Y47537000D01*
X51420000Y49237000D02*
X54570000Y49237000D01*
X51420000Y47537000D02*
X54570000Y47537000D01*
X48165000Y49417000D02*
X50595000Y49417000D01*
X49925000Y52487000D02*
X48165000Y52487000D01*
X43813000Y13497779D02*
X43813000Y13172221D01*
X44833000Y13497779D02*
X44833000Y13172221D01*
X45210000Y7909779D02*
X45210000Y7584221D01*
X46230000Y7909779D02*
X46230000Y7584221D01*
X12914000Y47307221D02*
X12914000Y47632779D01*
X13934000Y47307221D02*
X13934000Y47632779D01*
X60416221Y9297000D02*
X60741779Y9297000D01*
X60416221Y8277000D02*
X60741779Y8277000D01*
D15*
X51399000Y32836000D02*
X51399000Y35236000D01*
X57399000Y32836000D02*
X57399000Y35236000D01*
D10*
X14823221Y19052000D02*
X15148779Y19052000D01*
X14823221Y18032000D02*
X15148779Y18032000D01*
D14*
X36555000Y17669000D02*
X36655000Y17669000D01*
X36555000Y11944000D02*
X36555000Y17669000D01*
X43380000Y17669000D02*
X43355000Y17669000D01*
X43380000Y13019000D02*
X43355000Y13019000D01*
X43380000Y13019000D02*
X43380000Y17669000D01*
D10*
X36576000Y41910000D02*
X36576000Y40894000D01*
X36576000Y41910000D02*
X38608000Y41910000D01*
X38608000Y41910000D02*
X38608000Y40894000D01*
X38608000Y40894000D02*
X36576000Y40894000D01*
X48301000Y35976779D02*
X48301000Y35651221D01*
X49321000Y35976779D02*
X49321000Y35651221D01*
X34422000Y56857000D02*
X34422000Y55157000D01*
X34422000Y56857000D02*
X37572000Y56857000D01*
X34422000Y55157000D02*
X37572000Y55157000D01*
X52131000Y56388000D02*
G75*
G02*
X50231000Y56388000I-950000J0D01*
G01*
X50231000Y56388000D02*
G75*
G02*
X52131000Y56388000I950000J0D01*
G01*
X53737000Y7047000D02*
X53737000Y8447000D01*
X54437000Y9147000D02*
X55037000Y9147000D01*
X55037000Y6347000D02*
X54437000Y6347000D01*
X55737000Y8447000D02*
X55737000Y7047000D01*
X53737000Y8447000D02*
G75*
G02*
X54437000Y9147000I699999J1D01*
G01*
X54437000Y6347000D02*
G75*
G02*
X53737000Y7047000I0J700000D01*
G01*
X55037000Y9147000D02*
G75*
G02*
X55737000Y8447000I1J-699999D01*
G01*
X55737000Y7047000D02*
G75*
G02*
X55037000Y6347000I-700000J0D01*
G01*
X44795221Y10543000D02*
X45120779Y10543000D01*
X44795221Y9523000D02*
X45120779Y9523000D01*
D14*
X20299000Y17669000D02*
X20399000Y17669000D01*
X20299000Y11944000D02*
X20299000Y17669000D01*
X27124000Y17669000D02*
X27099000Y17669000D01*
X27124000Y13019000D02*
X27099000Y13019000D01*
X27124000Y13019000D02*
X27124000Y17669000D01*
M02*
